<svg xmlns="http://www.w3.org/2000/svg" width="90" height="70" viewBox="0 0 90 70" class="icon-inline icon-inline-teal"><path d="M75.6 26.4H65v-6.1l-1.5-1.5h-7.4l-1.5 1.5v6H50V12.8c0-4.9-4-8.9-8.9-8.9s-8.9 4-8.9 8.9c0 .8.7 1.5 1.5 1.5s1.5-.7 1.5-1.5c0-3.3 2.7-6.1 6.1-6.1 3.5 0 6.1 2.7 6.1 6.1v13.5H35.2v-6.1l-1.5-1.5h-7.4l-1.5 1.5v6.1H14.2c-2.3 0-4.1 1.9-4.1 4.1v3.7c0 2.4 1.9 4.2 4.2 4.2h61.3c2.3 0 4.1-1.9 4.1-4.1v-3.7c0-2.2-1.9-4.1-4.1-4.1zm-18.1-4.7h4.6v4.6h-4.6v-4.6zm-29.8 0h4.6v4.6h-4.6v-4.6zm49.1 12.4c0 .8-.7 1.3-1.3 1.3H14.3c-.8 0-1.3-.7-1.3-1.3v-3.7h-.1c0-.8.7-1.3 1.3-1.3h61.3c.8 0 1.3.7 1.3 1.3v3.7zm-4.3 32c2.7-.4 4.5-2 4.6-3.8l2.8-19.5c.1-.7-.3-1.5-.9-1.6-.8-.3-1.7.3-1.9 1.2L74.4 62v.1c0 .4-1.2 1.3-3.3 1.3H18.9c-2 0-3.3-.9-3.3-1.3l-2.8-19.8c-.1-.8-.9-1.5-1.9-1.2-.7.3-1.1.9-.9 1.6l2.8 19.5c.1 1.9 2 3.4 4.6 3.8"></path></svg>