<svg xmlns="http://www.w3.org/2000/svg" width="125" height="40" viewBox="0 0 125 40" class="icon-inline icon-inline-teal"><path fill="none" stroke="currentColor" stroke-width="3" stroke-miterlimit="10" d="M31.7 8.5c.4-.3 1.2-.6 1.8-.6h58c.6 0 1.4.3 1.8.6l28.4 23.1c.4.3.3.6-.2.6H3.5c-.5 0-.6-.3-.2-.6L31.7 8.5z"></path><path fill="none" stroke="currentColor" stroke-width="2" stroke-miterlimit="10" d="M47.3 8.9c.4-.3 1.2-.6 1.8-.6H76c.6 0 1.3.3 1.8.6l12.8 10.5c.4.3.3.6-.2.6H34.6c-.5 0-.7-.3-.2-.6L47.3 8.9z"></path></svg>