<?xml version="1.0" encoding="utf-8" ?>
<!-- Generator: Adobe Illustrator 16.0.0, SVG Export Plug-In . SVG Version: 6.00 Build 0)  -->
<!DOCTYPE svg PUBLIC "-//W3C//DTD SVG 1.1//EN" "http://www.w3.org/Graphics/SVG/1.1/DTD/svg11.dtd">
<svg version="1.1" id="Layer_1" focusable="false" xmlns="http://www.w3.org/2000/svg" xmlns:xlink="http://www.w3.org/1999/xlink"
     x="0px" y="0px" width="734px" height="734px" viewBox="273.5 -8.5 734 734" enable-background="new 273.5 -8.5 734 734"
     xml:space="preserve">
<path fill="#FFFFFF" transform="scale(.30,-.30) translate(1500,-2000)" d="M1024 161v190q0 14 -9.5 23.5t-22.5 9.5h-192q-13 0 -22.5 -9.5t-9.5 -23.5v-190q0 -14 9.5 -23.5t22.5 -9.5h192q13 0 22.5 9.5t9.5 23.5zM1022 535l18 459q0 12 -10 19q-13 11 -24 11h-220q-11 0 -24 -11q-10 -7 -10 -21l17 -457q0 -10 10 -16.5t24 -6.5h185
q14 0 23.5 6.5t10.5 16.5zM1008 1469l768 -1408q35 -63 -2 -126q-17 -29 -46.5 -46t-63.5 -17h-1536q-34 0 -63.5 17t-46.5 46q-37 63 -2 126l768 1408q17 31 47 49t65 18t65 -18t47 -49z"/>
</svg>




