<svg xmlns="http://www.w3.org/2000/svg" width="75" height="75" viewBox="0 0 75 75" class="icon-inline icon-inline-teal"><path fill="currentColor" d="M18.4 19l-9.6 6.8-5.4 3.8c-.9.6-1.1 1.9-.5 2.8.6.9 1.9 1.1 2.8.5l2.2-1.6V67c0 1.1.9 2 2 2h55.2c1.1 0 2-.9 2-2V31.4l2.2 1.6c.3.2.7.4 1.1.4.6 0 1.3-.3 1.6-.9.7-1 .5-2.2-.4-2.8l-5.4-3.8L38.7 6.3c-.7-.5-1.6-.5-2.3 0l-5.6 4m-3.2 3.4l-6.1 4.4m23.3 48.5H30.3m-3.6 0H10.6V28.1L37.5 8.9l26.8 19.2v38.5H48.4"></path><path fill="none" stroke="currentColor" stroke-width="2" stroke-miterlimit="10" d="M59 32.8c.5 0 .9.4.9.9v32.8c0 .5-.4.9-.9.9H16c-.5 0-.9-.4-.9-.9V33.7c0-.5.4-.9.9-.9h43z"></path><path fill="none" stroke="currentColor" stroke-miterlimit="10" d="M15.4 50.1h44.2M15.4 44.3h44.2M15.4 61.8h44.2M15.4 55.9h44.2M15.4 38.4h44.2"></path><path fill="none" stroke="currentColor" stroke-width="2" stroke-linecap="round" stroke-linejoin="round" stroke-miterlimit="10" d="M35.5 64.2h4"></path></svg>