<?xml version="1.0" encoding="utf-8"?>
<!-- Generator: Adobe Illustrator 16.0.0, SVG Export Plug-In . SVG Version: 6.00 Build 0)  -->
<!DOCTYPE svg PUBLIC "-//W3C//DTD SVG 1.1//EN" "http://www.w3.org/Graphics/SVG/1.1/DTD/svg11.dtd">
<svg version="1.1" id="Layer_1" focusable="false" xmlns="http://www.w3.org/2000/svg" xmlns:xlink="http://www.w3.org/1999/xlink"
	 x="0px" y="0px" width="734px" height="734px" viewBox="273.5 -8.5 734 734" enable-background="new 273.5 -8.5 734 734"
	 xml:space="preserve">
<path fill="#FFFFFF" d="M640.5,360.012c78.882,0,142.811-67.864,142.811-151.623c0-83.759-63.929-151.624-142.811-151.624
	c-78.881,0-142.81,67.864-142.81,151.624C497.69,292.147,561.619,360.012,640.5,360.012z M740.477,397.91h-18.628
	c-24.794,12.104-52.353,18.979-81.349,18.979c-28.998,0-56.467-6.875-81.349-18.979h-18.628
	c-82.788,0-149.947,71.332-149.947,159.233v49.238c0,31.405,23.972,56.877,53.556,56.877h392.736
	c29.554,0,53.556-25.472,53.556-56.877v-49.238C890.424,469.242,823.265,397.91,740.477,397.91z"/>
</svg>
