<svg xmlns="http://www.w3.org/2000/svg" width="70" height="75" viewBox="0 0 70 75" class="icon-inline icon-inline-teal"><path d="M64 3.8H6c-1.4 0-2.5 1.1-2.5 2.5v62.4c0 1.4 1.1 2.5 2.5 2.5h58c1.4 0 2.5-1.1 2.5-2.5V6.3c0-1.4-1.1-2.5-2.5-2.5zm-.5 3v48.9h-57V6.8h57zm-57 61.4v-9.4h57v9.4h-57z"></path><path d="M8.2 60.7h15.3v5.2H8.2z"></path><circle cx="53.9" cy="63.3" r="1.9"></circle><circle cx="59.9" cy="63.3" r="1.9"></circle><path d="M15.2 36.8c1.1 0 3.2-.4 5.2-1.2-.8 2-1.2 4.1-1.2 5.2 0 3.3 2.7 6 6 6s6-2.7 6-6c0-1.1-.4-3.3-1.2-5.2 2 .8 4.1 1.2 5.2 1.2 3.3 0 6-2.7 6-6s-2.7-6-6-6c-1.1 0-3.2.4-5.2 1.2.8-2 1.2-4.1 1.2-5.2 0-3.3-2.7-6-6-6s-6 2.7-6 6c0 1.1.4 3.3 1.2 5.2-2-.8-4.1-1.2-5.2-1.2-3.3 0-6 2.7-6 6s2.7 6 6 6zm10 7c-1.6 0-3-1.3-3-3 0-2.6 2-7.1 3-7.1.9 0 3 4.5 3 7.1 0 1.7-1.4 3-3 3zm13-13c0 1.6-1.3 3-3 3-2.6 0-7.1-2-7.1-3 0-.9 4.5-3 7.1-3 1.7.1 3 1.4 3 3zm-13-13c1.6 0 3 1.3 3 3 0 2.6-2 7.1-3 7.1-.9 0-3-4.5-3-7.1 0-1.6 1.4-3 3-3zm-10 10.1c2.6 0 7.1 2 7.1 3 0 .9-4.5 3-7.1 3-1.6 0-3-1.3-3-3s1.3-3 3-3zm32 15.5H58c.8 0 1.5-.7 1.5-1.5s-.7-1.5-1.5-1.5H47.2c-.8 0-1.5.7-1.5 1.5s.7 1.5 1.5 1.5zm0-7.4H58c.8 0 1.5-.7 1.5-1.5S58.8 33 58 33H47.2c-.8 0-1.5.7-1.5 1.5s.7 1.5 1.5 1.5zm0-7.4H58c.8 0 1.5-.7 1.5-1.5s-.7-1.5-1.5-1.5H47.2c-.8 0-1.5.7-1.5 1.5s.7 1.5 1.5 1.5zm0-7.4H58c.8 0 1.5-.7 1.5-1.5s-.7-1.5-1.5-1.5H47.2c-.8 0-1.5.7-1.5 1.5s.7 1.5 1.5 1.5z"></path></svg>