<?xml version="1.0" encoding="utf-8"?>
<!-- Generator: Adobe Illustrator 16.0.0, SVG Export Plug-In . SVG Version: 6.00 Build 0)  -->
<!DOCTYPE svg PUBLIC "-//W3C//DTD SVG 1.1//EN" "http://www.w3.org/Graphics/SVG/1.1/DTD/svg11.dtd">
<svg version="1.1" id="Layer_1" focusable="false" xmlns="http://www.w3.org/2000/svg" xmlns:xlink="http://www.w3.org/1999/xlink"
	 x="0px" y="0px" width="734px" height="734px" viewBox="273.5 -8.5 734 734" enable-background="new 273.5 -8.5 734 734"
	 xml:space="preserve">
<path d="M707.5,540c0,37.279-30.221,67.5-67.5,67.5s-67.5-30.221-67.5-67.5c0-29.388,18.786-54.375,45-63.645V202.5
	c0-12.427,10.073-22.5,22.5-22.5s22.5,10.073,22.5,22.5v273.855C688.714,485.625,707.5,510.612,707.5,540z M775,420.957
	c28.001,31.73,45,73.398,45,119.043c0,99.416-80.581,180-180,180c-0.421,0-0.857-0.001-1.278-0.004
	c-98.862-0.687-179.224-82.07-178.719-180.934c0.23-45.279,17.188-86.593,44.997-118.105V135C505,60.442,565.442,0,640,0
	s135,60.442,135,135V420.957z M775,540c0-56.101-32.082-87.39-45-102.027V135c0-49.626-40.373-90-90-90s-90,40.374-90,90v302.973
	c-13.313,15.086-44.715,45.818-44.999,101.318c-0.378,74.118,59.934,135.19,134.033,135.705L640,675
	C714.439,675,775,614.439,775,540z"/>
</svg>
