<svg xmlns="http://www.w3.org/2000/svg" width="100" height="75" viewBox="0 0 100 75" class="icon-inline icon-inline-teal"><path d="M34.3 69.5H12.7c-.8 0-1.5-.7-1.5-1.5V39.5c0-.8.7-1.5 1.5-1.5h21.7c.8 0 1.5.7 1.5 1.5V68c-.1.9-.7 1.5-1.6 1.5zm-20.1-3h18.7V41H14.2v25.5zm72.1 3H64.6c-.8 0-1.5-.7-1.5-1.5V39.5c0-.8.7-1.5 1.5-1.5h21.7c.8 0 1.5.7 1.5 1.5V68c0 .9-.7 1.5-1.5 1.5zm-20.2-3h18.7V41H66.1v25.5z"></path><path d="M64.6 69.5H34.3c-.8 0-1.5-.7-1.5-1.5V39.5c0-.8.7-1.5 1.5-1.5h30.3c.8 0 1.5.7 1.5 1.5V68c0 .9-.7 1.5-1.5 1.5zm-28.8-3h27.3V41H35.8v25.5z"></path><path d="M63.4 48.5H35.5c-.8 0-1.5-.7-1.5-1.5s.7-1.5 1.5-1.5h27.9c.8 0 1.5.7 1.5 1.5s-.7 1.5-1.5 1.5zm-7.8 13.4H43.4c-.8 0-1.5-.7-1.5-1.5v-6.7c0-.8.7-1.5 1.5-1.5h12.2c.8 0 1.5.7 1.5 1.5v6.7c0 .8-.7 1.5-1.5 1.5zm-10.7-3h9.2v-3.7h-9.2v3.7zm23.4-31.6H30.7c-.6 0-1.1-.4-1.4-.9-.2-.6-.1-1.2.3-1.6l10.8-11.2V5.9c0-.8.7-1.5 1.5-1.5h15.2c.8 0 1.5.7 1.5 1.5v7.7l10.8 11.1c.4.4.5 1.1.3 1.6-.3.6-.8 1-1.4 1zm-20.1-3h16.5l-8.7-9c-.3-.3-.4-.7-.4-1V7.4H43.4v6.9c0 .4-.2.8-.4 1l-8.7 9h13.9z"></path></svg>