<svg xmlns="http://www.w3.org/2000/svg" width="65" height="65" viewBox="0 0 65 65" class="icon-inline icon-inline-teal"><path d="M57.2 21.8v-.4s0-.1-.1-.1c0 0 0-.1-.1-.1l-.1-.1-2.4-2V5.7c0-.6-.5-1-1.1-1H42.2c-.6 0-1.1.5-1.1 1.1v2.5l-8.5-7c-.4-.3-1-.3-1.3 0L7.2 21.2l-.1.1s0 .1-.1.1c0 0 0 .1-.1.1V62c0 .6.5 1.1 1 1.1h48.3c.6 0 1.1-.5 1.1-1v-40c-.1-.2-.1-.2-.1-.3zm-2.1 4.1H8.9V23h46.2v2.9zM40 48.1h15.2V51H40v-2.9zm0-2.1v-2.9h15.2V46H40zm0-5v-2.9h15.2V41H40zM8.9 36v-2.9h46.2V36H8.9zM24 46H8.9v-2.9h15.2V46zM8.9 48.1h15.2V51H8.9v-2.9zM24 41H8.9v-2.9h15.2V41zM8.9 30.9V28h46.2v2.9H8.9zm0 22.2h15.2V56H8.9v-2.9zm17.2-15h11.7V61H26.1V38.1zm13.9 15h15.2V56H40v-2.9zm3.3-46.4h9v10.7l-9-7.5V6.7zM32 3.3l21.2 17.6H10.8L32 3.3zM8.9 58.1h15.2V61H8.9v-2.9zM40 61v-2.9h15.2V61H40z"></path></svg>