<?xml version="1.0" encoding="utf-8"?>
<!-- Generator: Adobe Illustrator 16.0.0, SVG Export Plug-In . SVG Version: 6.00 Build 0)  -->
<!DOCTYPE svg PUBLIC "-//W3C//DTD SVG 1.1//EN" "http://www.w3.org/Graphics/SVG/1.1/DTD/svg11.dtd">
<svg version="1.1" id="Layer_1" xmlns="http://www.w3.org/2000/svg" xmlns:xlink="http://www.w3.org/1999/xlink" x="0px" y="0px"
	 width="784px" height="404px" viewBox="0 0 784 404" enable-background="new 0 0 784 404" xml:space="preserve">
<g>
	<g>
		<path fill="#030000" d="M85.937,252.487c-3.911-3.305-7.515-6.349-12.066-10.193c-1.044,0.637-2.107,1.286-3.223,1.967
			c5.151,4.352,9.031,7.629,13.29,11.227c5.456-3.206,10.414-6.12,16.793-9.87c-0.431-0.372-0.842-0.727-1.257-1.085
			C94.589,247.402,90.425,249.85,85.937,252.487z M164.848,102.043c-20.711,11.409-39.926,21.993-59.426,32.734
			c-15.226-11.878-29.908-23.761-46.047-36.816c-1.136,0.623-2.256,1.236-3.404,1.864c16.7,13.509,31.781,25.728,47.451,37.952
			c20.572-11.332,40.804-22.477,62.835-34.612C165.782,102.787,165.321,102.419,164.848,102.043z M133.971,237.399
			c10.513-5.881,20.577-11.511,33.002-18.462c-0.469-0.379-0.916-0.739-1.377-1.111c-10.898,6.098-20.086,11.237-29.625,16.573
			c-7.687-6.251-15.01-12.207-23.589-19.186c-1.057,0.636-2.136,1.285-3.272,1.965C118.251,224.615,125.902,230.838,133.971,237.399
			z M22.848,316.821c-4.014-3.538-7.635-6.727-12.118-10.677c-1.036,0.635-2.088,1.279-3.188,1.953
			c5.053,4.452,8.94,7.876,13.307,11.724c5.535-3.34,10.739-6.48,17.294-10.437c-0.426-0.358-0.831-0.699-1.241-1.044
			C31.81,311.414,27.437,314.053,22.848,316.821z M344.654,51.794c-0.471-0.377-0.932-0.742-1.401-1.117
			c-20.529,11.368-39.544,21.898-59.233,32.801c-14.991-11.864-29.913-23.675-46.17-36.542c-1.072,0.672-2.145,1.347-3.217,2.037
			c16.735,13.245,32.02,25.343,47.387,37.505C302.798,74.973,322.804,63.894,344.654,51.794z M605.198,47.966
			c-0.145-0.087-0.287-0.172-0.432-0.259c-4.926,5.073-11.531,9.119-22.396,14.066c-7.736-4.722-15.722-9.595-25.333-15.46
			c-1.137,0.683-2.296,1.378-3.487,2.092c10.293,6.281,18.683,11.401,26.82,16.368C593.121,58.967,600.015,54.407,605.198,47.966z
			 M553.761,80.562c-0.266-0.161-0.531-0.322-0.797-0.483c-14.254,11.276-73.499,47.528-94.661,57.867
			c-32.818-20.249-65.913-40.667-100.984-62.305c-1.174,0.691-2.332,1.374-3.511,2.068c35.636,21.986,69.203,42.696,102.495,63.237
			C479.496,129.613,548.447,87.148,553.761,80.562z M365.955,182.475c-39.492,22.309-78.875,44.556-118.918,67.177
			c-30.637-24.582-61.145-49.059-91.653-73.536c-1.422,1.043-2.383,1.846-2.798,2.36c30.774,24.69,61.546,49.38,92.451,74.176
			c41.092-23.214,81.489-46.033,122.022-68.931C366.832,183.411,366.455,182.99,365.955,182.475z M727.965,108.829
			c-4.162-2.486-8.03-4.797-13.203-7.888c-1.017,0.725-2.07,1.477-3.2,2.283c5.801,3.466,9.921,5.927,14.403,8.604
			c4.118-2.564,7.95-4.95,13.919-8.667c-0.487-0.302-0.946-0.586-1.412-0.875C734.346,104.855,731.236,106.792,727.965,108.829z
			 M165.911,396.414c-7.834-6.487-15.332-12.697-24.37-20.183c-1.1,0.626-2.197,1.251-3.331,1.897
			c9.65,7.992,17.48,14.478,25.701,21.285c10.911-6.188,21.739-11.515,32.997-19.595c-0.359-0.294-0.704-0.577-1.059-0.869
			C185.682,385.868,175.83,390.788,165.911,396.414z M643.87,142.43c-13.041,8.014-26.055,16.077-39.269,23.798
			c-2.26,1.319-6.212,2.431-8.054,1.357c-16.342-9.517-32.385-19.547-47.994-29.106c-0.033-0.467-0.061-0.806-0.083-1.069
			c-0.609,0.384-1.221,0.769-1.83,1.153c-0.193,0.122-0.191,0.608-0.216,0.93c-0.024,0.314,0.034,0.636,0.129,1.986
			c15.609,9.56,31.652,19.59,47.994,29.106c1.842,1.073,5.794-0.038,8.054-1.357c13.214-7.721,26.228-15.784,39.269-23.798
			c1.344-0.825,2.422-2.083,5.064-4.407c-0.259-0.157-0.512-0.31-0.77-0.466C645.279,141.38,644.61,141.975,643.87,142.43z
			 M773.622,42.565c-0.466-0.275-0.917-0.542-1.38-0.816c-15.799,10.191-30.797,18.708-45.806,28.109
			c-17.043-10.176-33.837-20.203-50.742-30.296c-1.09,0.994-1.961,1.894-2.558,2.667c17.094,10.206,34.069,20.341,51.3,30.629
			C740.516,62.786,756.569,53.757,773.622,42.565z M587.933,223.912c-1.294,0.793-4.031,0.399-5.504-0.465
			c-7.294-4.278-14.427-8.865-22.994-14.232c-1.03,0.708-2.1,1.442-3.243,2.221c9.136,5.71,16.589,10.525,24.237,15.012
			c1.473,0.864,4.21,1.258,5.504,0.465c7.486-4.592,15.678-8.225,23.359-15.601c-0.269-0.166-0.529-0.326-0.797-0.491
			C601.646,216.574,594.517,219.873,587.933,223.912z M155.741,350.813c-15.404-12.67-30.572-25.147-47.43-39.014
			c-1.119,0.631-2.222,1.253-3.35,1.89c17.406,14.317,32.962,27.113,48.78,40.124c21.172-12.039,41.836-23.79,63.814-36.289
			c-0.423-0.385-0.846-0.76-1.269-1.141C195.526,328.189,175.856,339.375,155.741,350.813z M404.448,298.938
			c-15.264-12.224-31.348-23.954-47.368-38.257c-1.092,0.623-2.174,1.24-3.273,1.866c16.44,14.823,32.973,26.844,48.641,39.391
			c20.731-9.566,56.317-31.032,61.246-37.302c-0.203-0.16-0.406-0.32-0.609-0.48C453.277,272.387,422.954,290.399,404.448,298.938z"
			/>
	</g>
</g>
</svg>
