<svg xmlns="http://www.w3.org/2000/svg" fill-rule="evenodd" viewBox="0 0 216 230" clip-rule="evenodd"><g fill="#fff"><path d="M103.82 107.75h-20.6c-1.57 0-2.73-1.3-2.73-2.74V89.33c0-1.44 1.15-2.74 2.73-2.74h63.94c1.58 0 2.73 1.3 2.73 2.74v15.7c0 1.43-1.15 2.73-2.73 2.73h-20.6v79.37c0 1.44-1.3 2.73-2.73 2.73h-17.28c-1.44 0-2.74-1.3-2.74-2.73v-79.37zM23.74 67.56l90.68-41.7c.46-.22.97-.22 1.44 0l77.42 35.6L216 46.9 115.86.87c-.47-.2-.98-.2-1.44 0L1.02 53c-.6.26-1.02.9-1.02 1.58v173.7c0 .96.8 1.72 1.73 1.72h123.1c.96 0 1.75-.78 1.75-1.75v-19.2c0-.96-.8-1.74-1.75-1.74H24.45c-.95 0-1.73-.75-1.73-1.73V69.13c0-.7.4-1.32 1.02-1.57z"/></g></svg>