<svg xmlns="http://www.w3.org/2000/svg" fill-rule="evenodd" viewBox="0 0 396 109" clip-rule="evenodd"><g fill="#fff"><path d="M382.2 92.35l.02.7c0 .2-.14.35-.36.35l-3.84.05.18 14.95c0 .22-.14.36-.35.37h-.8c-.2 0-.35-.13-.36-.35l-.2-14.95-3.84.05c-.2 0-.36-.14-.36-.36v-.7c0-.2.13-.35.35-.35l9.2-.1c.2 0 .35.13.36.35zM395.96 104.34c.03 2.4-2.26 4.54-5.3 4.58-2.3.03-4.07-1.02-5.16-2.44-.13-.22-.08-.34.1-.48l.48-.44c.17-.15.33-.12.5.04.9 1.04 2.2 1.98 4.02 1.96 2.4-.03 3.9-1.55 3.88-3.32-.06-4.33-8.76-2.98-8.83-8.35-.03-2.35 1.93-4.17 4.68-4.2 1.72-.02 3.52.8 4.66 2.2.14.15.14.3-.05.5l-.4.35c-.16.17-.33.2-.5.03-1.07-1.1-2.2-1.76-3.73-1.74-1.8.02-3.28 1.02-3.26 2.86.05 4.2 8.83 2.8 8.9 8.44zM146.6 92.33v16c0 .22-.15.36-.36.36h-.8c-.2 0-.35-.15-.35-.37v-7.3h-8.2v7.3c0 .22-.15.36-.36.36h-.8c-.2 0-.35-.15-.35-.37v-16c0-.22.13-.36.35-.36h.8c.2 0 .34.14.34.36v7.3h8.2v-7.3c0-.22.13-.36.35-.36h.8c.2 0 .34.14.34.36zM166.58 100.4c0-4.06-3.13-7.26-7.07-7.26-3.98 0-7.1 3.2-7.1 7.26 0 4 3.12 7.2 7.1 7.2 3.95 0 7.08-3.2 7.08-7.2zm-15.62 0c0-4.8 3.82-8.63 8.55-8.63 4.72 0 8.5 3.83 8.5 8.63 0 4.78-3.78 8.6-8.5 8.6-4.72 0-8.54-3.82-8.54-8.6zM189.03 92.33v16c0 .22-.15.36-.36.36h-.8c-.2 0-.35-.15-.35-.37v-13.8l-6 13.9c-.07.2-.2.26-.4.26h-.86c-.2 0-.34-.08-.4-.27l-5.96-13.8v13.7c0 .22-.14.36-.35.36h-.8c-.2 0-.35-.15-.35-.37v-16c0-.22.14-.36.36-.36h1.17c.2 0 .36.07.43.24l6.35 14.84 6.32-14.83c.07-.16.24-.23.43-.23h1.22c.2 0 .36.14.36.36zM203 107.64v.7c0 .2-.15.35-.36.35h-8.1c-.22 0-.36-.15-.36-.37v-16c0-.22.14-.36.36-.36h8.07c.23 0 .37.14.37.36v.7c0 .2-.14.34-.36.34h-6.9v5.7h6.5c.22 0 .37.14.37.35v.7c0 .2-.15.35-.36.35h-6.5v6.8h6.94c.2 0 .35.15.35.37zM215.7 91.97h.8c.2 0 .35.14.35.35v16c0 .23-.15.37-.36.37h-.8c-.2 0-.36-.15-.36-.37v-16c0-.22.15-.36.36-.36zM238.57 92.33v16c0 .22-.14.36-.36.36h-.77c-.22 0-.36-.15-.36-.37v-13.8l-6 13.9c-.07.2-.2.26-.4.26h-.87c-.2 0-.33-.08-.4-.27l-5.95-13.8v13.7c0 .22-.14.36-.36.36h-.8c-.2 0-.36-.15-.36-.37v-16c0-.22.15-.36.36-.36h1.17c.2 0 .36.07.43.24l6.36 14.84 6.3-14.83c.08-.16.24-.23.43-.23h1.2c.23 0 .37.14.37.36zM252.47 97.08c0-2.65-1.8-3.7-4.1-3.7h-3.14v7.4h3.13c2.32 0 4.1-1.05 4.1-3.7zm1.46 0c0 2.9-1.9 5.1-5.47 5.1h-3.23v6.15c0 .22-.14.36-.36.36h-.8c-.2 0-.34-.15-.34-.37v-16c0-.22.14-.36.35-.36h4.38c3.56 0 5.47 2.2 5.47 5.1zM259.26 100.78h3.13c2.3 0 4.1-1.05 4.1-3.7 0-2.65-1.8-3.7-4.1-3.7h-3.13v7.4zm8.5 7.9h-.9c-.2 0-.33-.06-.43-.23l-4.2-6.26h-2.97v6.13c0 .22-.14.36-.35.36h-.78c-.22 0-.36-.15-.36-.37v-16c0-.22.14-.36.36-.36h4.37c3.55 0 5.46 2.2 5.46 5.1 0 2.54-1.46 4.55-4.2 5.03l4.23 6.16c.15.26.03.43-.25.43zM287.15 100.4c0-4.06-3.13-7.26-7.07-7.26-4 0-7.12 3.2-7.12 7.26 0 4 3.13 7.2 7.12 7.2 3.94 0 7.07-3.2 7.07-7.2zm-15.62 0c0-4.8 3.82-8.63 8.55-8.63 4.7 0 8.5 3.83 8.5 8.63 0 4.78-3.8 8.6-8.5 8.6-4.73 0-8.55-3.82-8.55-8.6zM303.64 91.97h.76c.26 0 .38.16.3.4l-5.9 16.03c-.08.2-.25.3-.44.3h-.9c-.18 0-.35-.1-.42-.3l-5.9-16.03c-.1-.24.03-.4.3-.4h.75c.2 0 .33.07.4.28l5.33 14.7 5.3-14.7c.07-.2.22-.28.4-.28zM317.36 107.64v.7c0 .2-.14.35-.36.35h-8.1c-.2 0-.35-.15-.35-.37v-16c0-.22.14-.36.35-.36h8.08c.2 0 .36.14.36.36v.7c0 .2-.15.34-.36.34h-6.93v5.7h6.52c.22 0 .36.14.36.35v.7c0 .2-.14.35-.36.35h-6.52v6.8H317c.22 0 .36.15.36.37zM338.18 92.33v16c0 .22-.15.36-.36.36h-.8c-.2 0-.35-.15-.35-.37v-13.8l-6 13.9c-.07.2-.2.26-.4.26h-.86c-.18 0-.33-.08-.4-.27l-5.95-13.8v13.7c0 .22-.14.36-.35.36h-.8c-.2 0-.35-.15-.35-.37v-16c0-.22.14-.36.36-.36h1.18c.2 0 .36.07.43.24l6.36 14.84 6.3-14.83c.08-.16.25-.23.44-.23h1.22c.2 0 .36.14.36.36zM352.15 107.64v.7c0 .2-.15.35-.36.35h-8.1c-.23 0-.37-.15-.37-.37v-16c0-.22.14-.36.36-.36h8.07c.2 0 .35.14.35.36v.7c0 .2-.14.34-.35.34h-6.93v5.7h6.52c.2 0 .36.14.36.35v.7c0 .2-.15.35-.36.35h-6.52v6.8h6.95c.2 0 .35.15.35.37zM368.4 92.33v16c0 .2-.12.34-.3.36h-1.23c-.2 0-.33-.08-.43-.25l-8.6-14.43v14.3c0 .23-.14.37-.36.37h-.8c-.2 0-.34-.15-.34-.37v-16c0-.2.1-.34.28-.36h1.24c.2 0 .34.07.43.24l8.6 14.44v-14.3c0-.23.14-.37.35-.37h.8c.2 0 .35.14.35.36zM86 54.2c2.47 0 4.6-2.3 4.6-4.84s-2.13-4.6-4.6-4.6h-8.96v9.44H86zM67.54 37.27c0-.6.48-1.15 1.15-1.15h18.08c7.25 0 13.18 5.86 13.18 13.06 0 5.56-3.7 10.04-8.95 12.15l8.3 15.36c.42.78 0 1.74-1.04 1.74h-8.04c-.48 0-.84-.3-.96-.54L81.2 61.88h-4.16v15.4c0 .62-.54 1.16-1.15 1.16h-7.2c-.67 0-1.15-.54-1.15-1.14V37.27zM127.47 64.23l-4.6-9.97h-.06l-4.52 9.98h9.2zm-24.85 12.94l18.93-40.7c.18-.35.6-.65 1.02-.65h.6c.43 0 .85.3 1.04.66l18.93 40.7c.36.78-.12 1.57-1.03 1.57h-6.7c-1.1 0-1.58-.37-2.13-1.5l-2.17-4.8h-16.45l-2.17 4.84c-.3.72-.97 1.45-2.18 1.45h-6.65c-.9 0-1.4-.8-1.03-1.58zM148.03 36.6c0-.6.55-1.08 1.15-1.08h1.5l24.13 23.2h.07V37.28c0-.6.5-1.15 1.15-1.15h7.26c.6 0 1.15.55 1.15 1.15v40.7c0 .6-.55 1.08-1.15 1.08h-.97c-.17 0-.65-.18-.77-.3l-23.9-24h-.05v22.54c0 .6-.48 1.14-1.14 1.14h-7.2c-.6 0-1.15-.54-1.15-1.15l-.07-40.7zM192.4 72.7l2.86-5.02c.48-.78 1.63-.66 2.05-.36.25.12 4.6 3.32 8.6 3.32 2.4 0 4.17-1.5 4.17-3.62 0-2.54-2.12-4.48-6.23-6.1-5.2-2.07-11.73-6.12-11.73-13.37 0-6 4.67-12.03 13.98-12.03 6.3 0 11.12 3.2 12.94 4.53.72.42.6 1.5.36 1.94l-3.08 4.64c-.43.67-1.52 1.2-2.06.8-.55-.3-4.96-3.64-8.65-3.64-2.18 0-3.82 1.45-3.82 3.08 0 2.24 1.82 3.93 6.6 5.87 4.7 1.87 12.2 5.56 12.2 13.78 0 6.23-5.37 12.52-14.26 12.52-7.86 0-12.2-3.27-13.6-4.66-.6-.6-.8-.85-.3-1.7zM227.97 37.27c0-.6.48-1.15 1.15-1.15h25.03c.66 0 1.15.55 1.15 1.15v6.6c0 .6-.5 1.14-1.15 1.14H237.4v8.71l13.78.02c.6 0 1.15.54 1.15 1.14v6.6c0 .6-.54 1.14-1.15 1.14H237.4v14.7c0 .6-.55 1.14-1.15 1.14h-7.13c-.67 0-1.15-.54-1.15-1.14V37.27zM280.63 69.37c6.65 0 12.1-5.44 12.1-12.03 0-6.65-5.45-12.15-12.1-12.15-6.6 0-12.03 5.5-12.03 12.14 0 6.6 5.44 12.03 12.03 12.03zm0-33.85c12.1 0 21.77 9.73 21.77 21.82 0 12.1-9.68 21.7-21.77 21.7-12.1 0-21.7-9.6-21.7-21.7s9.6-21.82 21.7-21.82zM328.15 54.2c2.5 0 4.6-2.3 4.6-4.84s-2.1-4.6-4.6-4.6h-8.94v9.44h8.95zm-18.43-16.93c0-.6.48-1.15 1.14-1.15h18.08c7.26 0 13.18 5.86 13.18 13.06 0 5.56-3.7 10.04-8.95 12.15l8.3 15.36c.4.78 0 1.74-1.04 1.74h-8.04c-.5 0-.86-.3-.98-.54l-8.04-16.02h-4.17v15.4c0 .62-.54 1.16-1.14 1.16h-7.2c-.66 0-1.14-.54-1.14-1.14V37.27zM354.4 36.48c.06-.54.6-.96 1.1-.96h.95c.3 0 .85.24 1.03.6l14.03 26.12h.13l14.03-26.12c.18-.36.72-.6 1.03-.6h.95c.5 0 1.03.42 1.1.96l6.82 40.63c.12.8-.42 1.34-1.14 1.34h-7.14c-.55 0-1.1-.48-1.16-.96l-2.72-18.7h-.12l-10.16 19.6c-.18.37-.72.67-1.02.67H371c-.36 0-.84-.3-1.02-.67l-10.22-19.6h-.12L357 77.5c-.06.48-.55.96-1.15.96h-7.13c-.73 0-1.27-.54-1.15-1.33l6.83-40.62zM42.55 44.8H34.1c-.64 0-1.1-.53-1.1-1.12v-6.44c0-.6.46-1.12 1.1-1.12h26.2c.66 0 1.13.53 1.13 1.12v6.43c0 .6-.47 1.13-1.12 1.13h-8.43v32.52c0 .6-.53 1.12-1.12 1.12h-7.08c-.6 0-1.12-.53-1.12-1.12V44.8zM9.73 28.33l37.16-17.1c.18-.08.4-.08.58 0l31.73 14.6 9.32-5.97L47.48 1c-.2-.1-.4-.1-.6 0L.43 22.36c-.25.1-.42.37-.42.65v71.2c0 .4.33.7.7.7h50.46c.4 0 .7-.32.7-.72V86.3c0-.38-.3-.7-.7-.7H10.02c-.4 0-.72-.3-.72-.7V28.96c0-.28.17-.54.43-.64z"/></g></svg>