<svg xmlns="http://www.w3.org/2000/svg" fill-rule="evenodd" viewBox="0 0 396 103" clip-rule="evenodd"><path fill="#fff" d="M143.03 91.63v10.9c0 .16-.1.26-.24.26h-.55c-.15 0-.25-.1-.25-.26v-4.96h-5.58v4.96c0 .15-.1.25-.25.25h-.54c-.14 0-.24-.1-.24-.26v-10.9c0-.16.1-.26.23-.26h.54c.15 0 .25.1.25.25v4.98h5.6l-.02-4.97c0-.15.1-.25.25-.25h.54c.13 0 .23.1.23.25zM156.66 97.14c0-2.77-2.13-4.96-4.82-4.96-2.72 0-4.86 2.2-4.86 4.96 0 2.73 2.14 4.92 4.86 4.92 2.7 0 4.82-2.2 4.82-4.92zm-10.65 0c0-3.28 2.6-5.9 5.84-5.9 3.2 0 5.8 2.62 5.8 5.9 0 3.25-2.6 5.86-5.8 5.86-3.23 0-5.83-2.6-5.83-5.86zM171.97 91.63v10.9c0 .16-.1.26-.24.26h-.54c-.16 0-.26-.1-.26-.26v-9.4l-4.1 9.47c-.04.14-.13.2-.26.2h-.6c-.12 0-.22-.06-.27-.2l-4.04-9.4v9.34c0 .15-.1.25-.25.25h-.53c-.14 0-.24-.1-.24-.26v-10.9c0-.16.1-.26.24-.26h.8c.13 0 .25.05.3.17l4.33 10.1 4.3-10.1c.05-.12.16-.17.3-.17h.82c.15 0 .25.1.25.25zM181.5 102.07v.47c0 .15-.1.25-.25.25h-5.52c-.15 0-.25-.1-.25-.26v-10.9c0-.16.1-.26.25-.26h5.5c.15 0 .25.1.25.25v.47c0 .15-.1.25-.24.25h-4.73v3.87h4.46c.14 0 .24.1.24.25v.47c0 .15-.1.24-.24.24h-4.45v4.65h4.75c.15 0 .25.1.25.24zM190.16 91.38h.54c.15 0 .24.1.24.25v10.9c0 .16-.1.26-.24.26h-.54c-.14 0-.24-.1-.24-.26v-10.9c0-.16.1-.26.24-.26zM205.76 91.63v10.9c0 .16-.1.26-.24.26h-.54c-.15 0-.25-.1-.25-.26v-9.4l-4.1 9.47c-.04.14-.13.2-.26.2h-.6c-.12 0-.22-.06-.27-.2l-4.05-9.4v9.34c0 .15-.1.25-.25.25h-.54c-.14 0-.24-.1-.24-.26v-10.9c0-.16.1-.26.24-.26h.8c.13 0 .25.05.3.17l4.33 10.1 4.3-10.1c.04-.12.15-.17.28-.17h.83c.16 0 .26.1.26.25zM215.24 94.87c0-1.8-1.22-2.52-2.8-2.52h-2.14v5.05h2.14c1.58 0 2.8-.72 2.8-2.53zm1 0c0 1.97-1.3 3.5-3.74 3.5h-2.2v4.17c0 .15-.1.25-.24.25h-.54c-.15 0-.25-.1-.25-.26v-10.9c0-.16.1-.26.25-.26h2.98c2.43 0 3.73 1.5 3.73 3.5zM219.87 97.4H222c1.6 0 2.8-.72 2.8-2.53 0-1.8-1.2-2.53-2.8-2.53h-2.13v5.05zm5.8 5.4h-.62c-.13 0-.23-.06-.3-.18l-2.86-4.26h-2.03v4.18c0 .15-.1.25-.24.25h-.54c-.16 0-.25-.1-.25-.26v-10.9c0-.16.1-.26.24-.26h2.97c2.43 0 3.73 1.5 3.73 3.5 0 1.72-1 3.1-2.87 3.4l2.9 4.22c.1.17.02.3-.17.3zM238.9 97.14c0-2.77-2.14-4.96-4.83-4.96-2.72 0-4.86 2.2-4.86 4.96 0 2.73 2.15 4.92 4.87 4.92 2.7 0 4.82-2.2 4.82-4.92zm-10.67 0c0-3.28 2.6-5.9 5.84-5.9 3.2 0 5.8 2.62 5.8 5.9 0 3.25-2.6 5.86-5.8 5.86-3.23 0-5.84-2.6-5.84-5.86zM250.13 91.38h.52c.18 0 .26.12.2.28l-4.02 10.93c-.05.12-.17.2-.3.2h-.6c-.13 0-.25-.08-.3-.2l-4.02-10.94c-.05-.16.03-.28.2-.28h.53c.13 0 .23.05.28.2l3.64 10.02 3.62-10.02c.04-.15.14-.2.27-.2zM259.5 102.07v.47c0 .15-.1.25-.25.25h-5.52c-.15 0-.25-.1-.25-.26v-10.9c0-.16.1-.26.25-.26h5.5c.15 0 .25.1.25.25v.47c0 .15-.1.25-.25.25h-4.72v3.87h4.45c.15 0 .25.1.25.25v.47c0 .15-.1.24-.25.24h-4.44v4.65h4.75c.14 0 .24.1.24.24zM273.7 91.63v10.9c0 .16-.1.26-.26.26h-.53c-.14 0-.24-.1-.24-.26v-9.4l-4.1 9.47c-.04.14-.13.2-.26.2h-.6c-.12 0-.22-.06-.27-.2l-4.06-9.4v9.34c0 .15-.1.25-.24.25h-.54c-.15 0-.25-.1-.25-.26v-10.9c0-.16.1-.26.24-.26h.8c.12 0 .24.05.3.17l4.32 10.1 4.3-10.1c.05-.12.16-.17.3-.17h.82c.15 0 .25.1.25.25zM283.22 102.07v.47c0 .15-.1.25-.25.25h-5.52c-.15 0-.25-.1-.25-.26v-10.9c0-.16.1-.26.25-.26h5.5c.15 0 .25.1.25.25v.47c0 .15-.1.25-.24.25h-4.73v3.87h4.45c.14 0 .24.1.24.25v.47c0 .15-.1.24-.24.24h-4.45v4.65h4.74c.15 0 .25.1.25.24zM294.3 91.63v10.9c0 .14-.08.24-.2.26h-.84c-.13 0-.23-.06-.3-.17l-5.86-9.85v9.76c0 .15-.1.25-.25.25h-.53c-.15 0-.25-.1-.25-.26v-10.9c0-.14.08-.24.2-.26h.85c.13 0 .22.05.3.17l5.85 9.84v-9.77c0-.15.1-.25.25-.25h.54c.14 0 .24.1.24.25zM303.72 91.63v.47c0 .15-.1.24-.25.24h-2.62v10.2c0 .15-.1.25-.25.25h-.53c-.15 0-.25-.1-.25-.26v-10.2h-2.62c-.15 0-.24-.1-.24-.24v-.47c0-.15.1-.25.24-.25h6.27c.15 0 .25.1.25.25zM317.95 94.87c0-1.8-1.22-2.52-2.8-2.52h-2.13v5.05h2.13c1.58 0 2.8-.72 2.8-2.53zm1 0c0 1.97-1.3 3.5-3.73 3.5h-2.2v4.17c0 .15-.1.25-.25.25h-.53c-.15 0-.25-.1-.25-.26v-10.9c0-.16.1-.26.24-.26h2.98c2.43 0 3.73 1.5 3.73 3.5zM322.6 97.4h2.12c1.58 0 2.8-.72 2.8-2.53 0-1.8-1.22-2.53-2.8-2.53h-2.13v5.05zm5.77 5.4h-.6c-.13 0-.23-.06-.3-.18l-2.86-4.26h-2v4.18c0 .15-.1.25-.26.25h-.53c-.14 0-.24-.1-.24-.26v-10.9c0-.16.1-.26.25-.26h3c2.42 0 3.72 1.5 3.72 3.5 0 1.72-1 3.1-2.87 3.4l2.9 4.22c.1.17.02.3-.18.3zM341.6 97.14c0-2.77-2.13-4.96-4.82-4.96-2.72 0-4.85 2.2-4.85 4.96 0 2.73 2.13 4.92 4.85 4.92 2.7 0 4.83-2.2 4.83-4.92zm-10.65 0c0-3.28 2.6-5.9 5.83-5.9 3.2 0 5.8 2.62 5.8 5.9 0 3.25-2.6 5.86-5.8 5.86-3.22 0-5.83-2.6-5.83-5.86zM353.14 97.1c0-2.93-1.63-4.75-4.93-4.75h-1.6v9.48h1.6c3.3 0 4.94-1.83 4.94-4.74zm1.04 0c0 3.23-2 5.7-5.97 5.7h-2.38c-.15 0-.24-.1-.24-.26v-10.9c0-.16.1-.26.24-.26h2.4c3.97 0 5.96 2.46 5.96 5.7zM365.1 91.63v6.74c0 3.07-1.7 4.63-4 4.63-2.34 0-4.06-1.56-4.06-4.63v-6.74c0-.15.1-.25.25-.25h.53c.14 0 .24.1.24.25v6.74c0 2.54 1.32 3.7 3.02 3.7 1.66 0 2.98-1.16 2.98-3.7v-6.74c0-.15.1-.25.25-.25h.54c.14 0 .24.1.24.25zM377.54 101.13c.13.1.1.26-.02.34-1.04.88-2.3 1.53-3.8 1.53-3.22 0-5.7-2.6-5.7-5.86 0-3.28 2.48-5.9 5.7-5.9 1.5 0 2.76.66 3.8 1.53.12.1.15.23.02.34l-.34.35c-.13.12-.23.1-.34 0-.88-.73-1.9-1.2-3.13-1.2-2.58 0-4.7 2.08-4.7 4.88s2.12 4.88 4.7 4.88c1.24 0 2.25-.47 3.13-1.2.1-.1.2-.1.34 0l.34.33zM386.68 91.63v.47c0 .15-.1.24-.24.24h-2.63v10.2c0 .15-.08.25-.23.25h-.54c-.15 0-.24-.1-.24-.26v-10.2h-2.64c-.14 0-.24-.1-.24-.24v-.47c0-.15.1-.25.24-.25h6.28c.14 0 .24.1.24.25zM395.96 99.92c0 1.65-1.58 3.08-3.65 3.08-1.56 0-2.76-.73-3.5-1.7-.08-.16-.04-.24.07-.34l.34-.3c.13-.1.24-.07.36.04.6.72 1.48 1.37 2.72 1.37 1.64 0 2.67-1.03 2.67-2.23 0-2.95-5.95-2.1-5.95-5.77 0-1.6 1.35-2.82 3.23-2.82 1.17 0 2.4.6 3.16 1.53.1.12.1.22-.04.35l-.28.24c-.1.12-.23.13-.34.02-.72-.78-1.5-1.23-2.53-1.23-1.23 0-2.24.66-2.24 1.92 0 2.86 6 1.98 6 5.82z"/><path fill="#fdb525" d="M86 53.75c2.47 0 4.6-2.3 4.6-4.83 0-2.54-2.13-4.6-4.6-4.6h-8.96v9.43H86zM67.54 36.82c0-.6.48-1.14 1.15-1.14h18.08c7.25 0 13.18 5.86 13.18 13.06 0 5.56-3.7 10.03-8.95 12.15l8.3 15.35c.42.78 0 1.75-1.04 1.75h-8.04c-.48 0-.84-.3-.96-.55L81.2 61.43h-4.16v15.42c0 .6-.54 1.15-1.15 1.15h-7.2c-.67 0-1.15-.55-1.15-1.15V36.83zM127.47 63.8l-4.6-10h-.06l-4.52 10h9.2zm-24.85 12.93l18.93-40.7c.18-.35.6-.66 1.02-.66h.6c.43 0 .85.3 1.04.67l18.93 40.7c.36.77-.12 1.56-1.03 1.56h-6.7c-1.1 0-1.58-.36-2.13-1.5L131.1 72h-16.45l-2.17 4.85c-.3.73-.97 1.45-2.18 1.45h-6.65c-.9 0-1.4-.8-1.03-1.57zM148.03 36.16c0-.6.55-1.1 1.15-1.1h1.5l24.13 23.23h.07V36.8c0-.6.5-1.14 1.15-1.14h7.26c.6 0 1.15.54 1.15 1.14v40.7c0 .6-.55 1.08-1.15 1.08h-.97c-.17 0-.65-.18-.77-.3l-23.9-24h-.05v22.55c0 .6-.48 1.15-1.14 1.15h-7.2c-.6 0-1.15-.55-1.15-1.15l-.07-40.7zM192.4 72.25l2.86-5c.48-.8 1.63-.68 2.05-.38.25.12 4.6 3.33 8.6 3.33 2.4 0 4.17-1.5 4.17-3.63 0-2.54-2.12-4.47-6.23-6.1-5.2-2.06-11.73-6.1-11.73-13.37 0-5.98 4.67-12.03 13.98-12.03 6.3 0 11.12 3.2 12.94 4.54.72.43.6 1.52.36 1.94l-3.08 4.66c-.43.66-1.52 1.2-2.06.78-.55-.3-4.96-3.63-8.65-3.63-2.18 0-3.82 1.46-3.82 3.1 0 2.23 1.82 3.92 6.6 5.85 4.7 1.88 12.2 5.56 12.2 13.8 0 6.2-5.37 12.5-14.26 12.5-7.86 0-12.2-3.26-13.6-4.65-.6-.6-.8-.85-.3-1.7zM227.97 36.83c0-.6.48-1.15 1.15-1.15h25.03c.66 0 1.15.54 1.15 1.15v6.6c0 .6-.5 1.13-1.15 1.13H237.4v8.7h13.78c.6 0 1.15.55 1.15 1.16v6.6c0 .6-.54 1.14-1.15 1.14H237.4v14.7c0 .6-.55 1.14-1.15 1.14h-7.13c-.67 0-1.15-.55-1.15-1.15V36.83zM280.63 68.93c6.65 0 12.1-5.44 12.1-12.03 0-6.65-5.45-12.15-12.1-12.15-6.6 0-12.03 5.5-12.03 12.15 0 6.6 5.44 12.03 12.03 12.03zm0-33.86c12.1 0 21.77 9.74 21.77 21.83 0 12.1-9.68 21.7-21.77 21.7-12.1 0-21.7-9.6-21.7-21.7s9.6-21.83 21.7-21.83zM328.15 53.75c2.5 0 4.6-2.3 4.6-4.83 0-2.54-2.1-4.6-4.6-4.6h-8.94v9.43h8.95zm-18.43-16.93c0-.6.48-1.14 1.14-1.14h18.08c7.26 0 13.18 5.86 13.18 13.06 0 5.56-3.7 10.03-8.95 12.15l8.3 15.35c.4.78 0 1.75-1.04 1.75h-8.04c-.5 0-.86-.3-.98-.55l-8.04-16.02h-4.17v15.42c0 .6-.54 1.15-1.14 1.15h-7.2c-.66 0-1.14-.55-1.14-1.15V36.83zM354.4 36.04c.06-.55.6-.97 1.1-.97h.95c.3 0 .85.24 1.03.6L371.5 61.8h.13l14.03-26.12c.18-.37.72-.6 1.03-.6h.95c.5 0 1.03.4 1.1.96l6.82 40.63c.12.78-.42 1.33-1.14 1.33h-7.14c-.55 0-1.1-.5-1.16-.97l-2.72-18.68h-.12l-10.16 19.6c-.18.35-.72.65-1.02.65H371c-.36 0-.84-.3-1.02-.66l-10.22-19.6h-.12L357 77.05c-.06.47-.55.96-1.15.96h-7.13c-.73 0-1.27-.55-1.15-1.33l6.83-40.63zM42.55 44.35H34.1c-.64 0-1.1-.53-1.1-1.12V36.8c0-.6.46-1.12 1.1-1.12h26.2c.66 0 1.13.53 1.13 1.12v6.43c0 .6-.47 1.12-1.12 1.12h-8.43v32.53c0 .6-.53 1.12-1.12 1.12h-7.08c-.6 0-1.12-.53-1.12-1.12V44.35zM9.73 27.88l37.16-17.1c.18-.08.4-.08.58 0L79.2 25.4l9.32-5.97L47.48.56c-.2-.1-.4-.1-.6 0L.43 21.9c-.25.12-.42.38-.42.66v71.18c0 .4.33.7.7.7h50.46c.4 0 .7-.3.7-.7v-7.87c0-.4-.3-.72-.7-.72H10.02c-.4 0-.72-.3-.72-.7V28.5c0-.28.17-.54.43-.64z"/></svg>