<svg xmlns="http://www.w3.org/2000/svg" width="65" height="75" viewBox="0 0 65 75" class="icon-inline icon-inline-teal"><path d="M47.1 28.8H34.3c-.5 0-.9.4-.9 1v32.9c0 .5.4.9 1 .9h12.8c.5 0 .9-.4.9-.9v-33c0-.5-.5-.9-1-.9zm-.9 32.9H35.3V30.6h11v31.1zM30.7 28.8H17.9c-.5 0-1 .4-1 1v32.9c0 .5.4.9 1 .9h12.8c.5 0 1-.4 1-.9v-33c-.1-.5-.5-.9-1-.9zm-.9 32.9h-11V30.6h11v31.1zm.7-49.3c-7 .9-12.6 6.4-13.4 13.4 0 .3.1.5.2.7.1.2.4.3.7.3h12.6c.5 0 .9-.4.9-1V13.2c0-.3-.1-.5-.3-.7-.1-.1-.4-.2-.7-.1zM29.8 25H19.1c1.1-5.4 5.3-9.6 10.7-10.7V25zm4.7-12.6c-.3 0-.5.1-.7.2-.2.1-.3.4-.3.7v12.6c0 .5.4 1 1 1h12.6c.3 0 .5-.1.7-.3.1-.1.2-.4.2-.7-1-7.2-6.5-12.7-13.5-13.5zm.8 12.6V14.3c5.4 1.1 9.6 5.3 10.7 10.7H35.3z"></path><path d="M54.2 26c0-12-9.7-21.7-21.7-21.7S10.8 14 10.8 26v42c0 .9.7 1.6 1.6 1.6h40.2c.9 0 1.6-.7 1.6-1.6V26zM51 66.5H14V26c0-10.2 8.3-18.5 18.5-18.5S51 15.8 51 26v40.5z"></path></svg>