<?xml version="1.0" encoding="utf-8"?>
<!-- Generator: Adobe Illustrator 16.0.0, SVG Export Plug-In . SVG Version: 6.00 Build 0)  -->
<!DOCTYPE svg PUBLIC "-//W3C//DTD SVG 1.1//EN" "http://www.w3.org/Graphics/SVG/1.1/DTD/svg11.dtd">
<svg version="1.1" id="Layer_1" focusable="false" xmlns="http://www.w3.org/2000/svg" xmlns:xlink="http://www.w3.org/1999/xlink"
	 x="0px" y="0px" width="1280px" height="720px" viewBox="0 0 1280 720" enable-background="new 0 0 1280 720" xml:space="preserve"
	>
<path fill="#4C4C4C" d="M476.172,305.859L368.734,140.766c66.938-83.25,167.344-129.094,270-129.516
	c59.484-0.422,120.234,14.766,175.5,46.688c61.031,35.438,107.438,86.344,136.969,144.844L662.5,187.594
	C580.797,182.813,503.031,228.797,476.172,305.859z M522.438,360c0,64.969,52.594,117.563,117.563,117.563
	S757.563,424.969,757.563,360S704.969,242.438,640,242.438S522.438,294.891,522.438,360z M965.266,234.563l-196.453,10.125
	c53.297,62.297,54.141,152.156,9.281,221.063L620.453,708.188c65.391,3.516,132.75-10.828,193.781-46.266
	C965.266,574.734,1026.438,391.922,965.266,234.563L965.266,234.563z M479.266,426.938L348.063,168.891
	C312.203,223.734,291.25,289.547,291.25,360c0,174.375,127.688,318.797,294.609,344.391l89.578-175.5
	C594.438,544.078,516.25,499.641,479.266,426.938L479.266,426.938z"/>
</svg>
