<?xml version="1.0" encoding="utf-8"?>
<!-- Generator: Adobe Illustrator 16.0.0, SVG Export Plug-In . SVG Version: 6.00 Build 0)  -->
<!DOCTYPE svg PUBLIC "-//W3C//DTD SVG 1.1//EN" "http://www.w3.org/Graphics/SVG/1.1/DTD/svg11.dtd">
<svg version="1.1" id="Layer_1" focusable="false" xmlns="http://www.w3.org/2000/svg" xmlns:xlink="http://www.w3.org/1999/xlink"
	 x="0px" y="0px" width="1280px" height="720px" viewBox="0 0 1280 720" enable-background="new 0 0 1280 720" xml:space="preserve"
	>
<path fill="#4C4C4C" d="M732.672,45.984c-239.344,0-355.219,314.719-207.422,499.359c51.328,63.844,124.594,106.313,207.422,106.313
	c51.047,0,98.859-15.609,139.781-42.75C810.859,664.031,729.156,697.5,640,697.5c-5.484,0-11.25,0-16.734-0.422
	C438.344,688.5,291.25,535.922,291.25,348.75C291.25,156.094,447.344,0,640,0h1.125c88.734,0.422,169.734,33.891,231.188,88.734
	C831.531,61.453,783.578,45.984,732.672,45.984z M875.828,605.25c-57.516,34.734-127.547,33.188-185.625-8.156
	c79.031-28.828,137.391-128.813,137.391-248.344c0-119.109-57.938-219.094-136.969-248.344
	c58.781-41.063,128.25-42.609,186.891-7.031C1026.438,232.172,1025.875,467.016,875.828,605.25z"/>
</svg>
