<?xml version="1.0" encoding="utf-8"?>
<!-- Generator: Adobe Illustrator 16.0.0, SVG Export Plug-In . SVG Version: 6.00 Build 0)  -->
<!DOCTYPE svg PUBLIC "-//W3C//DTD SVG 1.1//EN" "http://www.w3.org/Graphics/SVG/1.1/DTD/svg11.dtd">
<svg version="1.1" id="Layer_1" focusable="false" xmlns="http://www.w3.org/2000/svg" xmlns:xlink="http://www.w3.org/1999/xlink"
	 x="0px" y="0px" width="1280px" height="720px" viewBox="0 0 1280 720" enable-background="new 0 0 1280 720" xml:space="preserve"
	>
<path fill="#4C4C4C" d="M463.698,173.658C463.924,173.672,463.811,173.672,463.698,173.658z M957.883,237.431
	c-14.92-35.859-45.112-74.531-68.822-86.808c19.294,37.814,30.474,75.769,34.734,104.063c0,0,0,0.197,0.07,0.577
	c-38.784-96.68-104.555-135.661-158.273-220.542c-2.714-4.289-5.428-8.592-8.071-13.12c-1.406-2.32-2.616-4.697-3.783-7.102
	c-2.219-4.298-3.937-8.837-5.118-13.528c0.025-0.464-0.313-0.87-0.773-0.928c-0.213-0.056-0.436-0.056-0.647,0l-0.169,0.099
	l-0.253,0.141l0.141-0.197c-76.261,44.676-107.888,122.878-116.016,172.659c-23.562,1.339-46.641,7.227-67.964,17.339
	c-4.016,1.993-5.889,6.689-4.346,10.898c1.557,4.494,6.459,6.879,10.955,5.33l0.731-0.295c18.607-8.789,38.688-14.034,59.217-15.469
	l1.997-0.141c2.813-0.169,5.625-0.281,8.438-0.31c16.671-0.135,33.273,2.148,49.289,6.778c0.942,0.281,1.856,0.591,2.813,0.886
	c2.658,0.802,5.287,1.688,7.903,2.63c1.912,0.703,3.811,1.406,5.695,2.222c1.532,0.619,3.065,1.238,4.57,1.898
	c2.362,1.06,4.706,2.161,7.031,3.305c1.055,0.521,2.109,1.041,3.164,1.589c2.25,1.181,4.472,2.414,6.665,3.698
	c1.416,0.816,2.822,1.66,4.219,2.531c24.849,15.374,45.468,36.704,59.991,62.058c-18.281-12.867-51.117-25.58-82.716-20.082
	c123.385,61.678,90.253,274.079-80.705,266.063c-15.225-0.623-30.27-3.523-44.634-8.606c-3.403-1.28-6.75-2.658-10.069-4.12
	c-1.94-0.887-3.881-1.786-5.793-2.813c-41.963-21.572-76.557-62.466-80.874-112.148c0,0,15.82-58.992,113.372-58.992
	c10.547,0,40.683-29.419,41.245-37.969c-0.126-2.813-59.821-26.536-83.095-49.472c-12.445-12.249-18.352-18.155-23.583-22.584
	c-2.828-2.402-5.791-4.642-8.874-6.708c-7.822-27.361-8.157-56.32-0.97-83.854c-35.241,16.045-62.648,41.414-82.562,63.802h-0.168
	c-13.599-17.227-12.656-74.039-11.855-85.894c-0.168-0.745-10.152,5.175-11.461,6.061c-11.996,8.573-23.215,18.188-33.524,28.729
	c-11.722,11.9-22.432,24.756-32.021,38.433l0,0l0,0c-22.059,31.258-37.703,66.58-46.026,103.922
	c-0.084,0.379-3.277,14.358-5.625,31.613c-0.394,2.69-0.76,5.381-1.097,8.071c-0.801,5.189-1.406,10.843-2.025,19.688
	c0,0.338,0,0.675-0.07,1.013c-0.253,3.811-0.478,7.607-0.689,11.419c0,0.576,0,1.153,0,1.743
	c0,189.422,153.577,342.971,343.012,342.971c169.65,0,310.528-123.159,338.104-284.935c0.577-4.388,1.041-8.803,1.562-13.232
	c6.82-58.823-0.76-120.643-22.247-172.336V237.431z"/>
</svg>
