<?xml version="1.0" standalone="no"?>
<!DOCTYPE svg PUBLIC "-//W3C//DTD SVG 1.1//EN" "http://www.w3.org/Graphics/SVG/1.1/DTD/svg11.dtd" >
<svg>
<metadata>
Created by FontForge 20120731 at Mon Sep 16 16:22:24 2019
 By www-data
\(c\) 2016 Connary Fagen
</metadata>
<defs>
<font id="GreycliffCF-Light" horiz-adv-x="570" >
  <font-face 
    font-family="Greycliff CF Light"
    font-weight="300"
    font-stretch="normal"
    units-per-em="1000"
    panose-1="0 0 4 0 0 0 0 0 0 0"
    ascent="800"
    descent="-200"
    x-height="490"
    cap-height="700"
    bbox="-175 -211.834 1064 938"
    underline-thickness="50"
    underline-position="-50"
    stemh="53"
    stemv="60"
    unicode-range="U+0020-FB02"
  />
<missing-glyph horiz-adv-x="495" 
d="M406 800v-990h-314v990h314zM330 734h-164v-33h65v-37h-66v-32h165v32h-66v37h66v33zM264 606h-99v-103h165v34h-66v69zM231 572v-35h-33v35h33zM330 476h-165v-32h66v-37h-66v-33h99v70h66v32zM330 417h-33v-65h-132v-34h165v99zM330 296h-99v-55h33v22h33v-46h-99v79
h-33v-112h165v112zM330 125h-165v-112h165v112zM297 92v-46h-99v46h99zM330 -10h-165v-32h70l-70 -47v-33h165v33h-101l69 47h32v32z" />
    <glyph glyph-name="fi" unicode="fi" horiz-adv-x="481" 
d="M296 720c7 -4 10 -10 10 -18v-24c0 -12 -7 -16 -18 -10c-17 8 -32 16 -55 16c-54 0 -69 -26 -69 -74v-120h104c9 0 15 -6 15 -15v-22c0 -9 -6 -15 -15 -15h-104v-423c0 -9 -6 -15 -15 -15h-30c-9 0 -15 6 -15 15v423h-58c-9 0 -15 6 -15 15v22c0 9 6 15 15 15h58v121
c0 80 36 125 130 125c24 0 47 -7 62 -16zM401 613c-23 0 -41 18 -41 42c0 23 18 41 41 41c24 0 42 -18 42 -41c0 -24 -18 -42 -42 -42zM417 490c9 0 15 -6 15 -15v-460c0 -9 -6 -15 -15 -15h-30c-9 0 -15 6 -15 15v460c0 9 6 15 15 15h30z" />
    <glyph glyph-name="fl" unicode="fl" horiz-adv-x="493" 
d="M296 720c7 -4 10 -10 10 -18v-24c0 -12 -7 -16 -18 -10c-17 8 -32 16 -55 16c-54 0 -69 -26 -69 -74v-120h104c9 0 15 -6 15 -15v-22c0 -9 -6 -15 -15 -15h-104v-423c0 -9 -6 -15 -15 -15h-30c-9 0 -15 6 -15 15v423h-58c-9 0 -15 6 -15 15v22c0 9 6 15 15 15h58v121
c0 80 36 125 130 125c24 0 47 -7 62 -16zM427 730c9 0 15 -6 15 -15v-700c0 -9 -6 -15 -15 -15h-30c-9 0 -15 6 -15 15v700c0 9 6 15 15 15h30z" />
    <glyph glyph-name=".notdef" horiz-adv-x="495" 
d="M406 800v-990h-314v990h314zM330 734h-164v-33h65v-37h-66v-32h165v32h-66v37h66v33zM264 606h-99v-103h165v34h-66v69zM231 572v-35h-33v35h33zM330 476h-165v-32h66v-37h-66v-33h99v70h66v32zM330 417h-33v-65h-132v-34h165v99zM330 296h-99v-55h33v22h33v-46h-99v79
h-33v-112h165v112zM330 125h-165v-112h165v112zM297 92v-46h-99v46h99zM330 -10h-165v-32h70l-70 -47v-33h165v33h-101l69 47h32v32z" />
    <glyph glyph-name="A" unicode="A" horiz-adv-x="623" 
d="M595 17c4 -10 -1 -17 -12 -17h-32c-8 0 -14 3 -17 12l-58 162h-328l-59 -162c-3 -9 -9 -12 -17 -12h-32c-11 0 -16 7 -12 17l247 671c3 8 10 12 18 12h37c8 0 15 -4 18 -12zM168 230h287l-143 397z" />
    <glyph glyph-name="Aacute" unicode="&#xc1;" horiz-adv-x="623" 
d="M310 753c-11 0 -17 6 -12 17l60 126c4 9 9 12 17 12h18c11 0 17 -6 12 -17l-60 -126c-4 -9 -9 -12 -17 -12h-18zM595 17c4 -10 -1 -17 -12 -17h-32c-8 0 -14 3 -17 12l-58 162h-328l-59 -162c-3 -9 -9 -12 -17 -12h-32c-11 0 -16 7 -12 17l247 671c3 8 10 12 18 12h37
c8 0 15 -4 18 -12zM168 230h287l-143 397z" />
    <glyph glyph-name="Abreve" unicode="&#x102;" horiz-adv-x="623" 
d="M317 779c-75 0 -125 50 -132 115c-1 10 4 15 14 15h15c9 0 14 -5 16 -14c8 -41 39 -71 87 -71s80 30 88 71c2 9 7 14 16 14h15c10 0 15 -5 14 -15c-7 -65 -57 -115 -133 -115zM595 17c4 -10 -1 -17 -12 -17h-32c-8 0 -14 3 -17 12l-58 162h-328l-59 -162
c-3 -9 -9 -12 -17 -12h-32c-11 0 -16 7 -12 17l247 671c3 8 10 12 18 12h37c8 0 15 -4 18 -12zM168 230h287l-143 397z" />
    <glyph glyph-name="uni01CD" unicode="&#x1cd;" horiz-adv-x="623" 
d="M280 792l-85 98c-8 10 -5 18 8 18h21c7 0 13 -2 18 -8l75 -86l75 86c5 6 11 8 18 8h21c13 0 16 -8 8 -18l-85 -98c-5 -6 -11 -8 -18 -8h-38c-7 0 -13 2 -18 8zM595 17c4 -10 -1 -17 -12 -17h-32c-8 0 -14 3 -17 12l-58 162h-328l-59 -162c-3 -9 -9 -12 -17 -12h-32
c-11 0 -16 7 -12 17l247 671c3 8 10 12 18 12h37c8 0 15 -4 18 -12zM168 230h287l-143 397z" />
    <glyph glyph-name="Acircumflex" unicode="&#xc2;" horiz-adv-x="623" 
d="M203 784c-13 0 -16 8 -8 18l85 98c5 6 11 8 18 8h38c7 0 13 -2 18 -8l85 -98c8 -10 5 -18 -8 -18h-21c-7 0 -13 2 -18 8l-75 86l-75 -86c-5 -6 -11 -8 -18 -8h-21zM595 17c4 -10 -1 -17 -12 -17h-32c-8 0 -14 3 -17 12l-58 162h-328l-59 -162c-3 -9 -9 -12 -17 -12h-32
c-11 0 -16 7 -12 17l247 671c3 8 10 12 18 12h37c8 0 15 -4 18 -12zM168 230h287l-143 397z" />
    <glyph glyph-name="Adieresis" unicode="&#xc4;" horiz-adv-x="623" 
d="M230 841c-21 0 -38 17 -38 37s17 37 38 37s38 -17 38 -37s-17 -37 -38 -37zM404 841c-20 0 -38 17 -38 37s18 37 38 37c21 0 38 -17 38 -37s-17 -37 -38 -37zM595 17c4 -10 -1 -17 -12 -17h-32c-8 0 -14 3 -17 12l-58 162h-328l-59 -162c-3 -9 -9 -12 -17 -12h-32
c-11 0 -16 7 -12 17l247 671c3 8 10 12 18 12h37c8 0 15 -4 18 -12zM168 230h287l-143 397z" />
    <glyph glyph-name="Agrave" unicode="&#xc0;" horiz-adv-x="623" 
d="M282 765l-60 126c-5 11 1 17 12 17h18c8 0 13 -3 17 -12l60 -126c5 -11 -1 -17 -12 -17h-18c-8 0 -13 3 -17 12zM595 17c4 -10 -1 -17 -12 -17h-32c-8 0 -14 3 -17 12l-58 162h-328l-59 -162c-3 -9 -9 -12 -17 -12h-32c-11 0 -16 7 -12 17l247 671c3 8 10 12 18 12h37
c8 0 15 -4 18 -12zM168 230h287l-143 397z" />
    <glyph glyph-name="Amacron" unicode="&#x100;" horiz-adv-x="623" 
d="M185 857c-9 0 -15 6 -15 15v21c0 9 6 15 15 15h265c9 0 15 -6 15 -15v-21c0 -9 -6 -15 -15 -15h-265zM595 17c4 -10 -1 -17 -12 -17h-32c-8 0 -14 3 -17 12l-58 162h-328l-59 -162c-3 -9 -9 -12 -17 -12h-32c-11 0 -16 7 -12 17l247 671c3 8 10 12 18 12h37
c8 0 15 -4 18 -12zM168 230h287l-143 397z" />
    <glyph glyph-name="Aogonek" unicode="&#x104;" horiz-adv-x="623" 
d="M595 17c4 -10 -1 -17 -12 -17c-72 0 -120 -52 -120 -95c0 -50 36 -69 91 -57v-46c-43 -20 -147 -10 -147 90c0 74 62 120 120 139l-51 143h-328l-59 -162c-3 -9 -9 -12 -17 -12h-32c-11 0 -16 7 -12 17l247 671c3 8 10 12 18 12h37c8 0 15 -4 18 -12zM168 230h287
l-143 397z" />
    <glyph glyph-name="Aring" unicode="&#xc5;" horiz-adv-x="623" 
d="M318 777c-43 0 -76 33 -76 73s33 74 76 74c40 0 73 -34 73 -74s-33 -73 -73 -73zM318 878c-17 0 -29 -12 -29 -28c0 -15 12 -28 29 -28c15 0 28 13 28 28c0 16 -13 28 -28 28zM595 17c4 -10 -1 -17 -12 -17h-32c-8 0 -14 3 -17 12l-58 162h-328l-59 -162
c-3 -9 -9 -12 -17 -12h-32c-11 0 -16 7 -12 17l247 671c3 8 10 12 18 12h37c8 0 15 -4 18 -12zM168 230h287l-143 397z" />
    <glyph glyph-name="Atilde" unicode="&#xc3;" horiz-adv-x="623" 
d="M184 846c-6 0 -10 4 -9 12c5 44 38 67 79 67c66 0 83 -65 134 -65c25 0 36 18 41 32c2 6 5 9 11 9h13c6 0 10 -4 10 -10c-6 -46 -41 -69 -75 -69c-70 0 -87 65 -138 65c-27 0 -38 -18 -42 -32c-2 -6 -5 -9 -11 -9h-13zM595 17c4 -10 -1 -17 -12 -17h-32
c-8 0 -14 3 -17 12l-58 162h-328l-59 -162c-3 -9 -9 -12 -17 -12h-32c-11 0 -16 7 -12 17l247 671c3 8 10 12 18 12h37c8 0 15 -4 18 -12zM168 230h287l-143 397z" />
    <glyph glyph-name="AE" unicode="&#xc6;" horiz-adv-x="830" 
d="M765 59c9 0 15 -6 15 -15v-29c0 -9 -6 -15 -15 -15h-339c-9 0 -15 6 -15 15v164h-234l-86 -167c-4 -9 -9 -12 -17 -12h-34c-11 0 -17 7 -12 17l347 671c4 8 10 12 18 12h371c9 0 15 -6 15 -15v-29c0 -9 -6 -15 -15 -15h-290v-238h273c9 0 15 -6 15 -15v-29
c0 -9 -6 -15 -15 -15h-273v-285h291zM206 236h205v400z" />
    <glyph glyph-name="B" unicode="B" horiz-adv-x="558" 
d="M379 380c97 -21 148 -92 148 -175c0 -131 -82 -205 -247 -205h-204c-9 0 -15 6 -15 15v670c0 9 6 15 15 15h207c151 0 202 -87 202 -164c0 -71 -32 -131 -106 -156zM422 534c0 73 -55 107 -145 107h-153v-237h153c91 0 145 47 145 130zM276 59c122 0 186 42 186 145
c0 84 -50 144 -186 144h-152v-289h152z" />
    <glyph glyph-name="C" unicode="C" horiz-adv-x="668" 
d="M605 122l21 -20c8 -7 6 -16 -1 -21c-64 -54 -142 -94 -234 -94c-197 0 -350 160 -350 360c0 201 153 361 350 361c92 0 170 -40 234 -93c7 -6 9 -14 1 -21l-21 -21c-8 -7 -14 -6 -21 0c-54 45 -116 74 -192 74c-158 0 -288 -128 -288 -300c0 -171 130 -299 288 -299
c76 0 138 29 192 74c7 6 13 7 21 0z" />
    <glyph glyph-name="Cacute" unicode="&#x106;" horiz-adv-x="668" 
d="M460 908c11 0 17 -6 12 -17l-60 -126c-4 -9 -9 -12 -17 -12h-18c-11 0 -17 6 -12 17l60 126c4 9 9 12 17 12h18zM605 122l21 -20c8 -7 6 -16 -1 -21c-64 -54 -142 -94 -234 -94c-197 0 -350 160 -350 360c0 201 153 361 350 361c92 0 170 -40 234 -93c7 -6 9 -14 1 -21
l-21 -21c-8 -7 -14 -6 -21 0c-54 45 -116 74 -192 74c-158 0 -288 -128 -288 -300c0 -171 130 -299 288 -299c76 0 138 29 192 74c7 6 13 7 21 0z" />
    <glyph glyph-name="Ccaron" unicode="&#x10c;" horiz-adv-x="668" 
d="M403 784h-38c-7 0 -13 2 -18 8l-85 98c-8 10 -5 18 8 18h21c7 0 13 -2 18 -8l75 -86l75 86c5 6 11 8 18 8h21c13 0 16 -8 8 -18l-85 -98c-5 -6 -11 -8 -18 -8zM605 122l21 -20c8 -7 6 -16 -1 -21c-64 -54 -142 -94 -234 -94c-197 0 -350 160 -350 360
c0 201 153 361 350 361c92 0 170 -40 234 -93c7 -6 9 -14 1 -21l-21 -21c-8 -7 -14 -6 -21 0c-54 45 -116 74 -192 74c-158 0 -288 -128 -288 -300c0 -171 130 -299 288 -299c76 0 138 29 192 74c7 6 13 7 21 0z" />
    <glyph glyph-name="Ccedilla" unicode="&#xc7;" horiz-adv-x="668" 
d="M626 102c8 -7 6 -16 -1 -21c-60 -50 -132 -89 -216 -93l-26 -28c43 -3 79 -32 79 -76c0 -80 -78 -103 -145 -94c-6 1 -9 5 -9 11v24c0 6 4 10 11 10c55 -6 91 10 91 44c0 32 -42 49 -90 32c-7 -3 -12 0 -12 7v20c0 5 2 8 5 12l36 40c-177 21 -308 172 -308 357
c0 201 153 361 350 361c92 0 170 -40 234 -93c7 -6 9 -14 1 -21l-21 -21c-8 -7 -14 -6 -21 0c-54 45 -116 74 -192 74c-158 0 -288 -128 -288 -300c0 -171 130 -299 288 -299c76 0 138 29 192 74c7 6 13 7 21 0z" />
    <glyph glyph-name="Cdotaccent" unicode="&#x10a;" horiz-adv-x="668" 
d="M384 841c-21 0 -38 17 -38 37s17 37 38 37s38 -17 38 -37s-17 -37 -38 -37zM605 122l21 -20c8 -7 6 -16 -1 -21c-64 -54 -142 -94 -234 -94c-197 0 -350 160 -350 360c0 201 153 361 350 361c92 0 170 -40 234 -93c7 -6 9 -14 1 -21l-21 -21c-8 -7 -14 -6 -21 0
c-54 45 -116 74 -192 74c-158 0 -288 -128 -288 -300c0 -171 130 -299 288 -299c76 0 138 29 192 74c7 6 13 7 21 0z" />
    <glyph glyph-name="D" unicode="D" horiz-adv-x="625" 
d="M223 700c244 0 366 -151 366 -350s-122 -350 -366 -350h-147c-9 0 -15 6 -15 15v670c0 9 6 15 15 15h147zM223 59c202 0 302 112 302 291s-100 291 -302 291h-99v-582h99z" />
    <glyph glyph-name="Eth" unicode="&#xd0;" horiz-adv-x="633" 
d="M231 700c244 0 366 -151 366 -350s-122 -350 -366 -350h-147c-9 0 -15 6 -15 15v311h-39c-9 0 -15 6 -15 15v21c0 9 6 15 15 15h39v308c0 9 6 15 15 15h147zM231 59c202 0 302 112 302 291s-100 291 -302 291h-99v-264h163c9 0 15 -6 15 -15v-21c0 -9 -6 -15 -15 -15
h-163v-267h99z" />
    <glyph glyph-name="Dcaron" unicode="&#x10e;" horiz-adv-x="625" 
d="M266 792l-85 98c-8 10 -5 18 8 18h21c7 0 13 -2 18 -8l75 -86l75 86c5 6 11 8 18 8h21c13 0 16 -8 8 -18l-85 -98c-5 -6 -11 -8 -18 -8h-38c-7 0 -13 2 -18 8zM223 700c244 0 366 -151 366 -350s-122 -350 -366 -350h-147c-9 0 -15 6 -15 15v670c0 9 6 15 15 15h147z
M223 59c202 0 302 112 302 291s-100 291 -302 291h-99v-582h99z" />
    <glyph glyph-name="Dcroat" unicode="&#x110;" horiz-adv-x="633" 
d="M231 700c244 0 366 -151 366 -350s-122 -350 -366 -350h-147c-9 0 -15 6 -15 15v311h-39c-9 0 -15 6 -15 15v21c0 9 6 15 15 15h39v308c0 9 6 15 15 15h147zM231 59c202 0 302 112 302 291s-100 291 -302 291h-99v-264h163c9 0 15 -6 15 -15v-21c0 -9 -6 -15 -15 -15
h-163v-267h99z" />
    <glyph glyph-name="E" unicode="E" horiz-adv-x="480" 
d="M415 59c9 0 15 -6 15 -15v-29c0 -9 -6 -15 -15 -15h-339c-9 0 -15 6 -15 15v670c0 9 6 15 15 15h338c9 0 15 -6 15 -15v-29c0 -9 -6 -15 -15 -15h-290v-238h273c9 0 15 -6 15 -15v-29c0 -9 -6 -15 -15 -15h-273v-285h291z" />
    <glyph glyph-name="Eacute" unicode="&#xc9;" horiz-adv-x="480" 
d="M322 908c11 0 17 -6 12 -17l-60 -126c-4 -9 -9 -12 -17 -12h-18c-11 0 -17 6 -12 17l60 126c4 9 9 12 17 12h18zM415 59c9 0 15 -6 15 -15v-29c0 -9 -6 -15 -15 -15h-339c-9 0 -15 6 -15 15v670c0 9 6 15 15 15h338c9 0 15 -6 15 -15v-29c0 -9 -6 -15 -15 -15h-290v-238
h273c9 0 15 -6 15 -15v-29c0 -9 -6 -15 -15 -15h-273v-285h291z" />
    <glyph glyph-name="Ecaron" unicode="&#x11a;" horiz-adv-x="480" 
d="M265 784h-38c-7 0 -13 2 -18 8l-85 98c-8 10 -5 18 8 18h21c7 0 13 -2 18 -8l75 -86l75 86c5 6 11 8 18 8h21c13 0 16 -8 8 -18l-85 -98c-5 -6 -11 -8 -18 -8zM415 59c9 0 15 -6 15 -15v-29c0 -9 -6 -15 -15 -15h-339c-9 0 -15 6 -15 15v670c0 9 6 15 15 15h338
c9 0 15 -6 15 -15v-29c0 -9 -6 -15 -15 -15h-290v-238h273c9 0 15 -6 15 -15v-29c0 -9 -6 -15 -15 -15h-273v-285h291z" />
    <glyph glyph-name="Ecircumflex" unicode="&#xca;" horiz-adv-x="480" 
d="M265 908c7 0 13 -2 18 -8l85 -98c8 -10 5 -18 -8 -18h-21c-7 0 -13 2 -18 8l-75 86l-75 -86c-5 -6 -11 -8 -18 -8h-21c-13 0 -16 8 -8 18l85 98c5 6 11 8 18 8h38zM415 59c9 0 15 -6 15 -15v-29c0 -9 -6 -15 -15 -15h-339c-9 0 -15 6 -15 15v670c0 9 6 15 15 15h338
c9 0 15 -6 15 -15v-29c0 -9 -6 -15 -15 -15h-290v-238h273c9 0 15 -6 15 -15v-29c0 -9 -6 -15 -15 -15h-273v-285h291z" />
    <glyph glyph-name="Edieresis" unicode="&#xcb;" horiz-adv-x="480" 
d="M159 841c-21 0 -38 17 -38 37s17 37 38 37s38 -17 38 -37s-17 -37 -38 -37zM333 841c-20 0 -38 17 -38 37s18 37 38 37c21 0 38 -17 38 -37s-17 -37 -38 -37zM415 59c9 0 15 -6 15 -15v-29c0 -9 -6 -15 -15 -15h-339c-9 0 -15 6 -15 15v670c0 9 6 15 15 15h338
c9 0 15 -6 15 -15v-29c0 -9 -6 -15 -15 -15h-290v-238h273c9 0 15 -6 15 -15v-29c0 -9 -6 -15 -15 -15h-273v-285h291z" />
    <glyph glyph-name="Edotaccent" unicode="&#x116;" horiz-adv-x="480" 
d="M246 841c-21 0 -38 17 -38 37s17 37 38 37s38 -17 38 -37s-17 -37 -38 -37zM415 59c9 0 15 -6 15 -15v-29c0 -9 -6 -15 -15 -15h-339c-9 0 -15 6 -15 15v670c0 9 6 15 15 15h338c9 0 15 -6 15 -15v-29c0 -9 -6 -15 -15 -15h-290v-238h273c9 0 15 -6 15 -15v-29
c0 -9 -6 -15 -15 -15h-273v-285h291z" />
    <glyph glyph-name="Egrave" unicode="&#xc8;" horiz-adv-x="480" 
d="M163 908h18c8 0 13 -3 17 -12l60 -126c5 -11 -1 -17 -12 -17h-18c-8 0 -13 3 -17 12l-60 126c-5 11 1 17 12 17zM415 59c9 0 15 -6 15 -15v-29c0 -9 -6 -15 -15 -15h-339c-9 0 -15 6 -15 15v670c0 9 6 15 15 15h338c9 0 15 -6 15 -15v-29c0 -9 -6 -15 -15 -15h-290v-238
h273c9 0 15 -6 15 -15v-29c0 -9 -6 -15 -15 -15h-273v-285h291z" />
    <glyph glyph-name="Emacron" unicode="&#x112;" horiz-adv-x="480" 
d="M379 908c9 0 15 -6 15 -15v-21c0 -9 -6 -15 -15 -15h-265c-9 0 -15 6 -15 15v21c0 9 6 15 15 15h265zM415 59c9 0 15 -6 15 -15v-29c0 -9 -6 -15 -15 -15h-339c-9 0 -15 6 -15 15v670c0 9 6 15 15 15h338c9 0 15 -6 15 -15v-29c0 -9 -6 -15 -15 -15h-290v-238h273
c9 0 15 -6 15 -15v-29c0 -9 -6 -15 -15 -15h-273v-285h291z" />
    <glyph glyph-name="Eogonek" unicode="&#x118;" horiz-adv-x="480" 
d="M415 59c9 0 15 -6 15 -15v-29c0 -9 -6 -15 -15 -15h-40c-42 -17 -68 -54 -68 -85c0 -50 36 -69 91 -57v-46c-43 -20 -147 -10 -147 90c0 42 19 74 47 98h-222c-9 0 -15 6 -15 15v670c0 9 6 15 15 15h338c9 0 15 -6 15 -15v-29c0 -9 -6 -15 -15 -15h-290v-238h273
c9 0 15 -6 15 -15v-29c0 -9 -6 -15 -15 -15h-273v-285h291z" />
    <glyph glyph-name="F" unicode="F" horiz-adv-x="470" 
d="M405 700c9 0 15 -6 15 -15v-29c0 -9 -6 -15 -15 -15h-281v-238h268c9 0 15 -6 15 -15v-29c0 -9 -6 -15 -15 -15h-268v-329c0 -9 -6 -15 -15 -15h-33c-9 0 -15 6 -15 15v670c0 9 6 15 15 15h329z" />
    <glyph glyph-name="G" unicode="G" horiz-adv-x="750" 
d="M699 353c9 0 15 -6 15 -15v-24c0 -188 -123 -327 -322 -327c-202 0 -351 161 -351 363c0 198 153 358 350 358c92 0 170 -40 234 -93c7 -6 9 -14 1 -21l-21 -21c-8 -7 -14 -6 -21 0c-54 45 -116 74 -192 74c-158 0 -288 -128 -288 -297c0 -173 127 -302 288 -302
c149 0 259 98 264 245h-252c-9 0 -15 6 -15 15v30c0 9 6 15 15 15h295z" />
    <glyph glyph-name="Gbreve" unicode="&#x11e;" horiz-adv-x="750" 
d="M388 779c-75 0 -125 50 -132 115c-1 10 4 15 14 15h15c9 0 14 -5 16 -14c8 -41 39 -71 87 -71s80 30 88 71c2 9 7 14 16 14h15c10 0 15 -5 14 -15c-7 -65 -57 -115 -133 -115zM699 353c9 0 15 -6 15 -15v-24c0 -188 -123 -327 -322 -327c-202 0 -351 161 -351 363
c0 198 153 358 350 358c92 0 170 -40 234 -93c7 -6 9 -14 1 -21l-21 -21c-8 -7 -14 -6 -21 0c-54 45 -116 74 -192 74c-158 0 -288 -128 -288 -297c0 -173 127 -302 288 -302c149 0 259 98 264 245h-252c-9 0 -15 6 -15 15v30c0 9 6 15 15 15h295z" />
    <glyph glyph-name="Gcommaaccent" unicode="&#x122;" horiz-adv-x="750" 
d="M699 353c9 0 15 -6 15 -15v-24c0 -188 -123 -327 -322 -327c-202 0 -351 161 -351 363c0 198 153 358 350 358c92 0 170 -40 234 -93c7 -6 9 -14 1 -21l-21 -21c-8 -7 -14 -6 -21 0c-54 45 -116 74 -192 74c-158 0 -288 -128 -288 -297c0 -173 127 -302 288 -302
c149 0 259 98 264 245h-252c-9 0 -15 6 -15 15v30c0 9 6 15 15 15h295zM379 -38c23 0 42 -18 42 -51c0 -50 -23 -85 -42 -109c-1 -2 -3 -3 -5 -3h-11c-3 0 -5 3 -3 6c11 22 19 43 19 74c-24 0 -42 18 -42 42c0 23 18 41 42 41z" />
    <glyph glyph-name="Gdotaccent" unicode="&#x120;" horiz-adv-x="750" 
d="M388 841c-21 0 -38 17 -38 37s17 37 38 37s38 -17 38 -37s-17 -37 -38 -37zM699 353c9 0 15 -6 15 -15v-24c0 -188 -123 -327 -322 -327c-202 0 -351 161 -351 363c0 198 153 358 350 358c92 0 170 -40 234 -93c7 -6 9 -14 1 -21l-21 -21c-8 -7 -14 -6 -21 0
c-54 45 -116 74 -192 74c-158 0 -288 -128 -288 -297c0 -173 127 -302 288 -302c149 0 259 98 264 245h-252c-9 0 -15 6 -15 15v30c0 9 6 15 15 15h295z" />
    <glyph glyph-name="H" unicode="H" horiz-adv-x="591" 
d="M515 700c9 0 15 -6 15 -15v-670c0 -9 -6 -15 -15 -15h-33c-9 0 -15 6 -15 15v305h-343v-305c0 -9 -6 -15 -15 -15h-33c-9 0 -15 6 -15 15v670c0 9 6 15 15 15h33c9 0 15 -6 15 -15v-306h343v306c0 9 6 15 15 15h33z" />
    <glyph glyph-name="Hbar" unicode="&#x126;" horiz-adv-x="591" 
d="M515 700c9 0 15 -6 15 -15v-670c0 -9 -6 -15 -15 -15h-33c-9 0 -15 6 -15 15v305h-343v-305c0 -9 -6 -15 -15 -15h-33c-9 0 -15 6 -15 15v670c0 9 6 15 15 15h33c9 0 15 -6 15 -15v-146h343v146c0 9 6 15 15 15h33zM124 379h343v104h-343v-104z" />
    <glyph glyph-name="I" unicode="I" horiz-adv-x="185" 
d="M61 685c0 9 6 15 15 15h33c9 0 15 -6 15 -15v-670c0 -9 -6 -15 -15 -15h-33c-9 0 -15 6 -15 15v670z" />
    <glyph glyph-name="IJ" unicode="&#x132;" horiz-adv-x="647" 
d="M61 685c0 9 6 15 15 15h33c9 0 15 -6 15 -15v-670c0 -9 -6 -15 -15 -15h-33c-9 0 -15 6 -15 15v670zM237 94c7 7 15 7 22 -1c29 -25 64 -44 119 -44c90 0 145 64 145 203v433c0 9 6 15 15 15h33c9 0 15 -6 15 -15v-436c0 -180 -80 -258 -208 -258c-71 0 -125 25 -158 62
c-6 7 -7 14 -1 21z" />
    <glyph glyph-name="Iacute" unicode="&#xcd;" horiz-adv-x="185" 
d="M169 908c11 0 17 -6 12 -17l-60 -126c-4 -9 -9 -12 -17 -12h-18c-11 0 -17 6 -12 17l60 126c4 9 9 12 17 12h18zM61 685c0 9 6 15 15 15h33c9 0 15 -6 15 -15v-670c0 -9 -6 -15 -15 -15h-33c-9 0 -15 6 -15 15v670z" />
    <glyph glyph-name="uni01CF" unicode="&#x1cf;" horiz-adv-x="185" 
d="M112 784h-38c-7 0 -13 2 -18 8l-85 98c-8 10 -5 18 8 18h21c7 0 13 -2 18 -8l75 -86l75 86c5 6 11 8 18 8h21c13 0 16 -8 8 -18l-85 -98c-5 -6 -11 -8 -18 -8zM61 685c0 9 6 15 15 15h33c9 0 15 -6 15 -15v-670c0 -9 -6 -15 -15 -15h-33c-9 0 -15 6 -15 15v670z" />
    <glyph glyph-name="Icircumflex" unicode="&#xce;" horiz-adv-x="185" 
d="M112 908c7 0 13 -2 18 -8l85 -98c8 -10 5 -18 -8 -18h-21c-7 0 -13 2 -18 8l-75 86l-75 -86c-5 -6 -11 -8 -18 -8h-21c-13 0 -16 8 -8 18l85 98c5 6 11 8 18 8h38zM61 685c0 9 6 15 15 15h33c9 0 15 -6 15 -15v-670c0 -9 -6 -15 -15 -15h-33c-9 0 -15 6 -15 15v670z" />
    <glyph glyph-name="Idieresis" unicode="&#xcf;" horiz-adv-x="185" 
d="M6 841c-21 0 -38 17 -38 37s17 37 38 37s38 -17 38 -37s-17 -37 -38 -37zM180 841c-20 0 -38 17 -38 37s18 37 38 37c21 0 38 -17 38 -37s-17 -37 -38 -37zM61 685c0 9 6 15 15 15h33c9 0 15 -6 15 -15v-670c0 -9 -6 -15 -15 -15h-33c-9 0 -15 6 -15 15v670z" />
    <glyph glyph-name="Idotaccent" unicode="&#x130;" horiz-adv-x="185" 
d="M93 841c-21 0 -38 17 -38 37s17 37 38 37s38 -17 38 -37s-17 -37 -38 -37zM61 685c0 9 6 15 15 15h33c9 0 15 -6 15 -15v-670c0 -9 -6 -15 -15 -15h-33c-9 0 -15 6 -15 15v670z" />
    <glyph glyph-name="Igrave" unicode="&#xcc;" horiz-adv-x="185" 
d="M10 908h18c8 0 13 -3 17 -12l60 -126c5 -11 -1 -17 -12 -17h-18c-8 0 -13 3 -17 12l-60 126c-5 11 1 17 12 17zM61 685c0 9 6 15 15 15h33c9 0 15 -6 15 -15v-670c0 -9 -6 -15 -15 -15h-33c-9 0 -15 6 -15 15v670z" />
    <glyph glyph-name="Imacron" unicode="&#x12a;" horiz-adv-x="185" 
d="M226 908c9 0 15 -6 15 -15v-21c0 -9 -6 -15 -15 -15h-265c-9 0 -15 6 -15 15v21c0 9 6 15 15 15h265zM61 685c0 9 6 15 15 15h33c9 0 15 -6 15 -15v-670c0 -9 -6 -15 -15 -15h-33c-9 0 -15 6 -15 15v670z" />
    <glyph glyph-name="J" unicode="J" horiz-adv-x="462" 
d="M52 94c7 7 15 7 22 -1c29 -25 64 -44 119 -44c90 0 145 64 145 203v433c0 9 6 15 15 15h33c9 0 15 -6 15 -15v-436c0 -180 -80 -258 -208 -258c-71 0 -125 25 -158 62c-6 7 -7 14 -1 21z" />
    <glyph glyph-name="K" unicode="K" horiz-adv-x="561" 
d="M530 18c7 -10 3 -18 -9 -18h-41c-8 0 -13 2 -18 9l-267 355l-71 -77v-272c0 -9 -6 -15 -15 -15h-33c-9 0 -15 6 -15 15v670c0 9 6 15 15 15h33c9 0 15 -6 15 -15v-314l292 321c5 6 11 8 18 8h45c13 0 17 -9 8 -18l-253 -275z" />
    <glyph glyph-name="Kcommaaccent" unicode="&#x136;" horiz-adv-x="481" 
d="M530 18c7 -10 3 -18 -9 -18h-41c-8 0 -13 2 -18 9l-267 355l-71 -77v-272c0 -9 -6 -15 -15 -15h-33c-9 0 -15 6 -15 15v670c0 9 6 15 15 15h33c9 0 15 -6 15 -15v-314l292 321c5 6 11 8 18 8h45c13 0 17 -9 8 -18l-253 -275zM244 -38c23 0 42 -18 42 -51
c0 -50 -23 -85 -42 -109c-1 -2 -3 -3 -5 -3h-11c-3 0 -5 3 -3 6c11 22 19 43 19 74c-24 0 -42 18 -42 42c0 23 18 41 42 41z" />
    <glyph glyph-name="L" unicode="L" horiz-adv-x="451" 
d="M395 59c9 0 15 -6 15 -15v-29c0 -9 -6 -15 -15 -15h-319c-9 0 -15 6 -15 15v670c0 9 6 15 15 15h33c9 0 15 -6 15 -15v-626h271z" />
    <glyph glyph-name="Lacute" unicode="&#x139;" horiz-adv-x="451" 
d="M102 751c-11 0 -17 6 -12 17l60 126c4 9 9 12 17 12h18c11 0 17 -6 12 -17l-60 -126c-4 -9 -9 -12 -17 -12h-18zM395 59c9 0 15 -6 15 -15v-29c0 -9 -6 -15 -15 -15h-319c-9 0 -15 6 -15 15v670c0 9 6 15 15 15h33c9 0 15 -6 15 -15v-626h271z" />
    <glyph glyph-name="Lcaron" unicode="&#x13d;" horiz-adv-x="451" 
d="M267 630c-24 0 -42 18 -42 42c0 23 18 41 42 41c23 0 42 -18 42 -51c0 -50 -23 -85 -42 -109c-1 -2 -3 -3 -5 -3h-11c-3 0 -5 3 -3 6c11 22 19 43 19 74zM395 59c9 0 15 -6 15 -15v-29c0 -9 -6 -15 -15 -15h-319c-9 0 -15 6 -15 15v670c0 9 6 15 15 15h33
c9 0 15 -6 15 -15v-626h271z" />
    <glyph glyph-name="Lcommaaccent" unicode="&#x13b;" horiz-adv-x="451" 
d="M395 59c9 0 15 -6 15 -15v-29c0 -9 -6 -15 -15 -15h-319c-9 0 -15 6 -15 15v670c0 9 6 15 15 15h33c9 0 15 -6 15 -15v-626h271zM225 -38c23 0 42 -18 42 -51c0 -50 -23 -85 -42 -109c-1 -2 -3 -3 -5 -3h-11c-3 0 -5 3 -3 6c11 22 19 43 19 74c-24 0 -42 18 -42 42
c0 23 18 41 42 41z" />
    <glyph glyph-name="Ldot" unicode="&#x13f;" horiz-adv-x="447" 
d="M395 59c9 0 15 -6 15 -15v-29c0 -9 -6 -15 -15 -15h-319c-9 0 -15 6 -15 15v670c0 9 6 15 15 15h33c9 0 15 -6 15 -15v-626h271zM292 331c-24 0 -42 18 -42 42c0 23 18 41 42 41c23 0 41 -18 41 -41c0 -24 -18 -42 -41 -42z" />
    <glyph glyph-name="Lslash" unicode="&#x141;" horiz-adv-x="466" 
d="M410 59c9 0 15 -6 15 -15v-29c0 -9 -6 -15 -15 -15h-319c-9 0 -15 6 -15 15v228l-38 -37c-10 -10 -18 -5 -18 8v39c0 7 2 13 8 19l48 46v367c0 9 6 15 15 15h33c9 0 15 -6 15 -15v-306l112 108c10 10 18 5 18 -8v-38c0 -7 -2 -13 -8 -19l-122 -118v-245h271z" />
    <glyph glyph-name="M" unicode="M" horiz-adv-x="818" 
d="M742 700c9 0 15 -6 15 -15v-670c0 -9 -6 -15 -15 -15h-33c-9 0 -15 6 -15 15v578l-251 -582c-3 -8 -9 -11 -17 -11h-36c-8 0 -14 3 -17 11l-249 578v-574c0 -9 -6 -15 -15 -15h-33c-9 0 -15 6 -15 15v670c0 9 6 15 15 15h49c8 0 15 -3 18 -10l266 -621l264 621
c3 7 10 10 18 10h51z" />
    <glyph glyph-name="N" unicode="N" horiz-adv-x="627" 
d="M551 700c9 0 15 -6 15 -15v-670c0 -8 -5 -14 -12 -15h-52c-8 0 -14 3 -18 10l-360 604v-599c0 -9 -6 -15 -15 -15h-33c-9 0 -15 6 -15 15v670c0 8 5 14 12 15h52c8 0 14 -3 18 -10l360 -604v599c0 9 6 15 15 15h33z" />
    <glyph glyph-name="Nacute" unicode="&#x143;" horiz-adv-x="627" 
d="M306 753c-11 0 -17 6 -12 17l60 126c4 9 9 12 17 12h18c11 0 17 -6 12 -17l-60 -126c-4 -9 -9 -12 -17 -12h-18zM551 700c9 0 15 -6 15 -15v-670c0 -8 -5 -14 -12 -15h-52c-8 0 -14 3 -18 10l-360 604v-599c0 -9 -6 -15 -15 -15h-33c-9 0 -15 6 -15 15v670
c0 8 5 14 12 15h52c8 0 14 -3 18 -10l360 -604v599c0 9 6 15 15 15h33z" />
    <glyph glyph-name="Ncaron" unicode="&#x147;" horiz-adv-x="627" 
d="M276 792l-85 98c-8 10 -5 18 8 18h21c7 0 13 -2 18 -8l75 -86l75 86c5 6 11 8 18 8h21c13 0 16 -8 8 -18l-85 -98c-5 -6 -11 -8 -18 -8h-38c-7 0 -13 2 -18 8zM551 700c9 0 15 -6 15 -15v-670c0 -8 -5 -14 -12 -15h-52c-8 0 -14 3 -18 10l-360 604v-599
c0 -9 -6 -15 -15 -15h-33c-9 0 -15 6 -15 15v670c0 8 5 14 12 15h52c8 0 14 -3 18 -10l360 -604v599c0 9 6 15 15 15h33z" />
    <glyph glyph-name="Ncommaaccent" unicode="&#x145;" horiz-adv-x="627" 
d="M551 700c9 0 15 -6 15 -15v-670c0 -8 -5 -14 -12 -15h-52c-8 0 -14 3 -18 10l-360 604v-599c0 -9 -6 -15 -15 -15h-33c-9 0 -15 6 -15 15v670c0 8 5 14 12 15h52c8 0 14 -3 18 -10l360 -604v599c0 9 6 15 15 15h33zM315 -38c23 0 42 -18 42 -51c0 -50 -23 -85 -42 -109
c-1 -2 -3 -3 -5 -3h-11c-3 0 -5 3 -3 6c11 22 19 43 19 74c-24 0 -42 18 -42 42c0 23 18 41 42 41z" />
    <glyph glyph-name="Eng" unicode="&#x14a;" horiz-adv-x="627" 
d="M551 700c9 0 15 -6 15 -15v-670c0 -3 -1 -5 -2 -8c-12 -149 -89 -214 -206 -214c-71 0 -125 25 -158 62c-6 7 -7 14 -1 21l18 20c7 7 15 7 22 -1c29 -25 64 -44 119 -44c77 0 129 47 142 149c-7 1 -12 4 -16 10l-360 604v-599c0 -9 -6 -15 -15 -15h-33c-9 0 -15 6 -15 15
v670c0 8 5 14 12 15h52c8 0 14 -3 18 -10l360 -604v599c0 9 6 15 15 15h33z" />
    <glyph glyph-name="Ntilde" unicode="&#xd1;" horiz-adv-x="627" 
d="M180 846c-6 0 -10 4 -9 12c5 44 38 67 79 67c66 0 83 -65 134 -65c25 0 36 18 41 32c2 6 5 9 11 9h13c6 0 10 -4 10 -10c-6 -46 -41 -69 -75 -69c-70 0 -87 65 -138 65c-27 0 -38 -18 -42 -32c-2 -6 -5 -9 -11 -9h-13zM551 700c9 0 15 -6 15 -15v-670
c0 -8 -5 -14 -12 -15h-52c-8 0 -14 3 -18 10l-360 604v-599c0 -9 -6 -15 -15 -15h-33c-9 0 -15 6 -15 15v670c0 8 5 14 12 15h52c8 0 14 -3 18 -10l360 -604v599c0 9 6 15 15 15h33z" />
    <glyph glyph-name="O" unicode="O" horiz-adv-x="796" 
d="M399 -13c-198 0 -358 160 -358 360c0 201 160 361 358 361c197 0 356 -160 356 -361c0 -200 -159 -360 -356 -360zM399 45c165 0 296 134 296 302c0 170 -131 304 -296 304c-167 0 -298 -134 -298 -304c0 -168 131 -302 298 -302z" />
    <glyph glyph-name="Oacute" unicode="&#xd3;" horiz-adv-x="796" 
d="M475 908c11 0 17 -6 12 -17l-60 -126c-4 -9 -9 -12 -17 -12h-18c-11 0 -17 6 -12 17l60 126c4 9 9 12 17 12h18zM399 -13c-198 0 -358 160 -358 360c0 201 160 361 358 361c197 0 356 -160 356 -361c0 -200 -159 -360 -356 -360zM399 45c165 0 296 134 296 302
c0 170 -131 304 -296 304c-167 0 -298 -134 -298 -304c0 -168 131 -302 298 -302z" />
    <glyph glyph-name="uni01D1" unicode="&#x1d1;" horiz-adv-x="796" 
d="M418 784h-38c-7 0 -13 2 -18 8l-85 98c-8 10 -5 18 8 18h21c7 0 13 -2 18 -8l75 -86l75 86c5 6 11 8 18 8h21c13 0 16 -8 8 -18l-85 -98c-5 -6 -11 -8 -18 -8zM399 -13c-198 0 -358 160 -358 360c0 201 160 361 358 361c197 0 356 -160 356 -361
c0 -200 -159 -360 -356 -360zM399 45c165 0 296 134 296 302c0 170 -131 304 -296 304c-167 0 -298 -134 -298 -304c0 -168 131 -302 298 -302z" />
    <glyph glyph-name="Ocircumflex" unicode="&#xd4;" horiz-adv-x="796" 
d="M418 908c7 0 13 -2 18 -8l85 -98c8 -10 5 -18 -8 -18h-21c-7 0 -13 2 -18 8l-75 86l-75 -86c-5 -6 -11 -8 -18 -8h-21c-13 0 -16 8 -8 18l85 98c5 6 11 8 18 8h38zM399 -13c-198 0 -358 160 -358 360c0 201 160 361 358 361c197 0 356 -160 356 -361
c0 -200 -159 -360 -356 -360zM399 45c165 0 296 134 296 302c0 170 -131 304 -296 304c-167 0 -298 -134 -298 -304c0 -168 131 -302 298 -302z" />
    <glyph glyph-name="Odieresis" unicode="&#xd6;" horiz-adv-x="796" 
d="M312 841c-21 0 -38 17 -38 37s17 37 38 37s38 -17 38 -37s-17 -37 -38 -37zM486 841c-20 0 -38 17 -38 37s18 37 38 37c21 0 38 -17 38 -37s-17 -37 -38 -37zM399 -13c-198 0 -358 160 -358 360c0 201 160 361 358 361c197 0 356 -160 356 -361
c0 -200 -159 -360 -356 -360zM399 45c165 0 296 134 296 302c0 170 -131 304 -296 304c-167 0 -298 -134 -298 -304c0 -168 131 -302 298 -302z" />
    <glyph glyph-name="Ograve" unicode="&#xd2;" horiz-adv-x="796" 
d="M316 908h18c8 0 13 -3 17 -12l60 -126c5 -11 -1 -17 -12 -17h-18c-8 0 -13 3 -17 12l-60 126c-5 11 1 17 12 17zM399 -13c-198 0 -358 160 -358 360c0 201 160 361 358 361c197 0 356 -160 356 -361c0 -200 -159 -360 -356 -360zM399 45c165 0 296 134 296 302
c0 170 -131 304 -296 304c-167 0 -298 -134 -298 -304c0 -168 131 -302 298 -302z" />
    <glyph glyph-name="Ohungarumlaut" unicode="&#x150;" horiz-adv-x="796" 
d="M369 908c11 0 17 -6 12 -17l-60 -126c-4 -9 -9 -12 -17 -12h-18c-11 0 -17 6 -12 17l60 126c4 9 9 12 17 12h18zM504 908c11 0 17 -6 12 -17l-60 -126c-4 -9 -9 -12 -17 -12h-18c-11 0 -17 6 -12 17l60 126c4 9 9 12 17 12h18zM399 -13c-198 0 -358 160 -358 360
c0 201 160 361 358 361c197 0 356 -160 356 -361c0 -200 -159 -360 -356 -360zM399 45c165 0 296 134 296 302c0 170 -131 304 -296 304c-167 0 -298 -134 -298 -304c0 -168 131 -302 298 -302z" />
    <glyph glyph-name="Omacron" unicode="&#x14c;" horiz-adv-x="796" 
d="M532 908c9 0 15 -6 15 -15v-21c0 -9 -6 -15 -15 -15h-265c-9 0 -15 6 -15 15v21c0 9 6 15 15 15h265zM399 -13c-198 0 -358 160 -358 360c0 201 160 361 358 361c197 0 356 -160 356 -361c0 -200 -159 -360 -356 -360zM399 45c165 0 296 134 296 302
c0 170 -131 304 -296 304c-167 0 -298 -134 -298 -304c0 -168 131 -302 298 -302z" />
    <glyph glyph-name="uni01EA" unicode="&#x1ea;" horiz-adv-x="796" 
d="M436 -11c-40 -18 -65 -53 -65 -84c0 -50 36 -69 91 -57v-46c-43 -20 -147 -10 -147 90c0 41 19 73 45 97c-179 19 -319 171 -319 358c0 201 160 361 358 361c197 0 356 -160 356 -361c0 -187 -139 -339 -319 -358zM101 347c0 -168 131 -302 298 -302
c165 0 296 134 296 302c0 170 -131 304 -296 304c-167 0 -298 -134 -298 -304z" />
    <glyph glyph-name="Oslash" unicode="&#xd8;" horiz-adv-x="796" 
d="M570 664c110 -61 185 -179 185 -317c0 -200 -159 -360 -356 -360c-43 0 -84 7 -122 21l-21 -47c-3 -8 -9 -11 -17 -11h-28c-11 0 -16 7 -11 18l28 62c-112 61 -187 180 -187 317c0 201 160 361 358 361c43 0 84 -8 122 -21l21 47c3 8 9 11 17 11h28c11 0 16 -7 11 -18z
M101 347c0 -114 60 -212 151 -263l245 550c-30 11 -63 17 -98 17c-167 0 -298 -134 -298 -304zM399 45c165 0 296 134 296 302c0 114 -59 213 -149 265l-245 -551c30 -10 63 -16 98 -16z" />
    <glyph glyph-name="Otilde" unicode="&#xd5;" horiz-adv-x="796" 
d="M336 925c66 0 83 -65 134 -65c25 0 36 18 41 32c2 6 5 9 11 9h13c6 0 10 -4 10 -10c-6 -46 -41 -69 -75 -69c-70 0 -87 65 -138 65c-27 0 -38 -18 -42 -32c-2 -6 -5 -9 -11 -9h-13c-6 0 -10 4 -9 12c5 44 38 67 79 67zM399 -13c-198 0 -358 160 -358 360
c0 201 160 361 358 361c197 0 356 -160 356 -361c0 -200 -159 -360 -356 -360zM399 45c165 0 296 134 296 302c0 170 -131 304 -296 304c-167 0 -298 -134 -298 -304c0 -168 131 -302 298 -302z" />
    <glyph glyph-name="OE" unicode="&#x152;" horiz-adv-x="1114" 
d="M1049 59c9 0 15 -6 15 -15v-29c0 -9 -6 -15 -15 -15h-339c-9 0 -15 6 -15 15v131c-64 -96 -172 -159 -296 -159c-198 0 -358 160 -358 360c0 201 160 361 358 361c124 0 232 -63 296 -159v136c0 9 6 15 15 15h338c9 0 15 -6 15 -15v-29c0 -9 -6 -15 -15 -15h-290v-238
h273c9 0 15 -6 15 -15v-29c0 -9 -6 -15 -15 -15h-273v-285h291zM399 45c165 0 296 134 296 302c0 170 -131 304 -296 304c-167 0 -298 -134 -298 -304c0 -168 131 -302 298 -302z" />
    <glyph glyph-name="P" unicode="P" horiz-adv-x="519" 
d="M259 700c149 0 229 -92 229 -214c0 -121 -80 -214 -229 -214h-135v-257c0 -9 -6 -15 -15 -15h-33c-9 0 -15 6 -15 15v670c0 9 6 15 15 15h183zM255 331c97 0 172 44 172 155s-75 155 -172 155h-131v-310h131z" />
    <glyph glyph-name="Thorn" unicode="&#xde;" horiz-adv-x="529" 
d="M273 564c150 0 225 -94 225 -214s-75 -214 -225 -214h-149v-121c0 -9 -6 -15 -15 -15h-33c-9 0 -15 6 -15 15v670c0 9 6 15 15 15h33c9 0 15 -6 15 -15v-121h149zM267 195c97 0 170 43 170 155s-73 155 -170 155h-143v-310h143z" />
    <glyph glyph-name="Q" unicode="Q" horiz-adv-x="796" 
d="M669 112l81 -80c7 -7 6 -15 0 -21l-20 -20c-7 -8 -14 -9 -22 0l-80 80c-62 -53 -142 -84 -229 -84c-198 0 -358 160 -358 360c0 201 160 361 358 361c197 0 356 -160 356 -361c0 -90 -32 -172 -86 -235zM399 45c72 0 137 25 188 67l-97 97c-7 7 -4 16 0 21l20 20
c7 7 14 7 21 0l97 -96c42 52 67 119 67 193c0 170 -131 304 -296 304c-167 0 -298 -134 -298 -304c0 -168 131 -302 298 -302z" />
    <glyph glyph-name="R" unicode="R" horiz-adv-x="533" 
d="M489 18c7 -11 2 -18 -10 -18h-37c-8 0 -14 3 -18 10l-176 262h-124v-257c0 -9 -6 -15 -15 -15h-33c-9 0 -15 6 -15 15v670c0 9 6 15 15 15h183c149 0 229 -92 229 -214c0 -106 -61 -190 -176 -210zM124 641v-310h131c97 0 172 44 172 155s-75 155 -172 155h-131z" />
    <glyph glyph-name="Racute" unicode="&#x154;" horiz-adv-x="533" 
d="M248 753c-11 0 -17 6 -12 17l60 126c4 9 9 12 17 12h18c11 0 17 -6 12 -17l-60 -126c-4 -9 -9 -12 -17 -12h-18zM489 18c7 -11 2 -18 -10 -18h-37c-8 0 -14 3 -18 10l-176 262h-124v-257c0 -9 -6 -15 -15 -15h-33c-9 0 -15 6 -15 15v670c0 9 6 15 15 15h183
c149 0 229 -92 229 -214c0 -106 -61 -190 -176 -210zM124 641v-310h131c97 0 172 44 172 155s-75 155 -172 155h-131z" />
    <glyph glyph-name="Rcaron" unicode="&#x158;" horiz-adv-x="533" 
d="M218 792l-85 98c-8 10 -5 18 8 18h21c7 0 13 -2 18 -8l75 -86l75 86c5 6 11 8 18 8h21c13 0 16 -8 8 -18l-85 -98c-5 -6 -11 -8 -18 -8h-38c-7 0 -13 2 -18 8zM489 18c7 -11 2 -18 -10 -18h-37c-8 0 -14 3 -18 10l-176 262h-124v-257c0 -9 -6 -15 -15 -15h-33
c-9 0 -15 6 -15 15v670c0 9 6 15 15 15h183c149 0 229 -92 229 -214c0 -106 -61 -190 -176 -210zM124 641v-310h131c97 0 172 44 172 155s-75 155 -172 155h-131z" />
    <glyph glyph-name="Rcommaaccent" unicode="&#x156;" horiz-adv-x="533" 
d="M489 18c7 -11 2 -18 -10 -18h-37c-8 0 -14 3 -18 10l-176 262h-124v-257c0 -9 -6 -15 -15 -15h-33c-9 0 -15 6 -15 15v670c0 9 6 15 15 15h183c149 0 229 -92 229 -214c0 -106 -61 -190 -176 -210zM124 641v-310h131c97 0 172 44 172 155s-75 155 -172 155h-131zM257 -38
c23 0 42 -18 42 -51c0 -50 -23 -85 -42 -109c-1 -2 -3 -3 -5 -3h-11c-3 0 -5 3 -3 6c11 22 19 43 19 74c-24 0 -42 18 -42 42c0 23 18 41 42 41z" />
    <glyph glyph-name="S" unicode="S" horiz-adv-x="515" 
d="M111 534c0 -176 368 -122 368 -358c0 -101 -97 -189 -224 -189c-96 0 -170 45 -215 105c-5 9 -3 14 4 20l21 18c7 6 14 5 21 -2c37 -44 91 -84 167 -84c101 0 164 63 164 137c0 181 -365 129 -365 354c0 98 83 173 198 173c72 0 147 -36 194 -94c6 -7 6 -13 -2 -21
l-17 -15c-7 -7 -14 -8 -21 -1c-44 47 -91 75 -155 75c-76 0 -138 -41 -138 -118z" />
    <glyph glyph-name="Sacute" unicode="&#x15a;" horiz-adv-x="515" 
d="M324 908c11 0 17 -6 12 -17l-60 -126c-4 -9 -9 -12 -17 -12h-18c-11 0 -17 6 -12 17l60 126c4 9 9 12 17 12h18zM111 534c0 -176 368 -122 368 -358c0 -101 -97 -189 -224 -189c-96 0 -170 45 -215 105c-5 9 -3 14 4 20l21 18c7 6 14 5 21 -2c37 -44 91 -84 167 -84
c101 0 164 63 164 137c0 181 -365 129 -365 354c0 98 83 173 198 173c72 0 147 -36 194 -94c6 -7 6 -13 -2 -21l-17 -15c-7 -7 -14 -8 -21 -1c-44 47 -91 75 -155 75c-76 0 -138 -41 -138 -118z" />
    <glyph glyph-name="Scaron" unicode="&#x160;" horiz-adv-x="515" 
d="M267 784h-38c-7 0 -13 2 -18 8l-85 98c-8 10 -5 18 8 18h21c7 0 13 -2 18 -8l75 -86l75 86c5 6 11 8 18 8h21c13 0 16 -8 8 -18l-85 -98c-5 -6 -11 -8 -18 -8zM111 534c0 -176 368 -122 368 -358c0 -101 -97 -189 -224 -189c-96 0 -170 45 -215 105c-5 9 -3 14 4 20
l21 18c7 6 14 5 21 -2c37 -44 91 -84 167 -84c101 0 164 63 164 137c0 181 -365 129 -365 354c0 98 83 173 198 173c72 0 147 -36 194 -94c6 -7 6 -13 -2 -21l-17 -15c-7 -7 -14 -8 -21 -1c-44 47 -91 75 -155 75c-76 0 -138 -41 -138 -118z" />
    <glyph glyph-name="Scedilla" unicode="&#x15e;" horiz-adv-x="515" 
d="M479 176c0 -96 -88 -180 -206 -188l-26 -28c43 -3 79 -32 79 -76c0 -80 -78 -103 -145 -94c-6 1 -9 5 -9 11v24c0 6 4 10 11 10c55 -6 91 10 91 44c0 32 -42 49 -90 32c-7 -3 -12 0 -12 7v20c0 5 2 8 5 12l36 40c-76 11 -135 51 -173 102c-5 9 -3 14 4 20l21 18
c7 6 14 5 21 -2c37 -44 91 -84 167 -84c101 0 164 63 164 137c0 181 -365 129 -365 354c0 98 83 173 198 173c72 0 147 -36 194 -94c6 -7 6 -13 -2 -21l-17 -15c-7 -7 -14 -8 -21 -1c-44 47 -91 75 -155 75c-76 0 -138 -41 -138 -118c0 -176 368 -122 368 -358z" />
    <glyph glyph-name="Scommaaccent" unicode="&#x218;" horiz-adv-x="515" 
d="M111 534c0 -176 368 -122 368 -358c0 -101 -97 -189 -224 -189c-96 0 -170 45 -215 105c-5 9 -3 14 4 20l21 18c7 6 14 5 21 -2c37 -44 91 -84 167 -84c101 0 164 63 164 137c0 181 -365 129 -365 354c0 98 83 173 198 173c72 0 147 -36 194 -94c6 -7 6 -13 -2 -21
l-17 -15c-7 -7 -14 -8 -21 -1c-44 47 -91 75 -155 75c-76 0 -138 -41 -138 -118zM250 -38c23 0 42 -18 42 -51c0 -50 -23 -85 -42 -109c-1 -2 -3 -3 -5 -3h-11c-3 0 -5 3 -3 6c11 22 19 43 19 74c-24 0 -42 18 -42 42c0 23 18 41 42 41z" />
    <glyph glyph-name="T" unicode="T" horiz-adv-x="497" 
d="M441 700c9 0 15 -6 15 -15v-29c0 -9 -6 -15 -15 -15h-161v-626c0 -9 -6 -15 -15 -15h-33c-9 0 -15 6 -15 15v626h-161c-9 0 -15 6 -15 15v29c0 9 6 15 15 15h385z" />
    <glyph glyph-name="Tbar" unicode="&#x166;" horiz-adv-x="497" 
d="M441 700c9 0 15 -6 15 -15v-29c0 -9 -6 -15 -15 -15h-161v-151h101c9 0 15 -6 15 -15v-21c0 -9 -6 -15 -15 -15h-101v-424c0 -9 -6 -15 -15 -15h-33c-9 0 -15 6 -15 15v424h-101c-9 0 -15 6 -15 15v21c0 9 6 15 15 15h101v151h-161c-9 0 -15 6 -15 15v29c0 9 6 15 15 15
h385z" />
    <glyph glyph-name="Tcaron" unicode="&#x164;" horiz-adv-x="497" 
d="M268 784h-38c-7 0 -13 2 -18 8l-85 98c-8 10 -5 18 8 18h21c7 0 13 -2 18 -8l75 -86l75 86c5 6 11 8 18 8h21c13 0 16 -8 8 -18l-85 -98c-5 -6 -11 -8 -18 -8zM441 700c9 0 15 -6 15 -15v-29c0 -9 -6 -15 -15 -15h-161v-626c0 -9 -6 -15 -15 -15h-33c-9 0 -15 6 -15 15
v626h-161c-9 0 -15 6 -15 15v29c0 9 6 15 15 15h385z" />
    <glyph glyph-name="uni0162" unicode="&#x162;" horiz-adv-x="497" 
d="M441 700c9 0 15 -6 15 -15v-29c0 -9 -6 -15 -15 -15h-161v-626c0 -9 -6 -15 -15 -15h21l-38 -40c43 -3 79 -32 79 -76c0 -80 -78 -103 -145 -94c-6 1 -9 5 -9 11v24c0 6 4 10 11 10c55 -6 91 10 91 44c0 32 -42 49 -90 32c-7 -3 -12 0 -12 7v20c0 5 2 8 5 12l45 50h9
c-9 0 -15 6 -15 15v626h-161c-9 0 -15 6 -15 15v29c0 9 6 15 15 15h385z" />
    <glyph glyph-name="uni021A" unicode="&#x21a;" horiz-adv-x="497" 
d="M441 700c9 0 15 -6 15 -15v-29c0 -9 -6 -15 -15 -15h-161v-626c0 -9 -6 -15 -15 -15h-33c-9 0 -15 6 -15 15v626h-161c-9 0 -15 6 -15 15v29c0 9 6 15 15 15h385zM251 -38c23 0 42 -18 42 -51c0 -50 -23 -85 -42 -109c-1 -2 -3 -3 -5 -3h-11c-3 0 -5 3 -3 6
c11 22 19 43 19 74c-24 0 -42 18 -42 42c0 23 18 41 42 41z" />
    <glyph glyph-name="U" unicode="U" horiz-adv-x="607" 
d="M536 700c9 0 15 -6 15 -15v-414c0 -188 -105 -284 -247 -284c-143 0 -248 96 -248 284v414c0 9 6 15 15 15h33c9 0 15 -6 15 -15v-414c0 -156 81 -227 185 -227c103 0 184 71 184 227v414c0 9 6 15 15 15h33z" />
    <glyph glyph-name="Uacute" unicode="&#xda;" horiz-adv-x="607" 
d="M380 908c11 0 17 -6 12 -17l-60 -126c-4 -9 -9 -12 -17 -12h-18c-11 0 -17 6 -12 17l60 126c4 9 9 12 17 12h18zM536 700c9 0 15 -6 15 -15v-414c0 -188 -105 -284 -247 -284c-143 0 -248 96 -248 284v414c0 9 6 15 15 15h33c9 0 15 -6 15 -15v-414
c0 -156 81 -227 185 -227c103 0 184 71 184 227v414c0 9 6 15 15 15h33z" />
    <glyph glyph-name="Ubreve" unicode="&#x16c;" horiz-adv-x="607" 
d="M392 895c2 9 7 14 16 14h15c10 0 15 -5 14 -15c-7 -65 -57 -115 -133 -115c-75 0 -125 50 -132 115c-1 10 4 15 14 15h15c9 0 14 -5 16 -14c8 -41 39 -71 87 -71s80 30 88 71zM536 700c9 0 15 -6 15 -15v-414c0 -188 -105 -284 -247 -284c-143 0 -248 96 -248 284v414
c0 9 6 15 15 15h33c9 0 15 -6 15 -15v-414c0 -156 81 -227 185 -227c103 0 184 71 184 227v414c0 9 6 15 15 15h33z" />
    <glyph glyph-name="uni01D3" unicode="&#x1d3;" horiz-adv-x="607" 
d="M323 784h-38c-7 0 -13 2 -18 8l-85 98c-8 10 -5 18 8 18h21c7 0 13 -2 18 -8l75 -86l75 86c5 6 11 8 18 8h21c13 0 16 -8 8 -18l-85 -98c-5 -6 -11 -8 -18 -8zM536 700c9 0 15 -6 15 -15v-414c0 -188 -105 -284 -247 -284c-143 0 -248 96 -248 284v414c0 9 6 15 15 15h33
c9 0 15 -6 15 -15v-414c0 -156 81 -227 185 -227c103 0 184 71 184 227v414c0 9 6 15 15 15h33z" />
    <glyph glyph-name="Ucircumflex" unicode="&#xdb;" horiz-adv-x="607" 
d="M323 908c7 0 13 -2 18 -8l85 -98c8 -10 5 -18 -8 -18h-21c-7 0 -13 2 -18 8l-75 86l-75 -86c-5 -6 -11 -8 -18 -8h-21c-13 0 -16 8 -8 18l85 98c5 6 11 8 18 8h38zM536 700c9 0 15 -6 15 -15v-414c0 -188 -105 -284 -247 -284c-143 0 -248 96 -248 284v414
c0 9 6 15 15 15h33c9 0 15 -6 15 -15v-414c0 -156 81 -227 185 -227c103 0 184 71 184 227v414c0 9 6 15 15 15h33z" />
    <glyph glyph-name="Udieresis" unicode="&#xdc;" horiz-adv-x="607" 
d="M217 841c-21 0 -38 17 -38 37s17 37 38 37s38 -17 38 -37s-17 -37 -38 -37zM391 841c-20 0 -38 17 -38 37s18 37 38 37c21 0 38 -17 38 -37s-17 -37 -38 -37zM536 700c9 0 15 -6 15 -15v-414c0 -188 -105 -284 -247 -284c-143 0 -248 96 -248 284v414c0 9 6 15 15 15h33
c9 0 15 -6 15 -15v-414c0 -156 81 -227 185 -227c103 0 184 71 184 227v414c0 9 6 15 15 15h33z" />
    <glyph glyph-name="Ugrave" unicode="&#xd9;" horiz-adv-x="607" 
d="M221 908h18c8 0 13 -3 17 -12l60 -126c5 -11 -1 -17 -12 -17h-18c-8 0 -13 3 -17 12l-60 126c-5 11 1 17 12 17zM536 700c9 0 15 -6 15 -15v-414c0 -188 -105 -284 -247 -284c-143 0 -248 96 -248 284v414c0 9 6 15 15 15h33c9 0 15 -6 15 -15v-414
c0 -156 81 -227 185 -227c103 0 184 71 184 227v414c0 9 6 15 15 15h33z" />
    <glyph glyph-name="Uhungarumlaut" unicode="&#x170;" horiz-adv-x="607" 
d="M274 908c11 0 17 -6 12 -17l-60 -126c-4 -9 -9 -12 -17 -12h-18c-11 0 -17 6 -12 17l60 126c4 9 9 12 17 12h18zM409 908c11 0 17 -6 12 -17l-60 -126c-4 -9 -9 -12 -17 -12h-18c-11 0 -17 6 -12 17l60 126c4 9 9 12 17 12h18zM536 700c9 0 15 -6 15 -15v-414
c0 -188 -105 -284 -247 -284c-143 0 -248 96 -248 284v414c0 9 6 15 15 15h33c9 0 15 -6 15 -15v-414c0 -156 81 -227 185 -227c103 0 184 71 184 227v414c0 9 6 15 15 15h33z" />
    <glyph glyph-name="Umacron" unicode="&#x16a;" horiz-adv-x="607" 
d="M437 908c9 0 15 -6 15 -15v-21c0 -9 -6 -15 -15 -15h-265c-9 0 -15 6 -15 15v21c0 9 6 15 15 15h265zM536 700c9 0 15 -6 15 -15v-414c0 -188 -105 -284 -247 -284c-143 0 -248 96 -248 284v414c0 9 6 15 15 15h33c9 0 15 -6 15 -15v-414c0 -156 81 -227 185 -227
c103 0 184 71 184 227v414c0 9 6 15 15 15h33z" />
    <glyph glyph-name="Uogonek" unicode="&#x172;" horiz-adv-x="607" 
d="M536 700c9 0 15 -6 15 -15v-414c0 -151 -67 -242 -167 -273c-51 -21 -89 -54 -89 -97c0 -46 35 -65 91 -53v-46c-44 -20 -148 -10 -148 90c0 42 20 73 47 96c-133 8 -229 103 -229 283v414c0 9 6 15 15 15h33c9 0 15 -6 15 -15v-414c0 -156 81 -227 185 -227
c103 0 184 71 184 227v414c0 9 6 15 15 15h33z" />
    <glyph glyph-name="Uring" unicode="&#x16e;" horiz-adv-x="607" 
d="M305 924c40 0 73 -34 73 -74s-33 -73 -73 -73c-43 0 -76 33 -76 73s33 74 76 74zM305 822c15 0 28 13 28 28c0 16 -13 28 -28 28c-17 0 -29 -12 -29 -28c0 -15 12 -28 29 -28zM536 700c9 0 15 -6 15 -15v-414c0 -188 -105 -284 -247 -284c-143 0 -248 96 -248 284v414
c0 9 6 15 15 15h33c9 0 15 -6 15 -15v-414c0 -156 81 -227 185 -227c103 0 184 71 184 227v414c0 9 6 15 15 15h33z" />
    <glyph glyph-name="V" unicode="V" horiz-adv-x="641" 
d="M543 688c3 9 9 12 17 12h32c11 0 16 -7 12 -17l-247 -671c-3 -8 -10 -12 -18 -12h-37c-8 0 -15 4 -18 12l-247 671c-4 10 1 17 12 17h32c8 0 14 -3 17 -12l223 -615z" />
    <glyph glyph-name="W" unicode="W" horiz-adv-x="1073" 
d="M1023 700c11 0 15 -7 12 -17l-219 -671c-3 -8 -10 -12 -18 -12h-39c-8 0 -16 4 -18 12l-206 593l-205 -593c-3 -8 -10 -12 -18 -12h-40c-8 0 -15 4 -17 12l-218 671c-4 10 1 17 12 17h32c8 0 14 -3 17 -12l194 -615l212 615c1 3 3 5 4 7c2 3 6 5 12 5h30c4 0 7 -1 9 -2
c3 -2 5 -5 7 -10l213 -615l196 615c2 9 9 12 17 12h31z" />
    <glyph glyph-name="Wacute" unicode="&#x1e82;" horiz-adv-x="1073" 
d="M530 753c-11 0 -17 6 -12 17l60 126c4 9 9 12 17 12h18c11 0 17 -6 12 -17l-60 -126c-4 -9 -9 -12 -17 -12h-18zM1023 700c11 0 15 -7 12 -17l-219 -671c-3 -8 -10 -12 -18 -12h-39c-8 0 -16 4 -18 12l-206 593l-205 -593c-3 -8 -10 -12 -18 -12h-40c-8 0 -15 4 -17 12
l-218 671c-4 10 1 17 12 17h32c8 0 14 -3 17 -12l194 -615l212 615c1 3 3 5 4 7c2 3 6 5 12 5h30c4 0 7 -1 9 -2c3 -2 5 -5 7 -10l213 -615l196 615c2 9 9 12 17 12h31z" />
    <glyph glyph-name="Wcircumflex" unicode="&#x174;" horiz-adv-x="1073" 
d="M423 784c-13 0 -16 8 -8 18l85 98c5 6 11 8 18 8h38c7 0 13 -2 18 -8l85 -98c8 -10 5 -18 -8 -18h-21c-7 0 -13 2 -18 8l-75 86l-75 -86c-5 -6 -11 -8 -18 -8h-21zM1023 700c11 0 15 -7 12 -17l-219 -671c-3 -8 -10 -12 -18 -12h-39c-8 0 -16 4 -18 12l-206 593
l-205 -593c-3 -8 -10 -12 -18 -12h-40c-8 0 -15 4 -17 12l-218 671c-4 10 1 17 12 17h32c8 0 14 -3 17 -12l194 -615l212 615c1 3 3 5 4 7c2 3 6 5 12 5h30c4 0 7 -1 9 -2c3 -2 5 -5 7 -10l213 -615l196 615c2 9 9 12 17 12h31z" />
    <glyph glyph-name="Wdieresis" unicode="&#x1e84;" horiz-adv-x="1073" 
d="M450 841c-21 0 -38 17 -38 37s17 37 38 37s38 -17 38 -37s-17 -37 -38 -37zM624 841c-20 0 -38 17 -38 37s18 37 38 37c21 0 38 -17 38 -37s-17 -37 -38 -37zM1023 700c11 0 15 -7 12 -17l-219 -671c-3 -8 -10 -12 -18 -12h-39c-8 0 -16 4 -18 12l-206 593l-205 -593
c-3 -8 -10 -12 -18 -12h-40c-8 0 -15 4 -17 12l-218 671c-4 10 1 17 12 17h32c8 0 14 -3 17 -12l194 -615l212 615c1 3 3 5 4 7c2 3 6 5 12 5h30c4 0 7 -1 9 -2c3 -2 5 -5 7 -10l213 -615l196 615c2 9 9 12 17 12h31z" />
    <glyph glyph-name="Wgrave" unicode="&#x1e80;" horiz-adv-x="1073" 
d="M502 765l-60 126c-5 11 1 17 12 17h18c8 0 13 -3 17 -12l60 -126c5 -11 -1 -17 -12 -17h-18c-8 0 -13 3 -17 12zM1023 700c11 0 15 -7 12 -17l-219 -671c-3 -8 -10 -12 -18 -12h-39c-8 0 -16 4 -18 12l-206 593l-205 -593c-3 -8 -10 -12 -18 -12h-40c-8 0 -15 4 -17 12
l-218 671c-4 10 1 17 12 17h32c8 0 14 -3 17 -12l194 -615l212 615c1 3 3 5 4 7c2 3 6 5 12 5h30c4 0 7 -1 9 -2c3 -2 5 -5 7 -10l213 -615l196 615c2 9 9 12 17 12h31z" />
    <glyph glyph-name="X" unicode="X" horiz-adv-x="579" 
d="M539 18c6 -10 2 -18 -10 -18h-34c-8 0 -14 3 -18 10l-188 295l-187 -295c-4 -7 -10 -10 -18 -10h-35c-12 0 -16 8 -10 18l216 340l-206 324c-6 10 -2 18 10 18h35c8 0 14 -3 18 -10l177 -279l178 279c4 7 10 10 18 10h34c12 0 16 -8 10 -18l-206 -324z" />
    <glyph glyph-name="Y" unicode="Y" horiz-adv-x="556" 
d="M507 700c12 0 16 -8 10 -18l-208 -341v-326c0 -9 -6 -15 -15 -15h-32c-9 0 -15 6 -15 15v326l-208 341c-6 10 -2 18 10 18h35c8 0 14 -3 18 -10l176 -289l176 289c4 7 10 10 18 10h35z" />
    <glyph glyph-name="Yacute" unicode="&#xdd;" horiz-adv-x="556" 
d="M271 753c-11 0 -17 6 -12 17l60 126c4 9 9 12 17 12h18c11 0 17 -6 12 -17l-60 -126c-4 -9 -9 -12 -17 -12h-18zM507 700c12 0 16 -8 10 -18l-208 -341v-326c0 -9 -6 -15 -15 -15h-32c-9 0 -15 6 -15 15v326l-208 341c-6 10 -2 18 10 18h35c8 0 14 -3 18 -10l176 -289
l176 289c4 7 10 10 18 10h35z" />
    <glyph glyph-name="Ycircumflex" unicode="&#x176;" horiz-adv-x="556" 
d="M164 784c-13 0 -16 8 -8 18l85 98c5 6 11 8 18 8h38c7 0 13 -2 18 -8l85 -98c8 -10 5 -18 -8 -18h-21c-7 0 -13 2 -18 8l-75 86l-75 -86c-5 -6 -11 -8 -18 -8h-21zM507 700c12 0 16 -8 10 -18l-208 -341v-326c0 -9 -6 -15 -15 -15h-32c-9 0 -15 6 -15 15v326l-208 341
c-6 10 -2 18 10 18h35c8 0 14 -3 18 -10l176 -289l176 289c4 7 10 10 18 10h35z" />
    <glyph glyph-name="Ydieresis" unicode="&#x178;" horiz-adv-x="556" 
d="M191 841c-21 0 -38 17 -38 37s17 37 38 37s38 -17 38 -37s-17 -37 -38 -37zM365 841c-20 0 -38 17 -38 37s18 37 38 37c21 0 38 -17 38 -37s-17 -37 -38 -37zM507 700c12 0 16 -8 10 -18l-208 -341v-326c0 -9 -6 -15 -15 -15h-32c-9 0 -15 6 -15 15v326l-208 341
c-6 10 -2 18 10 18h35c8 0 14 -3 18 -10l176 -289l176 289c4 7 10 10 18 10h35z" />
    <glyph glyph-name="Ygrave" unicode="&#x1ef2;" horiz-adv-x="556" 
d="M243 765l-60 126c-5 11 1 17 12 17h18c8 0 13 -3 17 -12l60 -126c5 -11 -1 -17 -12 -17h-18c-8 0 -13 3 -17 12zM507 700c12 0 16 -8 10 -18l-208 -341v-326c0 -9 -6 -15 -15 -15h-32c-9 0 -15 6 -15 15v326l-208 341c-6 10 -2 18 10 18h35c8 0 14 -3 18 -10l176 -289
l176 289c4 7 10 10 18 10h35z" />
    <glyph glyph-name="Z" unicode="Z" horiz-adv-x="547" 
d="M486 59c9 0 15 -6 15 -15v-29c0 -9 -6 -15 -15 -15h-425c-9 0 -15 6 -15 15v34c0 7 2 12 6 18l375 574h-356c-9 0 -15 6 -15 15v29c0 9 6 15 15 15h405c9 0 15 -6 15 -15v-34c0 -7 -2 -12 -6 -18l-375 -574h376z" />
    <glyph glyph-name="Zacute" unicode="&#x179;" horiz-adv-x="547" 
d="M349 908c11 0 17 -6 12 -17l-60 -126c-4 -9 -9 -12 -17 -12h-18c-11 0 -17 6 -12 17l60 126c4 9 9 12 17 12h18zM486 59c9 0 15 -6 15 -15v-29c0 -9 -6 -15 -15 -15h-425c-9 0 -15 6 -15 15v34c0 7 2 12 6 18l375 574h-356c-9 0 -15 6 -15 15v29c0 9 6 15 15 15h405
c9 0 15 -6 15 -15v-34c0 -7 -2 -12 -6 -18l-375 -574h376z" />
    <glyph glyph-name="Zcaron" unicode="&#x17d;" horiz-adv-x="547" 
d="M292 784h-38c-7 0 -13 2 -18 8l-85 98c-8 10 -5 18 8 18h21c7 0 13 -2 18 -8l75 -86l75 86c5 6 11 8 18 8h21c13 0 16 -8 8 -18l-85 -98c-5 -6 -11 -8 -18 -8zM486 59c9 0 15 -6 15 -15v-29c0 -9 -6 -15 -15 -15h-425c-9 0 -15 6 -15 15v34c0 7 2 12 6 18l375 574h-356
c-9 0 -15 6 -15 15v29c0 9 6 15 15 15h405c9 0 15 -6 15 -15v-34c0 -7 -2 -12 -6 -18l-375 -574h376z" />
    <glyph glyph-name="Zdotaccent" unicode="&#x17b;" horiz-adv-x="547" 
d="M273 841c-21 0 -38 17 -38 37s17 37 38 37s38 -17 38 -37s-17 -37 -38 -37zM486 59c9 0 15 -6 15 -15v-29c0 -9 -6 -15 -15 -15h-425c-9 0 -15 6 -15 15v34c0 7 2 12 6 18l375 574h-356c-9 0 -15 6 -15 15v29c0 9 6 15 15 15h405c9 0 15 -6 15 -15v-34
c0 -7 -2 -12 -6 -18l-375 -574h376z" />
    <glyph glyph-name="a" unicode="a" 
d="M503 490c9 0 15 -6 15 -15v-460c0 -9 -6 -15 -15 -15h-27c-9 0 -14 6 -15 15l-5 65c-38 -56 -100 -92 -179 -92c-141 0 -241 113 -241 256s100 256 241 256c80 0 142 -36 180 -93l4 68c1 9 6 15 15 15h27zM281 43c93 0 164 69 181 159l2 42l-2 43
c-17 90 -88 159 -181 159c-108 0 -187 -86 -187 -201c0 -116 79 -202 187 -202z" />
    <glyph glyph-name="aacute" unicode="&#xe1;" 
d="M276 543c-11 0 -17 6 -12 17l60 126c4 9 9 12 17 12h18c11 0 17 -6 12 -17l-60 -126c-4 -9 -9 -12 -17 -12h-18zM503 490c9 0 15 -6 15 -15v-460c0 -9 -6 -15 -15 -15h-27c-9 0 -14 6 -15 15l-5 65c-38 -56 -100 -92 -179 -92c-141 0 -241 113 -241 256s100 256 241 256
c80 0 142 -36 180 -93l4 68c1 9 6 15 15 15h27zM281 43c93 0 164 69 181 159l2 42l-2 43c-17 90 -88 159 -181 159c-108 0 -187 -86 -187 -201c0 -116 79 -202 187 -202z" />
    <glyph glyph-name="abreve" unicode="&#x103;" 
d="M283 569c-75 0 -125 50 -132 115c-1 10 4 15 14 15h15c9 0 14 -5 16 -14c8 -41 39 -71 87 -71s80 30 88 71c2 9 7 14 16 14h15c10 0 15 -5 14 -15c-7 -65 -57 -115 -133 -115zM503 490c9 0 15 -6 15 -15v-460c0 -9 -6 -15 -15 -15h-27c-9 0 -14 6 -15 15l-5 65
c-38 -56 -100 -92 -179 -92c-141 0 -241 113 -241 256s100 256 241 256c80 0 142 -36 180 -93l4 68c1 9 6 15 15 15h27zM281 43c93 0 164 69 181 159l2 42l-2 43c-17 90 -88 159 -181 159c-108 0 -187 -86 -187 -201c0 -116 79 -202 187 -202z" />
    <glyph glyph-name="uni01CE" unicode="&#x1ce;" 
d="M246 582l-85 98c-8 10 -5 18 8 18h21c7 0 13 -2 18 -8l75 -86l75 86c5 6 11 8 18 8h21c13 0 16 -8 8 -18l-85 -98c-5 -6 -11 -8 -18 -8h-38c-7 0 -13 2 -18 8zM503 490c9 0 15 -6 15 -15v-460c0 -9 -6 -15 -15 -15h-27c-9 0 -14 6 -15 15l-5 65
c-38 -56 -100 -92 -179 -92c-141 0 -241 113 -241 256s100 256 241 256c80 0 142 -36 180 -93l4 68c1 9 6 15 15 15h27zM281 43c93 0 164 69 181 159l2 42l-2 43c-17 90 -88 159 -181 159c-108 0 -187 -86 -187 -201c0 -116 79 -202 187 -202z" />
    <glyph glyph-name="acircumflex" unicode="&#xe2;" 
d="M169 574c-13 0 -16 8 -8 18l85 98c5 6 11 8 18 8h38c7 0 13 -2 18 -8l85 -98c8 -10 5 -18 -8 -18h-21c-7 0 -13 2 -18 8l-75 86l-75 -86c-5 -6 -11 -8 -18 -8h-21zM503 490c9 0 15 -6 15 -15v-460c0 -9 -6 -15 -15 -15h-27c-9 0 -14 6 -15 15l-5 65
c-38 -56 -100 -92 -179 -92c-141 0 -241 113 -241 256s100 256 241 256c80 0 142 -36 180 -93l4 68c1 9 6 15 15 15h27zM281 43c93 0 164 69 181 159l2 42l-2 43c-17 90 -88 159 -181 159c-108 0 -187 -86 -187 -201c0 -116 79 -202 187 -202z" />
    <glyph glyph-name="adieresis" unicode="&#xe4;" 
d="M196 631c-21 0 -38 17 -38 37s17 37 38 37s38 -17 38 -37s-17 -37 -38 -37zM370 631c-20 0 -38 17 -38 37s18 37 38 37c21 0 38 -17 38 -37s-17 -37 -38 -37zM503 490c9 0 15 -6 15 -15v-460c0 -9 -6 -15 -15 -15h-27c-9 0 -14 6 -15 15l-5 65c-38 -56 -100 -92 -179 -92
c-141 0 -241 113 -241 256s100 256 241 256c80 0 142 -36 180 -93l4 68c1 9 6 15 15 15h27zM281 43c93 0 164 69 181 159l2 42l-2 43c-17 90 -88 159 -181 159c-108 0 -187 -86 -187 -201c0 -116 79 -202 187 -202z" />
    <glyph glyph-name="agrave" unicode="&#xe0;" 
d="M248 555l-60 126c-5 11 1 17 12 17h18c8 0 13 -3 17 -12l60 -126c5 -11 -1 -17 -12 -17h-18c-8 0 -13 3 -17 12zM503 490c9 0 15 -6 15 -15v-460c0 -9 -6 -15 -15 -15h-27c-9 0 -14 6 -15 15l-5 65c-38 -56 -100 -92 -179 -92c-141 0 -241 113 -241 256s100 256 241 256
c80 0 142 -36 180 -93l4 68c1 9 6 15 15 15h27zM281 43c93 0 164 69 181 159l2 42l-2 43c-17 90 -88 159 -181 159c-108 0 -187 -86 -187 -201c0 -116 79 -202 187 -202z" />
    <glyph glyph-name="amacron" unicode="&#x101;" 
d="M151 647c-9 0 -15 6 -15 15v21c0 9 6 15 15 15h265c9 0 15 -6 15 -15v-21c0 -9 -6 -15 -15 -15h-265zM503 490c9 0 15 -6 15 -15v-460c0 -9 -6 -15 -15 -15h-27c-9 0 -14 6 -15 15l-5 65c-38 -56 -100 -92 -179 -92c-141 0 -241 113 -241 256s100 256 241 256
c80 0 142 -36 180 -93l4 68c1 9 6 15 15 15h27zM281 43c93 0 164 69 181 159l2 42l-2 43c-17 90 -88 159 -181 159c-108 0 -187 -86 -187 -201c0 -116 79 -202 187 -202z" />
    <glyph glyph-name="aogonek" unicode="&#x105;" horiz-adv-x="572" 
d="M515 0c-79 0 -120 -52 -120 -95c0 -50 36 -69 91 -57v-46c-43 -20 -147 -10 -147 90c0 71 59 117 121 137l-4 51c-38 -56 -100 -92 -179 -92c-141 0 -241 113 -241 256s100 256 241 256c80 0 142 -36 180 -93l4 68c1 9 6 15 15 15h27c9 0 15 -6 15 -15v-435h10zM281 43
c93 0 164 69 181 159l2 42l-2 43c-17 90 -88 159 -181 159c-108 0 -187 -86 -187 -201c0 -116 79 -202 187 -202z" />
    <glyph glyph-name="aring" unicode="&#xe5;" 
d="M284 567c-43 0 -76 33 -76 73s33 74 76 74c40 0 73 -34 73 -74s-33 -73 -73 -73zM284 668c-17 0 -29 -12 -29 -28c0 -15 12 -28 29 -28c15 0 28 13 28 28c0 16 -13 28 -28 28zM503 490c9 0 15 -6 15 -15v-460c0 -9 -6 -15 -15 -15h-27c-9 0 -14 6 -15 15l-5 65
c-38 -56 -100 -92 -179 -92c-141 0 -241 113 -241 256s100 256 241 256c80 0 142 -36 180 -93l4 68c1 9 6 15 15 15h27zM281 43c93 0 164 69 181 159l2 42l-2 43c-17 90 -88 159 -181 159c-108 0 -187 -86 -187 -201c0 -116 79 -202 187 -202z" />
    <glyph glyph-name="atilde" unicode="&#xe3;" 
d="M150 636c-6 0 -10 4 -9 12c5 44 38 67 79 67c66 0 83 -65 134 -65c25 0 36 18 41 32c2 6 5 9 11 9h13c6 0 10 -4 10 -10c-6 -46 -41 -69 -75 -69c-70 0 -87 65 -138 65c-27 0 -38 -18 -42 -32c-2 -6 -5 -9 -11 -9h-13zM503 490c9 0 15 -6 15 -15v-460
c0 -9 -6 -15 -15 -15h-27c-9 0 -14 6 -15 15l-5 65c-38 -56 -100 -92 -179 -92c-141 0 -241 113 -241 256s100 256 241 256c80 0 142 -36 180 -93l4 68c1 9 6 15 15 15h27zM281 43c93 0 164 69 181 159l2 42l-2 43c-17 90 -88 159 -181 159c-108 0 -187 -86 -187 -201
c0 -116 79 -202 187 -202z" />
    <glyph glyph-name="ae" unicode="&#xe6;" horiz-adv-x="969" 
d="M704 501c140 0 229 -113 229 -236c0 -32 -4 -47 -28 -47h-381c11 -99 83 -177 194 -177c66 0 110 25 141 53c7 6 13 10 21 3l13 -12c8 -8 9 -15 1 -23c-46 -48 -110 -75 -183 -75c-81 0 -149 36 -193 93v-65c0 -9 -6 -15 -15 -15h-27c-9 0 -14 6 -15 15l-5 65
c-38 -56 -100 -92 -179 -92c-141 0 -241 113 -241 256s100 256 241 256c80 0 142 -36 180 -93l4 68c1 9 6 15 15 15h27c9 0 15 -6 15 -15v-65c42 56 108 91 186 91zM703 447c-101 0 -170 -78 -179 -179h356c-2 97 -74 179 -177 179zM281 43c93 0 164 69 181 159l2 42l-2 43
c-17 90 -88 159 -181 159c-108 0 -187 -86 -187 -201c0 -116 79 -202 187 -202z" />
    <glyph glyph-name="b" unicode="b" 
d="M293 500c141 0 241 -113 241 -256s-100 -256 -241 -256c-79 0 -141 36 -179 92l-5 -65c-1 -9 -6 -15 -15 -15h-27c-9 0 -15 6 -15 15v700c0 9 6 15 15 15h30c9 0 15 -6 15 -15v-295l1 -13c38 57 100 93 180 93zM289 43c108 0 187 86 187 202c0 115 -79 201 -187 201
c-93 0 -164 -69 -181 -159l-2 -43l2 -42c17 -90 88 -159 181 -159z" />
    <glyph glyph-name="c" unicode="c" horiz-adv-x="506" 
d="M281 41c87 0 123 39 151 68c8 8 15 7 22 0l16 -14c6 -6 7 -14 1 -21c-46 -53 -110 -87 -190 -87c-141 0 -245 113 -245 257s104 257 245 257c78 0 141 -34 187 -87c6 -7 5 -15 -1 -21l-16 -13c-7 -7 -14 -8 -22 -1c-29 27 -63 68 -148 68c-110 0 -187 -87 -187 -203
s77 -203 187 -203z" />
    <glyph glyph-name="cacute" unicode="&#x107;" horiz-adv-x="544" 
d="M365 728c11 0 17 -6 12 -17l-60 -126c-4 -9 -9 -12 -17 -12h-18c-11 0 -17 6 -12 17l60 126c4 9 9 12 17 12h18zM281 41c87 0 123 39 151 68c8 8 15 7 22 0l16 -14c6 -6 7 -14 1 -21c-46 -53 -110 -87 -190 -87c-141 0 -245 113 -245 257s104 257 245 257
c78 0 141 -34 187 -87c6 -7 5 -15 -1 -21l-16 -13c-7 -7 -14 -8 -22 -1c-29 27 -63 68 -148 68c-110 0 -187 -87 -187 -203s77 -203 187 -203z" />
    <glyph glyph-name="ccaron" unicode="&#x10d;" horiz-adv-x="544" 
d="M292 576h-38c-7 0 -13 2 -18 8l-85 98c-8 10 -5 18 8 18h21c7 0 13 -2 18 -8l75 -86l75 86c5 6 11 8 18 8h21c13 0 16 -8 8 -18l-85 -98c-5 -6 -11 -8 -18 -8zM281 41c87 0 123 39 151 68c8 8 15 7 22 0l16 -14c6 -6 7 -14 1 -21c-46 -53 -110 -87 -190 -87
c-141 0 -245 113 -245 257s104 257 245 257c78 0 141 -34 187 -87c6 -7 5 -15 -1 -21l-16 -13c-7 -7 -14 -8 -22 -1c-29 27 -63 68 -148 68c-110 0 -187 -87 -187 -203s77 -203 187 -203z" />
    <glyph glyph-name="ccedilla" unicode="&#xe7;" horiz-adv-x="544" 
d="M470 95c6 -6 7 -14 1 -21c-38 -44 -88 -75 -149 -84l-29 -30c43 -3 79 -32 79 -76c0 -80 -78 -103 -145 -94c-6 1 -9 5 -9 11v24c0 6 4 10 11 10c55 -6 91 10 91 44c0 32 -42 49 -90 32c-7 -3 -12 0 -12 7v20c0 5 2 8 5 12l34 38c-129 12 -221 120 -221 256
c0 144 104 257 245 257c78 0 141 -34 187 -87c6 -7 5 -15 -1 -21l-16 -13c-7 -7 -14 -8 -22 -1c-29 27 -63 68 -148 68c-110 0 -187 -87 -187 -203s77 -203 187 -203c87 0 123 39 151 68c8 8 15 7 22 0z" />
    <glyph glyph-name="cdotaccent" unicode="&#x10b;" horiz-adv-x="544" 
d="M288 631c-21 0 -38 17 -38 37s17 37 38 37s38 -17 38 -37s-17 -37 -38 -37zM281 41c87 0 123 39 151 68c8 8 15 7 22 0l16 -14c6 -6 7 -14 1 -21c-46 -53 -110 -87 -190 -87c-141 0 -245 113 -245 257s104 257 245 257c78 0 141 -34 187 -87c6 -7 5 -15 -1 -21l-16 -13
c-7 -7 -14 -8 -22 -1c-29 27 -63 68 -148 68c-110 0 -187 -87 -187 -203s77 -203 187 -203z" />
    <glyph glyph-name="d" unicode="d" 
d="M503 730c9 0 15 -6 15 -15v-700c0 -9 -6 -15 -15 -15h-27c-9 0 -14 6 -15 15l-5 65c-38 -56 -100 -92 -179 -92c-141 0 -241 113 -241 256s100 256 241 256c80 0 142 -36 180 -93l1 13v295c0 9 6 15 15 15h30zM281 43c93 0 164 69 181 159l2 42l-2 43
c-17 90 -88 159 -181 159c-108 0 -187 -86 -187 -201c0 -116 79 -202 187 -202z" />
    <glyph glyph-name="eth" unicode="&#xf0;" 
d="M549 624c10 1 16 -4 16 -14v-20c0 -9 -5 -15 -14 -16l-33 -5v-554c0 -9 -6 -15 -15 -15h-27c-9 0 -14 6 -15 15l-5 65c-38 -56 -100 -92 -179 -92c-141 0 -241 113 -241 256s100 256 241 256c80 0 142 -36 180 -93l1 13v140l-90 -13c-10 -1 -16 4 -16 14v20
c0 9 5 15 14 16l92 14v104c0 9 6 15 15 15h30c9 0 15 -6 15 -15v-96zM281 43c93 0 164 69 181 159l2 42l-2 43c-17 90 -88 159 -181 159c-108 0 -187 -86 -187 -201c0 -116 79 -202 187 -202z" />
    <glyph glyph-name="dcaron" unicode="&#x10f;" horiz-adv-x="663" 
d="M503 730c9 0 15 -6 15 -15v-700c0 -9 -6 -15 -15 -15h-27c-9 0 -14 6 -15 15l-5 65c-38 -56 -100 -92 -179 -92c-141 0 -241 113 -241 256s100 256 241 256c80 0 142 -36 180 -93l1 13v295c0 9 6 15 15 15h30zM660 730c11 0 17 -6 12 -17l-60 -126c-4 -9 -9 -12 -17 -12
h-18c-11 0 -17 6 -12 17l60 126c4 9 9 12 17 12h18zM281 43c93 0 164 69 181 159l2 42l-2 43c-17 90 -88 159 -181 159c-108 0 -187 -86 -187 -201c0 -116 79 -202 187 -202z" />
    <glyph glyph-name="dcroat" unicode="&#x111;" horiz-adv-x="600" 
d="M580 633c9 0 15 -6 15 -15v-21c0 -9 -6 -15 -15 -15h-62v-567c0 -9 -6 -15 -15 -15h-27c-9 0 -14 6 -15 15l-5 65c-38 -56 -100 -92 -179 -92c-141 0 -241 113 -241 256s100 256 241 256c80 0 142 -36 180 -93l1 13v162h-143c-9 0 -15 6 -15 15v21c0 9 6 15 15 15h143v82
c0 9 6 15 15 15h30c9 0 15 -6 15 -15v-82h62zM281 43c93 0 164 69 181 159l2 42l-2 43c-17 90 -88 159 -181 159c-108 0 -187 -86 -187 -201c0 -116 79 -202 187 -202z" />
    <glyph glyph-name="e" unicode="e" horiz-adv-x="540" 
d="M275 501c140 0 229 -113 229 -236c0 -32 -4 -47 -28 -47h-381c11 -99 83 -177 194 -177c66 0 110 25 141 53c7 6 13 10 21 3l13 -12c8 -8 9 -15 1 -23c-46 -48 -110 -75 -183 -75c-144 0 -246 113 -246 257s98 257 239 257zM274 447c-101 0 -170 -78 -179 -179h356
c-2 97 -74 179 -177 179z" />
    <glyph glyph-name="eacute" unicode="&#xe9;" horiz-adv-x="540" 
d="M263 543c-11 0 -17 6 -12 17l60 126c4 9 9 12 17 12h18c11 0 17 -6 12 -17l-60 -126c-4 -9 -9 -12 -17 -12h-18zM275 501c140 0 229 -113 229 -236c0 -32 -4 -47 -28 -47h-381c11 -99 83 -177 194 -177c66 0 110 25 141 53c7 6 13 10 21 3l13 -12c8 -8 9 -15 1 -23
c-46 -48 -110 -75 -183 -75c-144 0 -246 113 -246 257s98 257 239 257zM274 447c-101 0 -170 -78 -179 -179h356c-2 97 -74 179 -177 179z" />
    <glyph glyph-name="ecaron" unicode="&#x11b;" horiz-adv-x="540" 
d="M233 582l-85 98c-8 10 -5 18 8 18h21c7 0 13 -2 18 -8l75 -86l75 86c5 6 11 8 18 8h21c13 0 16 -8 8 -18l-85 -98c-5 -6 -11 -8 -18 -8h-38c-7 0 -13 2 -18 8zM275 501c140 0 229 -113 229 -236c0 -32 -4 -47 -28 -47h-381c11 -99 83 -177 194 -177c66 0 110 25 141 53
c7 6 13 10 21 3l13 -12c8 -8 9 -15 1 -23c-46 -48 -110 -75 -183 -75c-144 0 -246 113 -246 257s98 257 239 257zM274 447c-101 0 -170 -78 -179 -179h356c-2 97 -74 179 -177 179z" />
    <glyph glyph-name="ecircumflex" unicode="&#xea;" horiz-adv-x="540" 
d="M156 574c-13 0 -16 8 -8 18l85 98c5 6 11 8 18 8h38c7 0 13 -2 18 -8l85 -98c8 -10 5 -18 -8 -18h-21c-7 0 -13 2 -18 8l-75 86l-75 -86c-5 -6 -11 -8 -18 -8h-21zM275 501c140 0 229 -113 229 -236c0 -32 -4 -47 -28 -47h-381c11 -99 83 -177 194 -177
c66 0 110 25 141 53c7 6 13 10 21 3l13 -12c8 -8 9 -15 1 -23c-46 -48 -110 -75 -183 -75c-144 0 -246 113 -246 257s98 257 239 257zM274 447c-101 0 -170 -78 -179 -179h356c-2 97 -74 179 -177 179z" />
    <glyph glyph-name="edieresis" unicode="&#xeb;" horiz-adv-x="540" 
d="M183 631c-21 0 -38 17 -38 37s17 37 38 37s38 -17 38 -37s-17 -37 -38 -37zM357 631c-20 0 -38 17 -38 37s18 37 38 37c21 0 38 -17 38 -37s-17 -37 -38 -37zM275 501c140 0 229 -113 229 -236c0 -32 -4 -47 -28 -47h-381c11 -99 83 -177 194 -177c66 0 110 25 141 53
c7 6 13 10 21 3l13 -12c8 -8 9 -15 1 -23c-46 -48 -110 -75 -183 -75c-144 0 -246 113 -246 257s98 257 239 257zM274 447c-101 0 -170 -78 -179 -179h356c-2 97 -74 179 -177 179z" />
    <glyph glyph-name="edotaccent" unicode="&#x117;" horiz-adv-x="540" 
d="M270 631c-21 0 -38 17 -38 37s17 37 38 37s38 -17 38 -37s-17 -37 -38 -37zM275 501c140 0 229 -113 229 -236c0 -32 -4 -47 -28 -47h-381c11 -99 83 -177 194 -177c66 0 110 25 141 53c7 6 13 10 21 3l13 -12c8 -8 9 -15 1 -23c-46 -48 -110 -75 -183 -75
c-144 0 -246 113 -246 257s98 257 239 257zM274 447c-101 0 -170 -78 -179 -179h356c-2 97 -74 179 -177 179z" />
    <glyph glyph-name="egrave" unicode="&#xe8;" horiz-adv-x="540" 
d="M235 555l-60 126c-5 11 1 17 12 17h18c8 0 13 -3 17 -12l60 -126c5 -11 -1 -17 -12 -17h-18c-8 0 -13 3 -17 12zM275 501c140 0 229 -113 229 -236c0 -32 -4 -47 -28 -47h-381c11 -99 83 -177 194 -177c66 0 110 25 141 53c7 6 13 10 21 3l13 -12c8 -8 9 -15 1 -23
c-46 -48 -110 -75 -183 -75c-144 0 -246 113 -246 257s98 257 239 257zM274 447c-101 0 -170 -78 -179 -179h356c-2 97 -74 179 -177 179z" />
    <glyph glyph-name="emacron" unicode="&#x113;" horiz-adv-x="540" 
d="M138 647c-9 0 -15 6 -15 15v21c0 9 6 15 15 15h265c9 0 15 -6 15 -15v-21c0 -9 -6 -15 -15 -15h-265zM275 501c140 0 229 -113 229 -236c0 -32 -4 -47 -28 -47h-381c11 -99 83 -177 194 -177c66 0 110 25 141 53c7 6 13 10 21 3l13 -12c8 -8 9 -15 1 -23
c-46 -48 -110 -75 -183 -75c-144 0 -246 113 -246 257s98 257 239 257zM274 447c-101 0 -170 -78 -179 -179h356c-2 97 -74 179 -177 179z" />
    <glyph glyph-name="eogonek" unicode="&#x119;" horiz-adv-x="540" 
d="M275 501c140 0 229 -113 229 -236c0 -32 -4 -47 -28 -47h-381c11 -99 83 -177 194 -177c66 0 110 25 141 53c7 6 13 10 21 3l13 -12c8 -8 9 -15 1 -23c-31 -32 -70 -55 -115 -67c-52 -18 -91 -56 -91 -99c0 -46 35 -65 91 -53v-46c-43 -20 -147 -10 -147 90
c0 45 24 77 54 101c-130 12 -221 120 -221 256c0 144 98 257 239 257zM274 447c-101 0 -170 -78 -179 -179h356c-2 97 -74 179 -177 179z" />
    <glyph glyph-name="f" unicode="f" horiz-adv-x="324" 
d="M341 689c4 -6 3 -8 -1 -12l-20 -19c-6 -7 -7 -5 -12 -2c-25 15 -41 28 -73 28c-54 0 -71 -26 -71 -74v-120h98c9 0 15 -6 15 -15v-22c0 -9 -6 -15 -15 -15h-98v-423c0 -9 -6 -15 -15 -15h-30c-9 0 -15 6 -15 15v423h-58c-9 0 -15 6 -15 15v22c0 9 6 15 15 15h58v121
c0 80 38 125 132 125c42 0 80 -17 105 -47z" />
    <glyph glyph-name="g" unicode="g" 
d="M503 490c9 0 15 -6 15 -15v-464c0 -151 -132 -209 -245 -209c-74 0 -136 17 -181 45c-8 5 -9 13 -5 21l9 17c4 8 12 10 20 6c40 -19 85 -34 153 -34c93 0 189 42 189 149v87c-39 -58 -101 -95 -181 -95c-141 0 -241 113 -241 251s100 251 241 251c80 0 142 -37 180 -93
l4 68c1 9 6 15 15 15h27zM281 53c94 0 166 71 182 160l3 37l-1 25c-12 94 -86 171 -184 171c-108 0 -187 -86 -187 -196c0 -111 79 -197 187 -197z" />
    <glyph glyph-name="gbreve" unicode="&#x11f;" 
d="M285 569c-75 0 -125 50 -132 115c-1 10 4 15 14 15h15c9 0 14 -5 16 -14c8 -41 39 -71 87 -71s80 30 88 71c2 9 7 14 16 14h15c10 0 15 -5 14 -15c-7 -65 -57 -115 -133 -115zM503 490c9 0 15 -6 15 -15v-464c0 -151 -132 -209 -245 -209c-74 0 -136 17 -181 45
c-8 5 -9 13 -5 21l9 17c4 8 12 10 20 6c40 -19 85 -34 153 -34c93 0 189 42 189 149v87c-39 -58 -101 -95 -181 -95c-141 0 -241 113 -241 251s100 251 241 251c80 0 142 -37 180 -93l4 68c1 9 6 15 15 15h27zM281 53c94 0 166 71 182 160l3 37l-1 25
c-12 94 -86 171 -184 171c-108 0 -187 -86 -187 -196c0 -111 79 -197 187 -197z" />
    <glyph glyph-name="gcommaaccent" unicode="&#x123;" 
d="M288 557c-23 0 -42 18 -42 51c0 50 23 85 42 109c1 2 3 3 5 3h11c3 0 5 -3 3 -6c-11 -22 -19 -43 -19 -74c24 0 42 -18 42 -42c0 -23 -18 -41 -42 -41zM503 490c9 0 15 -6 15 -15v-464c0 -151 -132 -209 -245 -209c-74 0 -136 17 -181 45c-8 5 -9 13 -5 21l9 17
c4 8 12 10 20 6c40 -19 85 -34 153 -34c93 0 189 42 189 149v87c-39 -58 -101 -95 -181 -95c-141 0 -241 113 -241 251s100 251 241 251c80 0 142 -37 180 -93l4 68c1 9 6 15 15 15h27zM281 53c94 0 166 71 182 160l3 37l-1 25c-12 94 -86 171 -184 171
c-108 0 -187 -86 -187 -196c0 -111 79 -197 187 -197z" />
    <glyph glyph-name="gdotaccent" unicode="&#x121;" 
d="M285 631c-21 0 -38 17 -38 37s17 37 38 37s38 -17 38 -37s-17 -37 -38 -37zM503 490c9 0 15 -6 15 -15v-464c0 -151 -132 -209 -245 -209c-74 0 -136 17 -181 45c-8 5 -9 13 -5 21l9 17c4 8 12 10 20 6c40 -19 85 -34 153 -34c93 0 189 42 189 149v87
c-39 -58 -101 -95 -181 -95c-141 0 -241 113 -241 251s100 251 241 251c80 0 142 -37 180 -93l4 68c1 9 6 15 15 15h27zM281 53c94 0 166 71 182 160l3 37l-1 25c-12 94 -86 171 -184 171c-108 0 -187 -86 -187 -196c0 -111 79 -197 187 -197z" />
    <glyph glyph-name="h" unicode="h" horiz-adv-x="502" 
d="M280 501c104 0 171 -61 171 -192v-294c0 -9 -6 -15 -15 -15h-30c-9 0 -15 6 -15 15v294c0 89 -43 140 -119 140c-103 0 -161 -102 -161 -122v-312c0 -9 -6 -15 -15 -15h-30c-9 0 -15 6 -15 15v700c0 9 6 15 15 15h30c9 0 15 -6 15 -15v-311c37 54 94 97 169 97z" />
    <glyph glyph-name="hbar" unicode="&#x127;" horiz-adv-x="506" 
d="M284 501c104 0 171 -61 171 -192v-294c0 -9 -6 -15 -15 -15h-30c-9 0 -15 6 -15 15v294c0 89 -43 140 -119 140c-103 0 -161 -102 -161 -122v-312c0 -9 -6 -15 -15 -15h-30c-9 0 -15 6 -15 15v569h-35c-9 0 -15 6 -15 15v21c0 9 6 15 15 15h35v80c0 9 6 15 15 15h30
c9 0 15 -6 15 -15v-80h170c9 0 15 -6 15 -15v-21c0 -9 -6 -15 -15 -15h-170v-180c37 54 94 97 169 97z" />
    <glyph glyph-name="i" unicode="i" horiz-adv-x="161" 
d="M80 613c-23 0 -41 18 -41 42c0 23 18 41 41 41c24 0 42 -18 42 -41c0 -24 -18 -42 -42 -42zM51 475c0 9 6 15 15 15h30c9 0 15 -6 15 -15v-460c0 -9 -6 -15 -15 -15h-30c-9 0 -15 6 -15 15v460z" />
    <glyph glyph-name="dotlessi" unicode="&#x131;" horiz-adv-x="163" 
d="M51 475c0 9 6 15 15 15h30c9 0 15 -6 15 -15v-460c0 -9 -6 -15 -15 -15h-30c-9 0 -15 6 -15 15v460z" />
    <glyph glyph-name="iacute" unicode="&#xed;" horiz-adv-x="163" 
d="M158 698c11 0 17 -6 12 -17l-60 -126c-4 -9 -9 -12 -17 -12h-18c-11 0 -17 6 -12 17l60 126c4 9 9 12 17 12h18zM51 475c0 9 6 15 15 15h30c9 0 15 -6 15 -15v-460c0 -9 -6 -15 -15 -15h-30c-9 0 -15 6 -15 15v460z" />
    <glyph glyph-name="uni01D0" unicode="&#x1d0;" horiz-adv-x="163" 
d="M101 574h-38c-7 0 -13 2 -18 8l-85 98c-8 10 -5 18 8 18h21c7 0 13 -2 18 -8l75 -86l75 86c5 6 11 8 18 8h21c13 0 16 -8 8 -18l-85 -98c-5 -6 -11 -8 -18 -8zM51 475c0 9 6 15 15 15h30c9 0 15 -6 15 -15v-460c0 -9 -6 -15 -15 -15h-30c-9 0 -15 6 -15 15v460z" />
    <glyph glyph-name="icircumflex" unicode="&#xee;" horiz-adv-x="163" 
d="M101 698c7 0 13 -2 18 -8l85 -98c8 -10 5 -18 -8 -18h-21c-7 0 -13 2 -18 8l-75 86l-75 -86c-5 -6 -11 -8 -18 -8h-21c-13 0 -16 8 -8 18l85 98c5 6 11 8 18 8h38zM51 475c0 9 6 15 15 15h30c9 0 15 -6 15 -15v-460c0 -9 -6 -15 -15 -15h-30c-9 0 -15 6 -15 15v460z" />
    <glyph glyph-name="idieresis" unicode="&#xef;" horiz-adv-x="163" 
d="M-5 631c-21 0 -38 17 -38 37s17 37 38 37s38 -17 38 -37s-17 -37 -38 -37zM169 631c-20 0 -38 17 -38 37s18 37 38 37c21 0 38 -17 38 -37s-17 -37 -38 -37zM51 475c0 9 6 15 15 15h30c9 0 15 -6 15 -15v-460c0 -9 -6 -15 -15 -15h-30c-9 0 -15 6 -15 15v460z" />
    <glyph glyph-name="i.loclTRK" horiz-adv-x="163" 
d="M82 631c-21 0 -38 17 -38 37s17 37 38 37s38 -17 38 -37s-17 -37 -38 -37zM51 475c0 9 6 15 15 15h30c9 0 15 -6 15 -15v-460c0 -9 -6 -15 -15 -15h-30c-9 0 -15 6 -15 15v460z" />
    <glyph glyph-name="igrave" unicode="&#xec;" horiz-adv-x="163" 
d="M-1 698h18c8 0 13 -3 17 -12l60 -126c5 -11 -1 -17 -12 -17h-18c-8 0 -13 3 -17 12l-60 126c-5 11 1 17 12 17zM51 475c0 9 6 15 15 15h30c9 0 15 -6 15 -15v-460c0 -9 -6 -15 -15 -15h-30c-9 0 -15 6 -15 15v460z" />
    <glyph glyph-name="ij" unicode="&#x133;" horiz-adv-x="368" 
d="M80 613c-23 0 -41 18 -41 42c0 23 18 41 41 41c24 0 42 -18 42 -41c0 -24 -18 -42 -42 -42zM288 613c-24 0 -42 18 -42 42c0 23 18 41 42 41c23 0 41 -18 41 -41c0 -24 -18 -42 -41 -42zM51 475c0 9 6 15 15 15h30c9 0 15 -6 15 -15v-460c0 -9 -6 -15 -15 -15h-30
c-9 0 -15 6 -15 15v460zM273 490h30c9 0 15 -6 15 -15v-471c0 -137 -57 -198 -152 -202c-6 0 -10 4 -11 9l-8 32c-2 6 1 11 8 11c76 5 103 52 103 150v471c0 9 6 15 15 15z" />
    <glyph glyph-name="imacron" unicode="&#x12b;" horiz-adv-x="163" 
d="M215 698c9 0 15 -6 15 -15v-21c0 -9 -6 -15 -15 -15h-265c-9 0 -15 6 -15 15v21c0 9 6 15 15 15h265zM51 475c0 9 6 15 15 15h30c9 0 15 -6 15 -15v-460c0 -9 -6 -15 -15 -15h-30c-9 0 -15 6 -15 15v460z" />
    <glyph glyph-name="iogonek" unicode="&#x12f;" horiz-adv-x="163" 
d="M82 631c-21 0 -38 17 -38 37s17 37 38 37s38 -17 38 -37s-17 -37 -38 -37zM96 490c9 0 15 -6 15 -15v-460c0 -9 -6 -15 -15 -15c-72 0 -120 -52 -120 -95c0 -50 36 -69 91 -57v-46c-43 -20 -147 -10 -147 90c0 79 70 126 131 142v441c0 9 6 15 15 15h30z" />
    <glyph glyph-name="j" unicode="j" horiz-adv-x="227" 
d="M147 613c-24 0 -42 18 -42 42c0 23 18 41 42 41c23 0 41 -18 41 -41c0 -24 -18 -42 -41 -42zM132 490h30c9 0 15 -6 15 -15v-471c0 -137 -57 -198 -152 -202c-6 0 -10 4 -11 9l-8 32c-2 6 1 11 8 11c76 5 103 52 103 150v471c0 9 6 15 15 15z" />
    <glyph glyph-name="uni0237" unicode="&#x237;" horiz-adv-x="216" 
d="M132 490h30c9 0 15 -6 15 -15v-471c0 -137 -57 -198 -152 -202c-6 0 -10 4 -11 9l-8 32c-2 6 1 11 8 11c76 5 103 52 103 150v471c0 9 6 15 15 15z" />
    <glyph glyph-name="k" unicode="k" horiz-adv-x="477" 
d="M458 18c8 -10 3 -18 -9 -18h-35c-8 0 -13 2 -18 9l-185 236l-100 -103v-127c0 -9 -6 -15 -15 -15h-30c-9 0 -15 6 -15 15v700c0 9 6 15 15 15h30c9 0 15 -6 15 -15v-503l258 270c5 6 12 8 19 8h34c13 0 17 -8 8 -18l-184 -190z" />
    <glyph glyph-name="kcommaaccent" unicode="&#x137;" horiz-adv-x="477" 
d="M458 18c8 -10 3 -18 -9 -18h-35c-8 0 -13 2 -18 9l-185 236l-100 -103v-127c0 -9 -6 -15 -15 -15h-30c-9 0 -15 6 -15 15v700c0 9 6 15 15 15h30c9 0 15 -6 15 -15v-503l258 270c5 6 12 8 19 8h34c13 0 17 -8 8 -18l-184 -190zM250 -38c23 0 42 -18 42 -51
c0 -50 -23 -85 -42 -109c-1 -2 -3 -3 -5 -3h-11c-3 0 -5 3 -3 6c11 22 19 43 19 74c-24 0 -42 18 -42 42c0 23 18 41 42 41z" />
    <glyph glyph-name="l" unicode="l" horiz-adv-x="163" 
d="M51 715c0 9 6 15 15 15h30c9 0 15 -6 15 -15v-700c0 -9 -6 -15 -15 -15h-30c-9 0 -15 6 -15 15v700z" />
    <glyph glyph-name="lacute" unicode="&#x13a;" horiz-adv-x="163" 
d="M158 938c11 0 17 -6 12 -17l-60 -126c-4 -9 -9 -12 -17 -12h-18c-11 0 -17 6 -12 17l60 126c4 9 9 12 17 12h18zM51 715c0 9 6 15 15 15h30c9 0 15 -6 15 -15v-700c0 -9 -6 -15 -15 -15h-30c-9 0 -15 6 -15 15v700z" />
    <glyph glyph-name="lcaron" unicode="&#x13e;" horiz-adv-x="266" 
d="M51 715c0 9 6 15 15 15h30c9 0 15 -6 15 -15v-700c0 -9 -6 -15 -15 -15h-30c-9 0 -15 6 -15 15v700zM209 729c23 0 42 -18 42 -51c0 -50 -23 -85 -42 -109c-1 -2 -3 -3 -5 -3h-11c-3 0 -5 3 -3 6c11 22 19 43 19 74c-24 0 -42 18 -42 42c0 23 18 41 42 41z" />
    <glyph glyph-name="lcommaaccent" unicode="&#x13c;" horiz-adv-x="163" 
d="M51 715c0 9 6 15 15 15h30c9 0 15 -6 15 -15v-700c0 -9 -6 -15 -15 -15h-30c-9 0 -15 6 -15 15v700zM84 -38c23 0 42 -18 42 -51c0 -50 -23 -85 -42 -109c-1 -2 -3 -3 -5 -3h-11c-3 0 -5 3 -3 6c11 22 19 43 19 74c-24 0 -42 18 -42 42c0 23 18 41 42 41z" />
    <glyph glyph-name="ldot" unicode="&#x140;" horiz-adv-x="270" 
d="M51 715c0 9 6 15 15 15h30c9 0 15 -6 15 -15v-700c0 -9 -6 -15 -15 -15h-30c-9 0 -15 6 -15 15v700zM197 329c-24 0 -42 18 -42 42c0 23 18 41 42 41c23 0 41 -18 41 -41c0 -24 -18 -42 -41 -42z" />
    <glyph glyph-name="lslash" unicode="&#x142;" horiz-adv-x="331" 
d="M296 513v-53l-113 -119v-326c0 -9 -6 -15 -15 -15h-30c-9 0 -15 6 -15 15v263l-88 -93v54l88 93v383c0 9 6 15 15 15h30c9 0 15 -6 15 -15v-320l112 118h1z" />
    <glyph glyph-name="m" unicode="m" horiz-adv-x="842" 
d="M621 501c103 0 170 -61 170 -192v-294c0 -9 -6 -15 -15 -15h-30c-9 0 -15 6 -15 15v294c0 89 -43 140 -119 140c-116 0 -161 -92 -161 -141v-293c0 -9 -6 -15 -15 -15h-30c-9 0 -15 6 -15 15v294c0 89 -43 140 -119 140c-103 0 -161 -102 -161 -122v-312
c0 -9 -6 -15 -15 -15h-30c-9 0 -15 6 -15 15v460c0 9 6 15 15 15h26c9 0 14 -6 15 -15l4 -70v-1c37 54 94 97 169 97c76 0 133 -33 157 -102c34 56 93 102 184 102z" />
    <glyph glyph-name="n" unicode="n" horiz-adv-x="502" 
d="M280 501c104 0 171 -61 171 -192v-294c0 -9 -6 -15 -15 -15h-30c-9 0 -15 6 -15 15v294c0 89 -43 140 -119 140c-103 0 -161 -102 -161 -122v-312c0 -9 -6 -15 -15 -15h-30c-9 0 -15 6 -15 15v460c0 9 6 15 15 15h26c9 0 14 -6 15 -15l4 -70v-1c37 54 94 97 169 97z" />
    <glyph glyph-name="nacute" unicode="&#x144;" horiz-adv-x="502" 
d="M245 543c-11 0 -17 6 -12 17l60 126c4 9 9 12 17 12h18c11 0 17 -6 12 -17l-60 -126c-4 -9 -9 -12 -17 -12h-18zM280 501c104 0 171 -61 171 -192v-294c0 -9 -6 -15 -15 -15h-30c-9 0 -15 6 -15 15v294c0 89 -43 140 -119 140c-103 0 -161 -102 -161 -122v-312
c0 -9 -6 -15 -15 -15h-30c-9 0 -15 6 -15 15v460c0 9 6 15 15 15h26c9 0 14 -6 15 -15l4 -70v-1c37 54 94 97 169 97z" />
    <glyph glyph-name="ncaron" unicode="&#x148;" horiz-adv-x="502" 
d="M215 582l-85 98c-8 10 -5 18 8 18h21c7 0 13 -2 18 -8l75 -86l75 86c5 6 11 8 18 8h21c13 0 16 -8 8 -18l-85 -98c-5 -6 -11 -8 -18 -8h-38c-7 0 -13 2 -18 8zM280 501c104 0 171 -61 171 -192v-294c0 -9 -6 -15 -15 -15h-30c-9 0 -15 6 -15 15v294
c0 89 -43 140 -119 140c-103 0 -161 -102 -161 -122v-312c0 -9 -6 -15 -15 -15h-30c-9 0 -15 6 -15 15v460c0 9 6 15 15 15h26c9 0 14 -6 15 -15l4 -70v-1c37 54 94 97 169 97z" />
    <glyph glyph-name="ncommaaccent" unicode="&#x146;" horiz-adv-x="502" 
d="M280 501c104 0 171 -61 171 -192v-294c0 -9 -6 -15 -15 -15h-30c-9 0 -15 6 -15 15v294c0 89 -43 140 -119 140c-103 0 -161 -102 -161 -122v-312c0 -9 -6 -15 -15 -15h-30c-9 0 -15 6 -15 15v460c0 9 6 15 15 15h26c9 0 14 -6 15 -15l4 -70v-1c37 54 94 97 169 97z
M254 -38c23 0 42 -18 42 -51c0 -50 -23 -85 -42 -109c-1 -2 -3 -3 -5 -3h-11c-3 0 -5 3 -3 6c11 22 19 43 19 74c-24 0 -42 18 -42 42c0 23 18 41 42 41z" />
    <glyph glyph-name="eng" unicode="&#x14b;" horiz-adv-x="502" 
d="M280 501c104 0 171 -61 171 -192v-305c0 -137 -57 -202 -152 -202c-6 0 -10 4 -11 9l-8 32c-2 6 1 11 8 11c76 0 103 52 103 150v305c0 89 -43 140 -119 140c-103 0 -161 -102 -161 -122v-312c0 -9 -6 -15 -15 -15h-30c-9 0 -15 6 -15 15v460c0 9 6 15 15 15h26
c9 0 14 -6 15 -15l4 -70v-1c37 54 94 97 169 97z" />
    <glyph glyph-name="ntilde" unicode="&#xf1;" horiz-adv-x="502" 
d="M119 636c-6 0 -10 4 -9 12c5 44 38 67 79 67c66 0 83 -65 134 -65c25 0 36 18 41 32c2 6 5 9 11 9h13c6 0 10 -4 10 -10c-6 -46 -41 -69 -75 -69c-70 0 -87 65 -138 65c-27 0 -38 -18 -42 -32c-2 -6 -5 -9 -11 -9h-13zM280 501c104 0 171 -61 171 -192v-294
c0 -9 -6 -15 -15 -15h-30c-9 0 -15 6 -15 15v294c0 89 -43 140 -119 140c-103 0 -161 -102 -161 -122v-312c0 -9 -6 -15 -15 -15h-30c-9 0 -15 6 -15 15v460c0 9 6 15 15 15h26c9 0 14 -6 15 -15l4 -70v-1c37 54 94 97 169 97z" />
    <glyph glyph-name="o" unicode="o" horiz-adv-x="566" 
d="M283 -13c-140 0 -247 112 -247 257s107 257 247 257s246 -112 246 -257s-106 -257 -246 -257zM283 41c106 0 189 85 189 203s-83 203 -189 203c-107 0 -189 -85 -189 -203s82 -203 189 -203z" />
    <glyph glyph-name="oacute" unicode="&#xf3;" horiz-adv-x="566" 
d="M359 698c11 0 17 -6 12 -17l-60 -126c-4 -9 -9 -12 -17 -12h-18c-11 0 -17 6 -12 17l60 126c4 9 9 12 17 12h18zM283 -13c-140 0 -247 112 -247 257s107 257 247 257s246 -112 246 -257s-106 -257 -246 -257zM283 41c106 0 189 85 189 203s-83 203 -189 203
c-107 0 -189 -85 -189 -203s82 -203 189 -203z" />
    <glyph glyph-name="uni01D2" unicode="&#x1d2;" horiz-adv-x="566" 
d="M302 574h-38c-7 0 -13 2 -18 8l-85 98c-8 10 -5 18 8 18h21c7 0 13 -2 18 -8l75 -86l75 86c5 6 11 8 18 8h21c13 0 16 -8 8 -18l-85 -98c-5 -6 -11 -8 -18 -8zM283 -13c-140 0 -247 112 -247 257s107 257 247 257s246 -112 246 -257s-106 -257 -246 -257zM283 41
c106 0 189 85 189 203s-83 203 -189 203c-107 0 -189 -85 -189 -203s82 -203 189 -203z" />
    <glyph glyph-name="ocircumflex" unicode="&#xf4;" horiz-adv-x="566" 
d="M302 698c7 0 13 -2 18 -8l85 -98c8 -10 5 -18 -8 -18h-21c-7 0 -13 2 -18 8l-75 86l-75 -86c-5 -6 -11 -8 -18 -8h-21c-13 0 -16 8 -8 18l85 98c5 6 11 8 18 8h38zM283 -13c-140 0 -247 112 -247 257s107 257 247 257s246 -112 246 -257s-106 -257 -246 -257zM283 41
c106 0 189 85 189 203s-83 203 -189 203c-107 0 -189 -85 -189 -203s82 -203 189 -203z" />
    <glyph glyph-name="odieresis" unicode="&#xf6;" horiz-adv-x="566" 
d="M196 631c-21 0 -38 17 -38 37s17 37 38 37s38 -17 38 -37s-17 -37 -38 -37zM370 631c-20 0 -38 17 -38 37s18 37 38 37c21 0 38 -17 38 -37s-17 -37 -38 -37zM283 -13c-140 0 -247 112 -247 257s107 257 247 257s246 -112 246 -257s-106 -257 -246 -257zM283 41
c106 0 189 85 189 203s-83 203 -189 203c-107 0 -189 -85 -189 -203s82 -203 189 -203z" />
    <glyph glyph-name="ograve" unicode="&#xf2;" horiz-adv-x="566" 
d="M200 698h18c8 0 13 -3 17 -12l60 -126c5 -11 -1 -17 -12 -17h-18c-8 0 -13 3 -17 12l-60 126c-5 11 1 17 12 17zM283 -13c-140 0 -247 112 -247 257s107 257 247 257s246 -112 246 -257s-106 -257 -246 -257zM283 41c106 0 189 85 189 203s-83 203 -189 203
c-107 0 -189 -85 -189 -203s82 -203 189 -203z" />
    <glyph glyph-name="ohungarumlaut" unicode="&#x151;" horiz-adv-x="566" 
d="M253 698c11 0 17 -6 12 -17l-60 -126c-4 -9 -9 -12 -17 -12h-18c-11 0 -17 6 -12 17l60 126c4 9 9 12 17 12h18zM388 698c11 0 17 -6 12 -17l-60 -126c-4 -9 -9 -12 -17 -12h-18c-11 0 -17 6 -12 17l60 126c4 9 9 12 17 12h18zM283 -13c-140 0 -247 112 -247 257
s107 257 247 257s246 -112 246 -257s-106 -257 -246 -257zM283 41c106 0 189 85 189 203s-83 203 -189 203c-107 0 -189 -85 -189 -203s82 -203 189 -203z" />
    <glyph glyph-name="omacron" unicode="&#x14d;" horiz-adv-x="566" 
d="M416 698c9 0 15 -6 15 -15v-21c0 -9 -6 -15 -15 -15h-265c-9 0 -15 6 -15 15v21c0 9 6 15 15 15h265zM283 -13c-140 0 -247 112 -247 257s107 257 247 257s246 -112 246 -257s-106 -257 -246 -257zM283 41c106 0 189 85 189 203s-83 203 -189 203
c-107 0 -189 -85 -189 -203s82 -203 189 -203z" />
    <glyph glyph-name="uni01EB" unicode="&#x1eb;" horiz-adv-x="566" 
d="M325 -10c-40 -20 -69 -53 -69 -89c0 -46 36 -65 91 -53v-46c-43 -20 -147 -10 -147 90c0 42 21 74 50 97c-124 16 -214 122 -214 255c0 145 107 257 247 257s246 -112 246 -257c0 -130 -85 -234 -204 -254zM94 244c0 -118 82 -203 189 -203c106 0 189 85 189 203
s-83 203 -189 203c-107 0 -189 -85 -189 -203z" />
    <glyph glyph-name="oslash" unicode="&#xf8;" horiz-adv-x="566" 
d="M412 464c71 -44 117 -125 117 -220c0 -145 -106 -257 -246 -257c-29 0 -57 5 -83 14l-27 -60c-3 -7 -9 -11 -17 -11h-25c-11 0 -16 7 -11 18l34 75c-72 44 -118 125 -118 221c0 145 107 257 247 257c29 0 57 -5 83 -14l27 60c3 7 9 11 17 11h26c11 0 16 -7 11 -18z
M94 244c0 -74 32 -135 83 -171l166 364c-19 7 -39 10 -60 10c-107 0 -189 -85 -189 -203zM283 41c106 0 189 85 189 203c0 74 -32 135 -83 170l-166 -363c19 -7 39 -10 60 -10z" />
    <glyph glyph-name="otilde" unicode="&#xf5;" horiz-adv-x="566" 
d="M220 715c66 0 83 -65 134 -65c25 0 36 18 41 32c2 6 5 9 11 9h13c6 0 10 -4 10 -10c-6 -46 -41 -69 -75 -69c-70 0 -87 65 -138 65c-27 0 -38 -18 -42 -32c-2 -6 -5 -9 -11 -9h-13c-6 0 -10 4 -9 12c5 44 38 67 79 67zM283 -13c-140 0 -247 112 -247 257s107 257 247 257
s246 -112 246 -257s-106 -257 -246 -257zM283 41c106 0 189 85 189 203s-83 203 -189 203c-107 0 -189 -85 -189 -203s82 -203 189 -203z" />
    <glyph glyph-name="oe" unicode="&#x153;" horiz-adv-x="976" 
d="M711 501c140 0 229 -113 229 -236c0 -32 -4 -47 -28 -47h-381c11 -99 83 -177 194 -177c66 0 110 25 141 53c7 6 13 10 21 3l13 -12c8 -8 9 -15 1 -23c-46 -48 -110 -75 -183 -75c-99 0 -178 53 -218 133c-40 -80 -121 -133 -217 -133c-140 0 -247 112 -247 257
s107 257 247 257c96 0 176 -53 217 -132c38 79 115 132 211 132zM283 41c106 0 189 85 189 203s-83 203 -189 203c-107 0 -189 -85 -189 -203s82 -203 189 -203zM710 447c-101 0 -170 -78 -179 -179h356c-2 97 -74 179 -177 179z" />
    <glyph glyph-name="p" unicode="p" 
d="M293 500c141 0 241 -113 241 -256s-100 -256 -241 -256c-79 0 -141 36 -179 92l-3 -37v-218c0 -9 -6 -15 -15 -15h-30c-9 0 -15 6 -15 15v300c0 2 0 4 1 6v344c0 9 6 15 15 15h27c9 0 14 -6 15 -15l4 -68c38 57 100 93 180 93zM289 43c108 0 187 86 187 202
c0 115 -79 201 -187 201c-93 0 -164 -69 -181 -159l-2 -43l2 -42c17 -90 88 -159 181 -159z" />
    <glyph glyph-name="thorn" unicode="&#xfe;" horiz-adv-x="577" 
d="M301 500c141 0 241 -113 241 -256s-100 -256 -241 -256h-4h-4c-74 0 -133 32 -172 82l-2 -27v-218c0 -9 -6 -15 -15 -15h-30c-9 0 -15 6 -15 15v177c-4 2 -7 7 -7 13v700c0 9 6 15 15 15h30c9 0 15 -6 15 -15v-229c3 -2 4 -6 5 -11l3 -58c39 51 98 83 173 83h4h4z
M116 202c17 -89 86 -157 177 -159c106 2 183 87 183 202c0 114 -77 199 -183 201c-91 -2 -160 -70 -177 -159l-2 -43z" />
    <glyph glyph-name="q" unicode="q" 
d="M518 131c1 -2 1 -4 1 -6v-300c0 -9 -6 -15 -15 -15h-30c-9 0 -15 6 -15 15v218l-3 37c-38 -56 -100 -92 -179 -92c-141 0 -241 113 -241 256s100 256 241 256c80 0 142 -36 180 -93l4 68c1 9 6 15 15 15h27c9 0 15 -6 15 -15v-344zM281 43c93 0 164 69 181 159l2 42
l-2 43c-17 90 -88 159 -181 159c-108 0 -187 -86 -187 -201c0 -116 79 -202 187 -202z" />
    <glyph glyph-name="r" unicode="r" horiz-adv-x="299" 
d="M288 487c5 -3 6 -7 2 -15l-12 -25c-4 -7 -9 -8 -17 -6c-9 2 -18 5 -39 5c-60 0 -111 -46 -111 -110v-321c0 -9 -6 -15 -15 -15h-30c-9 0 -15 6 -15 15v460c0 9 6 15 15 15h25c9 0 14 -6 15 -15l4 -41c28 40 68 67 120 67c23 0 44 -5 58 -14z" />
    <glyph glyph-name="racute" unicode="&#x155;" horiz-adv-x="299" 
d="M139 543c-11 0 -17 6 -12 17l60 126c4 9 9 12 17 12h18c11 0 17 -6 12 -17l-60 -126c-4 -9 -9 -12 -17 -12h-18zM288 487c5 -3 6 -7 2 -15l-12 -25c-4 -7 -9 -8 -17 -6c-9 2 -18 5 -39 5c-60 0 -111 -46 -111 -110v-321c0 -9 -6 -15 -15 -15h-30c-9 0 -15 6 -15 15v460
c0 9 6 15 15 15h25c9 0 14 -6 15 -15l4 -41c28 40 68 67 120 67c23 0 44 -5 58 -14z" />
    <glyph glyph-name="rcaron" unicode="&#x159;" horiz-adv-x="299" 
d="M127 574c-7 0 -13 2 -18 8l-85 98c-8 10 -5 18 8 18h21c7 0 13 -2 18 -8l75 -86l75 86c5 6 11 8 18 8h21c13 0 16 -8 8 -18l-85 -98c-5 -6 -11 -8 -18 -8h-38zM288 487c5 -3 6 -7 2 -15l-12 -25c-4 -7 -9 -8 -17 -6c-9 2 -18 5 -39 5c-60 0 -111 -46 -111 -110v-321
c0 -9 -6 -15 -15 -15h-30c-9 0 -15 6 -15 15v460c0 9 6 15 15 15h25c9 0 14 -6 15 -15l4 -41c28 40 68 67 120 67c23 0 44 -5 58 -14z" />
    <glyph glyph-name="rcommaaccent" unicode="&#x157;" horiz-adv-x="299" 
d="M288 487c5 -3 6 -7 2 -15l-12 -25c-4 -7 -9 -8 -17 -6c-9 2 -18 5 -39 5c-60 0 -111 -46 -111 -110v-321c0 -9 -6 -15 -15 -15h-30c-9 0 -15 6 -15 15v460c0 9 6 15 15 15h25c9 0 14 -6 15 -15l4 -41c28 40 68 67 120 67c23 0 44 -5 58 -14zM84 -38c23 0 42 -18 42 -51
c0 -50 -23 -85 -42 -109c-1 -2 -3 -3 -5 -3h-11c-3 0 -5 3 -3 6c11 22 19 43 19 74c-24 0 -42 18 -42 42c0 23 18 41 42 41z" />
    <glyph glyph-name="s" unicode="s" horiz-adv-x="412" 
d="M102 371c0 -119 278 -78 278 -250c0 -80 -80 -134 -164 -134c-81 0 -146 41 -181 82c-6 7 -6 13 -1 19l18 20c7 9 11 7 20 -2c21 -22 75 -65 143 -65c65 0 107 31 107 80c0 128 -278 86 -278 250c0 75 67 130 155 130c49 0 113 -26 154 -74c6 -7 4 -14 -1 -21l-11 -14
c-6 -8 -14 -7 -22 1c-39 36 -72 55 -123 55c-37 0 -94 -17 -94 -77z" />
    <glyph glyph-name="sacute" unicode="&#x15b;" horiz-adv-x="412" 
d="M282 698c11 0 17 -6 12 -17l-60 -126c-4 -9 -9 -12 -17 -12h-18c-11 0 -17 6 -12 17l60 126c4 9 9 12 17 12h18zM102 371c0 -119 278 -78 278 -250c0 -80 -80 -134 -164 -134c-81 0 -146 41 -181 82c-6 7 -6 13 -1 19l18 20c7 9 11 7 20 -2c21 -22 75 -65 143 -65
c65 0 107 31 107 80c0 128 -278 86 -278 250c0 75 67 130 155 130c49 0 113 -26 154 -74c6 -7 4 -14 -1 -21l-11 -14c-6 -8 -14 -7 -22 1c-39 36 -72 55 -123 55c-37 0 -94 -17 -94 -77z" />
    <glyph glyph-name="scaron" unicode="&#x161;" horiz-adv-x="412" 
d="M225 574h-38c-7 0 -13 2 -18 8l-85 98c-8 10 -5 18 8 18h21c7 0 13 -2 18 -8l75 -86l75 86c5 6 11 8 18 8h21c13 0 16 -8 8 -18l-85 -98c-5 -6 -11 -8 -18 -8zM102 371c0 -119 278 -78 278 -250c0 -80 -80 -134 -164 -134c-81 0 -146 41 -181 82c-6 7 -6 13 -1 19l18 20
c7 9 11 7 20 -2c21 -22 75 -65 143 -65c65 0 107 31 107 80c0 128 -278 86 -278 250c0 75 67 130 155 130c49 0 113 -26 154 -74c6 -7 4 -14 -1 -21l-11 -14c-6 -8 -14 -7 -22 1c-39 36 -72 55 -123 55c-37 0 -94 -17 -94 -77z" />
    <glyph glyph-name="scedilla" unicode="&#x15f;" horiz-adv-x="412" 
d="M380 121c0 -75 -71 -127 -149 -133l-26 -28c43 -3 79 -32 79 -76c0 -80 -78 -103 -145 -94c-6 1 -9 5 -9 11v24c0 6 4 10 11 10c55 -6 91 10 91 44c0 32 -42 49 -90 32c-7 -3 -12 0 -12 7v20c0 5 2 8 5 12l37 41c-60 11 -109 45 -137 78c-6 7 -6 13 -1 19l18 20
c7 9 11 7 20 -2c21 -22 75 -65 143 -65c65 0 107 31 107 80c0 128 -278 86 -278 250c0 75 67 130 155 130c49 0 113 -26 154 -74c6 -7 4 -14 -1 -21l-11 -14c-6 -8 -14 -7 -22 1c-39 36 -72 55 -123 55c-37 0 -94 -17 -94 -77c0 -119 278 -78 278 -250z" />
    <glyph glyph-name="scommaaccent" unicode="&#x219;" horiz-adv-x="412" 
d="M102 371c0 -119 278 -78 278 -250c0 -80 -80 -134 -164 -134c-81 0 -146 41 -181 82c-6 7 -6 13 -1 19l18 20c7 9 11 7 20 -2c21 -22 75 -65 143 -65c65 0 107 31 107 80c0 128 -278 86 -278 250c0 75 67 130 155 130c49 0 113 -26 154 -74c6 -7 4 -14 -1 -21l-11 -14
c-6 -8 -14 -7 -22 1c-39 36 -72 55 -123 55c-37 0 -94 -17 -94 -77zM208 -38c23 0 42 -18 42 -51c0 -50 -23 -85 -42 -109c-1 -2 -3 -3 -5 -3h-11c-3 0 -5 3 -3 6c11 22 19 43 19 74c-24 0 -42 18 -42 42c0 23 18 41 42 41z" />
    <glyph glyph-name="germandbls" unicode="&#xdf;" horiz-adv-x="561" 
d="M369 383c108 -22 161 -91 161 -183c0 -138 -90 -200 -276 -200h-65c-9 0 -15 6 -15 15v24c0 9 6 15 15 15h65c145 0 218 35 218 148c0 99 -81 150 -214 150h-69c-9 0 -15 6 -15 15v24c0 9 6 15 15 15h69c104 0 174 43 174 133c0 71 -56 110 -163 110
c-120 0 -148 -55 -148 -122v-512c0 -9 -6 -15 -15 -15h-30c-9 0 -15 6 -15 15v512c0 99 65 173 208 173c139 0 221 -65 221 -165c0 -70 -39 -126 -121 -152z" />
    <glyph glyph-name="t" unicode="t" horiz-adv-x="293" 
d="M246 490c9 0 15 -6 15 -15v-22c0 -9 -6 -15 -15 -15h-70v-423c0 -9 -6 -15 -15 -15h-30c-9 0 -15 6 -15 15v423h-70c-9 0 -15 6 -15 15v22c0 9 6 15 15 15h70v135c0 9 6 15 15 15h30c9 0 15 -6 15 -15v-135h70z" />
    <glyph glyph-name="tbar" unicode="&#x167;" horiz-adv-x="293" 
d="M246 438h-70v-77h70c9 0 15 -6 15 -15v-23c0 -9 -6 -15 -15 -15h-70v-293c0 -9 -6 -15 -15 -15h-30c-9 0 -15 6 -15 15v293h-70c-9 0 -15 6 -15 15v23c0 9 6 15 15 15h70v77h-70c-9 0 -15 6 -15 15v22c0 9 6 15 15 15h70v135c0 9 6 15 15 15h30c9 0 15 -6 15 -15v-135h70
c9 0 15 -6 15 -15v-22c0 -9 -6 -15 -15 -15z" />
    <glyph glyph-name="tcaron" unicode="&#x165;" horiz-adv-x="325" 
d="M306 701c11 0 17 -6 12 -17l-60 -126c-4 -9 -9 -12 -17 -12h-18c-11 0 -17 6 -12 17l60 126c4 9 9 12 17 12h18zM246 490c9 0 15 -6 15 -15v-22c0 -9 -6 -15 -15 -15h-70v-423c0 -9 -6 -15 -15 -15h-30c-9 0 -15 6 -15 15v423h-70c-9 0 -15 6 -15 15v22c0 9 6 15 15 15
h70v135c0 9 6 15 15 15h30c9 0 15 -6 15 -15v-135h70z" />
    <glyph glyph-name="uni0163" unicode="&#x163;" horiz-adv-x="293" 
d="M246 490c9 0 15 -6 15 -15v-22c0 -9 -6 -15 -15 -15h-70v-423c0 -2 0 -3 -1 -5h3l-38 -40c43 -3 79 -32 79 -76c0 -80 -78 -103 -145 -94c-6 1 -9 5 -9 11v24c0 6 4 10 11 10c55 -6 91 10 91 44c0 32 -42 49 -90 32c-7 -3 -12 0 -12 7v20c0 5 2 8 5 12l45 50h2
c-1 2 -1 3 -1 5v423h-70c-9 0 -15 6 -15 15v22c0 9 6 15 15 15h70v135c0 9 6 15 15 15h30c9 0 15 -6 15 -15v-135h70z" />
    <glyph glyph-name="uni021B" unicode="&#x21b;" horiz-adv-x="293" 
d="M246 490c9 0 15 -6 15 -15v-22c0 -9 -6 -15 -15 -15h-70v-423c0 -9 -6 -15 -15 -15h-30c-9 0 -15 6 -15 15v423h-70c-9 0 -15 6 -15 15v22c0 9 6 15 15 15h70v135c0 9 6 15 15 15h30c9 0 15 -6 15 -15v-135h70zM143 -28c23 0 42 -18 42 -51c0 -50 -23 -85 -42 -109
c-1 -2 -3 -3 -5 -3h-11c-3 0 -5 3 -3 6c11 22 19 43 19 74c-24 0 -42 18 -42 42c0 23 18 41 42 41z" />
    <glyph glyph-name="u" unicode="u" horiz-adv-x="497" 
d="M431 490c9 0 15 -6 15 -15v-460c0 -9 -6 -15 -15 -15h-26c-9 0 -14 6 -15 15l-4 61c-34 -50 -86 -89 -160 -89c-112 0 -180 63 -180 194v294c0 9 6 15 15 15h30c9 0 15 -6 15 -15v-294c0 -89 44 -143 124 -143c100 0 156 98 156 128v309c0 9 6 15 15 15h30z" />
    <glyph glyph-name="uacute" unicode="&#xfa;" horiz-adv-x="497" 
d="M240 543c-11 0 -17 6 -12 17l60 126c4 9 9 12 17 12h18c11 0 17 -6 12 -17l-60 -126c-4 -9 -9 -12 -17 -12h-18zM431 490c9 0 15 -6 15 -15v-460c0 -9 -6 -15 -15 -15h-26c-9 0 -14 6 -15 15l-4 61c-34 -50 -86 -89 -160 -89c-112 0 -180 63 -180 194v294c0 9 6 15 15 15
h30c9 0 15 -6 15 -15v-294c0 -89 44 -143 124 -143c100 0 156 98 156 128v309c0 9 6 15 15 15h30z" />
    <glyph glyph-name="ubreve" unicode="&#x16d;" horiz-adv-x="497" 
d="M247 569c-75 0 -125 50 -132 115c-1 10 4 15 14 15h15c9 0 14 -5 16 -14c8 -41 39 -71 87 -71s80 30 88 71c2 9 7 14 16 14h15c10 0 15 -5 14 -15c-7 -65 -57 -115 -133 -115zM431 490c9 0 15 -6 15 -15v-460c0 -9 -6 -15 -15 -15h-26c-9 0 -14 6 -15 15l-4 61
c-34 -50 -86 -89 -160 -89c-112 0 -180 63 -180 194v294c0 9 6 15 15 15h30c9 0 15 -6 15 -15v-294c0 -89 44 -143 124 -143c100 0 156 98 156 128v309c0 9 6 15 15 15h30z" />
    <glyph glyph-name="uni01D4" unicode="&#x1d4;" horiz-adv-x="497" 
d="M210 582l-85 98c-8 10 -5 18 8 18h21c7 0 13 -2 18 -8l75 -86l75 86c5 6 11 8 18 8h21c13 0 16 -8 8 -18l-85 -98c-5 -6 -11 -8 -18 -8h-38c-7 0 -13 2 -18 8zM431 490c9 0 15 -6 15 -15v-460c0 -9 -6 -15 -15 -15h-26c-9 0 -14 6 -15 15l-4 61c-34 -50 -86 -89 -160 -89
c-112 0 -180 63 -180 194v294c0 9 6 15 15 15h30c9 0 15 -6 15 -15v-294c0 -89 44 -143 124 -143c100 0 156 98 156 128v309c0 9 6 15 15 15h30z" />
    <glyph glyph-name="ucircumflex" unicode="&#xfb;" horiz-adv-x="497" 
d="M133 574c-13 0 -16 8 -8 18l85 98c5 6 11 8 18 8h38c7 0 13 -2 18 -8l85 -98c8 -10 5 -18 -8 -18h-21c-7 0 -13 2 -18 8l-75 86l-75 -86c-5 -6 -11 -8 -18 -8h-21zM431 490c9 0 15 -6 15 -15v-460c0 -9 -6 -15 -15 -15h-26c-9 0 -14 6 -15 15l-4 61
c-34 -50 -86 -89 -160 -89c-112 0 -180 63 -180 194v294c0 9 6 15 15 15h30c9 0 15 -6 15 -15v-294c0 -89 44 -143 124 -143c100 0 156 98 156 128v309c0 9 6 15 15 15h30z" />
    <glyph glyph-name="udieresis" unicode="&#xfc;" horiz-adv-x="497" 
d="M160 631c-21 0 -38 17 -38 37s17 37 38 37s38 -17 38 -37s-17 -37 -38 -37zM334 631c-20 0 -38 17 -38 37s18 37 38 37c21 0 38 -17 38 -37s-17 -37 -38 -37zM431 490c9 0 15 -6 15 -15v-460c0 -9 -6 -15 -15 -15h-26c-9 0 -14 6 -15 15l-4 61c-34 -50 -86 -89 -160 -89
c-112 0 -180 63 -180 194v294c0 9 6 15 15 15h30c9 0 15 -6 15 -15v-294c0 -89 44 -143 124 -143c100 0 156 98 156 128v309c0 9 6 15 15 15h30z" />
    <glyph glyph-name="ugrave" unicode="&#xf9;" horiz-adv-x="497" 
d="M212 555l-60 126c-5 11 1 17 12 17h18c8 0 13 -3 17 -12l60 -126c5 -11 -1 -17 -12 -17h-18c-8 0 -13 3 -17 12zM431 490c9 0 15 -6 15 -15v-460c0 -9 -6 -15 -15 -15h-26c-9 0 -14 6 -15 15l-4 61c-34 -50 -86 -89 -160 -89c-112 0 -180 63 -180 194v294c0 9 6 15 15 15
h30c9 0 15 -6 15 -15v-294c0 -89 44 -143 124 -143c100 0 156 98 156 128v309c0 9 6 15 15 15h30z" />
    <glyph glyph-name="uhungarumlaut" unicode="&#x171;" horiz-adv-x="497" 
d="M134 543c-11 0 -17 6 -12 17l60 126c4 9 9 12 17 12h18c11 0 17 -6 12 -17l-60 -126c-4 -9 -9 -12 -17 -12h-18zM269 543c-11 0 -17 6 -12 17l60 126c4 9 9 12 17 12h18c11 0 17 -6 12 -17l-60 -126c-4 -9 -9 -12 -17 -12h-18zM431 490c9 0 15 -6 15 -15v-460
c0 -9 -6 -15 -15 -15h-26c-9 0 -14 6 -15 15l-4 61c-34 -50 -86 -89 -160 -89c-112 0 -180 63 -180 194v294c0 9 6 15 15 15h30c9 0 15 -6 15 -15v-294c0 -89 44 -143 124 -143c100 0 156 98 156 128v309c0 9 6 15 15 15h30z" />
    <glyph glyph-name="umacron" unicode="&#x16b;" horiz-adv-x="497" 
d="M115 647c-9 0 -15 6 -15 15v21c0 9 6 15 15 15h265c9 0 15 -6 15 -15v-21c0 -9 -6 -15 -15 -15h-265zM431 490c9 0 15 -6 15 -15v-460c0 -9 -6 -15 -15 -15h-26c-9 0 -14 6 -15 15l-4 61c-34 -50 -86 -89 -160 -89c-112 0 -180 63 -180 194v294c0 9 6 15 15 15h30
c9 0 15 -6 15 -15v-294c0 -89 44 -143 124 -143c100 0 156 98 156 128v309c0 9 6 15 15 15h30z" />
    <glyph glyph-name="uogonek" unicode="&#x173;" horiz-adv-x="497" 
d="M449 40l-3 -9v-16c0 -7 -4 -12 -10 -14v-1c-78 0 -119 -52 -119 -95c0 -50 35 -69 91 -57v-46c-44 -20 -148 -10 -148 90c0 74 64 121 129 139l-3 45c-34 -50 -86 -89 -160 -89c-112 0 -180 63 -180 194v294c0 9 6 15 15 15h30c9 0 15 -6 15 -15v-294
c0 -89 44 -143 124 -143c100 0 156 98 156 128v309c0 9 6 15 15 15h30c9 0 15 -6 15 -15v-435h3z" />
    <glyph glyph-name="uring" unicode="&#x16f;" horiz-adv-x="497" 
d="M248 567c-43 0 -76 33 -76 73s33 74 76 74c40 0 73 -34 73 -74s-33 -73 -73 -73zM248 668c-17 0 -29 -12 -29 -28c0 -15 12 -28 29 -28c15 0 28 13 28 28c0 16 -13 28 -28 28zM431 490c9 0 15 -6 15 -15v-460c0 -9 -6 -15 -15 -15h-26c-9 0 -14 6 -15 15l-4 61
c-34 -50 -86 -89 -160 -89c-112 0 -180 63 -180 194v294c0 9 6 15 15 15h30c9 0 15 -6 15 -15v-294c0 -89 44 -143 124 -143c100 0 156 98 156 128v309c0 9 6 15 15 15h30z" />
    <glyph glyph-name="v" unicode="v" horiz-adv-x="495" 
d="M405 478c3 8 10 12 18 12h31c11 0 16 -6 12 -17l-182 -461c-3 -8 -10 -12 -18 -12h-37c-8 0 -15 4 -18 12l-183 461c-4 11 1 17 12 17h31c8 0 15 -4 18 -12l158 -411z" />
    <glyph glyph-name="w" unicode="w" horiz-adv-x="856" 
d="M815 490c11 0 16 -6 12 -17l-174 -461c-3 -8 -10 -12 -18 -12h-36c-8 0 -15 4 -18 12l-153 398l-153 -398c-3 -8 -10 -12 -18 -12h-36c-8 0 -15 4 -18 12l-175 461c-4 11 1 17 12 17h30c8 0 15 -4 18 -12l152 -413l158 413c2 5 5 9 10 10c2 1 5 2 8 2h24c3 0 6 -1 8 -2
c5 -1 8 -5 10 -10l158 -413l152 413c3 8 10 12 18 12h29z" />
    <glyph glyph-name="wacute" unicode="&#x1e83;" horiz-adv-x="856" 
d="M421 543c-11 0 -17 6 -12 17l60 126c4 9 9 12 17 12h18c11 0 17 -6 12 -17l-60 -126c-4 -9 -9 -12 -17 -12h-18zM815 490c11 0 16 -6 12 -17l-174 -461c-3 -8 -10 -12 -18 -12h-36c-8 0 -15 4 -18 12l-153 398l-153 -398c-3 -8 -10 -12 -18 -12h-36c-8 0 -15 4 -18 12
l-175 461c-4 11 1 17 12 17h30c8 0 15 -4 18 -12l152 -413l158 413c2 5 5 9 10 10c2 1 5 2 8 2h24c3 0 6 -1 8 -2c5 -1 8 -5 10 -10l158 -413l152 413c3 8 10 12 18 12h29z" />
    <glyph glyph-name="wcircumflex" unicode="&#x175;" horiz-adv-x="856" 
d="M314 574c-13 0 -16 8 -8 18l85 98c5 6 11 8 18 8h38c7 0 13 -2 18 -8l85 -98c8 -10 5 -18 -8 -18h-21c-7 0 -13 2 -18 8l-75 86l-75 -86c-5 -6 -11 -8 -18 -8h-21zM815 490c11 0 16 -6 12 -17l-174 -461c-3 -8 -10 -12 -18 -12h-36c-8 0 -15 4 -18 12l-153 398l-153 -398
c-3 -8 -10 -12 -18 -12h-36c-8 0 -15 4 -18 12l-175 461c-4 11 1 17 12 17h30c8 0 15 -4 18 -12l152 -413l158 413c2 5 5 9 10 10c2 1 5 2 8 2h24c3 0 6 -1 8 -2c5 -1 8 -5 10 -10l158 -413l152 413c3 8 10 12 18 12h29z" />
    <glyph glyph-name="wdieresis" unicode="&#x1e85;" horiz-adv-x="856" 
d="M341 631c-21 0 -38 17 -38 37s17 37 38 37s38 -17 38 -37s-17 -37 -38 -37zM515 631c-20 0 -38 17 -38 37s18 37 38 37c21 0 38 -17 38 -37s-17 -37 -38 -37zM815 490c11 0 16 -6 12 -17l-174 -461c-3 -8 -10 -12 -18 -12h-36c-8 0 -15 4 -18 12l-153 398l-153 -398
c-3 -8 -10 -12 -18 -12h-36c-8 0 -15 4 -18 12l-175 461c-4 11 1 17 12 17h30c8 0 15 -4 18 -12l152 -413l158 413c2 5 5 9 10 10c2 1 5 2 8 2h24c3 0 6 -1 8 -2c5 -1 8 -5 10 -10l158 -413l152 413c3 8 10 12 18 12h29z" />
    <glyph glyph-name="wgrave" unicode="&#x1e81;" horiz-adv-x="856" 
d="M393 555l-60 126c-5 11 1 17 12 17h18c8 0 13 -3 17 -12l60 -126c5 -11 -1 -17 -12 -17h-18c-8 0 -13 3 -17 12zM815 490c11 0 16 -6 12 -17l-174 -461c-3 -8 -10 -12 -18 -12h-36c-8 0 -15 4 -18 12l-153 398l-153 -398c-3 -8 -10 -12 -18 -12h-36c-8 0 -15 4 -18 12
l-175 461c-4 11 1 17 12 17h30c8 0 15 -4 18 -12l152 -413l158 413c2 5 5 9 10 10c2 1 5 2 8 2h24c3 0 6 -1 8 -2c5 -1 8 -5 10 -10l158 -413l152 413c3 8 10 12 18 12h29z" />
    <glyph glyph-name="x" unicode="x" horiz-adv-x="437" 
d="M403 18c7 -10 2 -18 -10 -18h-34c-8 0 -14 3 -18 10l-122 192l-123 -192c-5 -7 -10 -10 -18 -10h-34c-12 0 -17 8 -10 18l155 232l-148 222c-6 10 -2 18 10 18h34c8 0 13 -3 18 -10l116 -181l115 181c4 7 10 10 18 10h34c12 0 17 -8 10 -18l-149 -222z" />
    <glyph glyph-name="y" unicode="y" horiz-adv-x="495" 
d="M455 490c11 0 16 -6 12 -17l-258 -651c-3 -8 -10 -12 -18 -12h-31c-11 0 -16 6 -12 17l68 171l-188 475c-4 11 1 17 12 17h31c8 0 15 -4 18 -12l158 -411l158 411c3 8 10 12 18 12h32z" />
    <glyph glyph-name="yacute" unicode="&#xfd;" horiz-adv-x="495" 
d="M323 698c11 0 17 -6 12 -17l-60 -126c-4 -9 -9 -12 -17 -12h-18c-11 0 -17 6 -12 17l60 126c4 9 9 12 17 12h18zM455 490c11 0 16 -6 12 -17l-258 -651c-3 -8 -10 -12 -18 -12h-31c-11 0 -16 6 -12 17l68 171l-188 475c-4 11 1 17 12 17h31c8 0 15 -4 18 -12l158 -411
l158 411c3 8 10 12 18 12h32z" />
    <glyph glyph-name="ycircumflex" unicode="&#x177;" horiz-adv-x="495" 
d="M266 698c7 0 13 -2 18 -8l85 -98c8 -10 5 -18 -8 -18h-21c-7 0 -13 2 -18 8l-75 86l-75 -86c-5 -6 -11 -8 -18 -8h-21c-13 0 -16 8 -8 18l85 98c5 6 11 8 18 8h38zM455 490c11 0 16 -6 12 -17l-258 -651c-3 -8 -10 -12 -18 -12h-31c-11 0 -16 6 -12 17l68 171l-188 475
c-4 11 1 17 12 17h31c8 0 15 -4 18 -12l158 -411l158 411c3 8 10 12 18 12h32z" />
    <glyph glyph-name="ydieresis" unicode="&#xff;" horiz-adv-x="495" 
d="M160 631c-21 0 -38 17 -38 37s17 37 38 37s38 -17 38 -37s-17 -37 -38 -37zM334 631c-20 0 -38 17 -38 37s18 37 38 37c21 0 38 -17 38 -37s-17 -37 -38 -37zM455 490c11 0 16 -6 12 -17l-258 -651c-3 -8 -10 -12 -18 -12h-31c-11 0 -16 6 -12 17l68 171l-188 475
c-4 11 1 17 12 17h31c8 0 15 -4 18 -12l158 -411l158 411c3 8 10 12 18 12h32z" />
    <glyph glyph-name="ygrave" unicode="&#x1ef3;" horiz-adv-x="495" 
d="M164 698h18c8 0 13 -3 17 -12l60 -126c5 -11 -1 -17 -12 -17h-18c-8 0 -13 3 -17 12l-60 126c-5 11 1 17 12 17zM455 490c11 0 16 -6 12 -17l-258 -651c-3 -8 -10 -12 -18 -12h-31c-11 0 -16 6 -12 17l68 171l-188 475c-4 11 1 17 12 17h31c8 0 15 -4 18 -12l158 -411
l158 411c3 8 10 12 18 12h32z" />
    <glyph glyph-name="z" unicode="z" horiz-adv-x="453" 
d="M421 475v-26c0 -7 -2 -14 -7 -19l-313 -377h305c9 0 15 -6 15 -15v-23c0 -9 -6 -15 -15 -15h-360c-9 0 -15 6 -15 15v27c0 7 2 14 7 19l314 377h-306c-9 0 -15 6 -15 15v22c0 9 6 15 15 15h360c9 0 15 -6 15 -15z" />
    <glyph glyph-name="zacute" unicode="&#x17a;" horiz-adv-x="453" 
d="M303 698c11 0 17 -6 12 -17l-60 -126c-4 -9 -9 -12 -17 -12h-18c-11 0 -17 6 -12 17l60 126c4 9 9 12 17 12h18zM421 475v-26c0 -7 -2 -14 -7 -19l-313 -377h305c9 0 15 -6 15 -15v-23c0 -9 -6 -15 -15 -15h-360c-9 0 -15 6 -15 15v27c0 7 2 14 7 19l314 377h-306
c-9 0 -15 6 -15 15v22c0 9 6 15 15 15h360c9 0 15 -6 15 -15z" />
    <glyph glyph-name="zcaron" unicode="&#x17e;" horiz-adv-x="453" 
d="M246 574h-38c-7 0 -13 2 -18 8l-85 98c-8 10 -5 18 8 18h21c7 0 13 -2 18 -8l75 -86l75 86c5 6 11 8 18 8h21c13 0 16 -8 8 -18l-85 -98c-5 -6 -11 -8 -18 -8zM421 475v-26c0 -7 -2 -14 -7 -19l-313 -377h305c9 0 15 -6 15 -15v-23c0 -9 -6 -15 -15 -15h-360
c-9 0 -15 6 -15 15v27c0 7 2 14 7 19l314 377h-306c-9 0 -15 6 -15 15v22c0 9 6 15 15 15h360c9 0 15 -6 15 -15z" />
    <glyph glyph-name="zdotaccent" unicode="&#x17c;" horiz-adv-x="453" 
d="M227 631c-21 0 -38 17 -38 37s17 37 38 37s38 -17 38 -37s-17 -37 -38 -37zM421 475v-26c0 -7 -2 -14 -7 -19l-313 -377h305c9 0 15 -6 15 -15v-23c0 -9 -6 -15 -15 -15h-360c-9 0 -15 6 -15 15v27c0 7 2 14 7 19l314 377h-306c-9 0 -15 6 -15 15v22c0 9 6 15 15 15h360
c9 0 15 -6 15 -15z" />
    <glyph glyph-name="f.alt" horiz-adv-x="331" 
d="M296 720c7 -4 10 -10 10 -18v-24c0 -12 -7 -16 -18 -10c-17 8 -32 16 -55 16c-54 0 -69 -26 -69 -74v-120h104c9 0 15 -6 15 -15v-22c0 -9 -6 -15 -15 -15h-104v-423c0 -9 -6 -15 -15 -15h-30c-9 0 -15 6 -15 15v423h-58c-9 0 -15 6 -15 15v22c0 9 6 15 15 15h58v121
c0 80 36 125 130 125c24 0 47 -7 62 -16z" />
    <glyph glyph-name="a.ss01" horiz-adv-x="499" 
d="M460 42c8 -4 13 -8 13 -17v-11c0 -9 -5 -16 -14 -17c-65 -8 -77 32 -77 66v7c-70 -65 -135 -83 -203 -83c-102 0 -143 66 -143 135c0 75 39 131 143 149l148 25c38 8 51 12 55 21v5c0 91 -46 125 -127 125c-65 0 -126 -23 -131 -90c-1 -9 -6 -13 -15 -13h-30
c-9 0 -15 5 -14 15c7 105 91 142 189 142c136 0 188 -71 188 -172v-246c0 -19 4 -34 18 -41zM192 44c58 0 121 19 190 87v131c-3 -8 -12 -11 -45 -16l-136 -24c-85 -16 -104 -50 -104 -95s25 -83 95 -83z" />
    <glyph glyph-name="aacute.ss01" horiz-adv-x="499" 
d="M247 543c-11 0 -17 6 -12 17l60 126c4 9 9 12 17 12h18c11 0 17 -6 12 -17l-60 -126c-4 -9 -9 -12 -17 -12h-18zM460 42c8 -4 13 -8 13 -17v-11c0 -9 -5 -16 -14 -17c-65 -8 -77 32 -77 66v7c-70 -65 -135 -83 -203 -83c-102 0 -143 66 -143 135c0 75 39 131 143 149
l148 25c38 8 51 12 55 21v5c0 91 -46 125 -127 125c-65 0 -126 -23 -131 -90c-1 -9 -6 -13 -15 -13h-30c-9 0 -15 5 -14 15c7 105 91 142 189 142c136 0 188 -71 188 -172v-246c0 -19 4 -34 18 -41zM192 44c58 0 121 19 190 87v131c-3 -8 -12 -11 -45 -16l-136 -24
c-85 -16 -104 -50 -104 -95s25 -83 95 -83z" />
    <glyph glyph-name="abreve.ss01" horiz-adv-x="499" 
d="M254 569c-75 0 -125 50 -132 115c-1 10 4 15 14 15h15c9 0 14 -5 16 -14c8 -41 39 -71 87 -71s80 30 88 71c2 9 7 14 16 14h15c10 0 15 -5 14 -15c-7 -65 -57 -115 -133 -115zM460 42c8 -4 13 -8 13 -17v-11c0 -9 -5 -16 -14 -17c-65 -8 -77 32 -77 66v7
c-70 -65 -135 -83 -203 -83c-102 0 -143 66 -143 135c0 75 39 131 143 149l148 25c38 8 51 12 55 21v5c0 91 -46 125 -127 125c-65 0 -126 -23 -131 -90c-1 -9 -6 -13 -15 -13h-30c-9 0 -15 5 -14 15c7 105 91 142 189 142c136 0 188 -71 188 -172v-246c0 -19 4 -34 18 -41z
M192 44c58 0 121 19 190 87v131c-3 -8 -12 -11 -45 -16l-136 -24c-85 -16 -104 -50 -104 -95s25 -83 95 -83z" />
    <glyph glyph-name="uni01CE.ss01" horiz-adv-x="499" 
d="M217 582l-85 98c-8 10 -5 18 8 18h21c7 0 13 -2 18 -8l75 -86l75 86c5 6 11 8 18 8h21c13 0 16 -8 8 -18l-85 -98c-5 -6 -11 -8 -18 -8h-38c-7 0 -13 2 -18 8zM460 42c8 -4 13 -8 13 -17v-11c0 -9 -5 -16 -14 -17c-65 -8 -77 32 -77 66v7c-70 -65 -135 -83 -203 -83
c-102 0 -143 66 -143 135c0 75 39 131 143 149l148 25c38 8 51 12 55 21v5c0 91 -46 125 -127 125c-65 0 -126 -23 -131 -90c-1 -9 -6 -13 -15 -13h-30c-9 0 -15 5 -14 15c7 105 91 142 189 142c136 0 188 -71 188 -172v-246c0 -19 4 -34 18 -41zM192 44c58 0 121 19 190 87
v131c-3 -8 -12 -11 -45 -16l-136 -24c-85 -16 -104 -50 -104 -95s25 -83 95 -83z" />
    <glyph glyph-name="acircumflex.ss01" horiz-adv-x="499" 
d="M140 574c-13 0 -16 8 -8 18l85 98c5 6 11 8 18 8h38c7 0 13 -2 18 -8l85 -98c8 -10 5 -18 -8 -18h-21c-7 0 -13 2 -18 8l-75 86l-75 -86c-5 -6 -11 -8 -18 -8h-21zM460 42c8 -4 13 -8 13 -17v-11c0 -9 -5 -16 -14 -17c-65 -8 -77 32 -77 66v7c-70 -65 -135 -83 -203 -83
c-102 0 -143 66 -143 135c0 75 39 131 143 149l148 25c38 8 51 12 55 21v5c0 91 -46 125 -127 125c-65 0 -126 -23 -131 -90c-1 -9 -6 -13 -15 -13h-30c-9 0 -15 5 -14 15c7 105 91 142 189 142c136 0 188 -71 188 -172v-246c0 -19 4 -34 18 -41zM192 44c58 0 121 19 190 87
v131c-3 -8 -12 -11 -45 -16l-136 -24c-85 -16 -104 -50 -104 -95s25 -83 95 -83z" />
    <glyph glyph-name="adieresis.ss01" horiz-adv-x="499" 
d="M167 631c-21 0 -38 17 -38 37s17 37 38 37s38 -17 38 -37s-17 -37 -38 -37zM341 631c-20 0 -38 17 -38 37s18 37 38 37c21 0 38 -17 38 -37s-17 -37 -38 -37zM460 42c8 -4 13 -8 13 -17v-11c0 -9 -5 -16 -14 -17c-65 -8 -77 32 -77 66v7c-70 -65 -135 -83 -203 -83
c-102 0 -143 66 -143 135c0 75 39 131 143 149l148 25c38 8 51 12 55 21v5c0 91 -46 125 -127 125c-65 0 -126 -23 -131 -90c-1 -9 -6 -13 -15 -13h-30c-9 0 -15 5 -14 15c7 105 91 142 189 142c136 0 188 -71 188 -172v-246c0 -19 4 -34 18 -41zM192 44c58 0 121 19 190 87
v131c-3 -8 -12 -11 -45 -16l-136 -24c-85 -16 -104 -50 -104 -95s25 -83 95 -83z" />
    <glyph glyph-name="agrave.ss01" horiz-adv-x="499" 
d="M219 555l-60 126c-5 11 1 17 12 17h18c8 0 13 -3 17 -12l60 -126c5 -11 -1 -17 -12 -17h-18c-8 0 -13 3 -17 12zM460 42c8 -4 13 -8 13 -17v-11c0 -9 -5 -16 -14 -17c-65 -8 -77 32 -77 66v7c-70 -65 -135 -83 -203 -83c-102 0 -143 66 -143 135c0 75 39 131 143 149
l148 25c38 8 51 12 55 21v5c0 91 -46 125 -127 125c-65 0 -126 -23 -131 -90c-1 -9 -6 -13 -15 -13h-30c-9 0 -15 5 -14 15c7 105 91 142 189 142c136 0 188 -71 188 -172v-246c0 -19 4 -34 18 -41zM192 44c58 0 121 19 190 87v131c-3 -8 -12 -11 -45 -16l-136 -24
c-85 -16 -104 -50 -104 -95s25 -83 95 -83z" />
    <glyph glyph-name="amacron.ss01" horiz-adv-x="499" 
d="M122 647c-9 0 -15 6 -15 15v21c0 9 6 15 15 15h265c9 0 15 -6 15 -15v-21c0 -9 -6 -15 -15 -15h-265zM460 42c8 -4 13 -8 13 -17v-11c0 -9 -5 -16 -14 -17c-65 -8 -77 32 -77 66v7c-70 -65 -135 -83 -203 -83c-102 0 -143 66 -143 135c0 75 39 131 143 149l148 25
c38 8 51 12 55 21v5c0 91 -46 125 -127 125c-65 0 -126 -23 -131 -90c-1 -9 -6 -13 -15 -13h-30c-9 0 -15 5 -14 15c7 105 91 142 189 142c136 0 188 -71 188 -172v-246c0 -19 4 -34 18 -41zM192 44c58 0 121 19 190 87v131c-3 -8 -12 -11 -45 -16l-136 -24
c-85 -16 -104 -50 -104 -95s25 -83 95 -83z" />
    <glyph glyph-name="aogonek.ss01" horiz-adv-x="499" 
d="M460 42c8 -4 13 -8 13 -17v-11c0 -9 -5 -16 -14 -17c-4 -1 -8 -1 -12 -1c-63 -1 -110 -38 -110 -81c0 -50 35 -69 91 -57v-46c-44 -20 -148 -10 -148 90c0 72 54 110 108 126c-5 11 -6 23 -6 35v7c-70 -65 -135 -83 -203 -83c-102 0 -143 66 -143 135
c0 75 39 131 143 149l148 25c38 8 51 12 55 21v5c0 91 -46 125 -127 125c-65 0 -126 -23 -131 -90c-1 -9 -6 -13 -15 -13h-30c-9 0 -15 5 -14 15c7 105 91 142 189 142c136 0 188 -71 188 -172v-246c0 -19 4 -34 18 -41zM192 44c58 0 121 19 190 87v131
c-3 -8 -12 -11 -45 -16l-136 -24c-85 -16 -104 -50 -104 -95s25 -83 95 -83z" />
    <glyph glyph-name="aring.ss01" horiz-adv-x="499" 
d="M255 567c-43 0 -76 33 -76 73s33 74 76 74c40 0 73 -34 73 -74s-33 -73 -73 -73zM255 668c-17 0 -29 -12 -29 -28c0 -15 12 -28 29 -28c15 0 28 13 28 28c0 16 -13 28 -28 28zM460 42c8 -4 13 -8 13 -17v-11c0 -9 -5 -16 -14 -17c-65 -8 -77 32 -77 66v7
c-70 -65 -135 -83 -203 -83c-102 0 -143 66 -143 135c0 75 39 131 143 149l148 25c38 8 51 12 55 21v5c0 91 -46 125 -127 125c-65 0 -126 -23 -131 -90c-1 -9 -6 -13 -15 -13h-30c-9 0 -15 5 -14 15c7 105 91 142 189 142c136 0 188 -71 188 -172v-246c0 -19 4 -34 18 -41z
M192 44c58 0 121 19 190 87v131c-3 -8 -12 -11 -45 -16l-136 -24c-85 -16 -104 -50 -104 -95s25 -83 95 -83z" />
    <glyph glyph-name="atilde.ss01" horiz-adv-x="499" 
d="M121 636c-6 0 -10 4 -9 12c5 44 38 67 79 67c66 0 83 -65 134 -65c25 0 36 18 41 32c2 6 5 9 11 9h13c6 0 10 -4 10 -10c-6 -46 -41 -69 -75 -69c-70 0 -87 65 -138 65c-27 0 -38 -18 -42 -32c-2 -6 -5 -9 -11 -9h-13zM460 42c8 -4 13 -8 13 -17v-11c0 -9 -5 -16 -14 -17
c-65 -8 -77 32 -77 66v7c-70 -65 -135 -83 -203 -83c-102 0 -143 66 -143 135c0 75 39 131 143 149l148 25c38 8 51 12 55 21v5c0 91 -46 125 -127 125c-65 0 -126 -23 -131 -90c-1 -9 -6 -13 -15 -13h-30c-9 0 -15 5 -14 15c7 105 91 142 189 142c136 0 188 -71 188 -172
v-246c0 -19 4 -34 18 -41zM192 44c58 0 121 19 190 87v131c-3 -8 -12 -11 -45 -16l-136 -24c-85 -16 -104 -50 -104 -95s25 -83 95 -83z" />
    <glyph glyph-name="g.ss01" horiz-adv-x="567" 
d="M383 41c89 0 133 -31 133 -105c0 -84 -76 -133 -252 -133c-177 0 -228 52 -228 120c0 42 26 73 57 85c-26 15 -42 39 -42 70c0 41 28 68 66 79c-37 37 -59 87 -59 143c0 112 88 201 215 201c42 0 79 -10 111 -27l91 16c9 2 15 -6 15 -15v-26c0 -9 -6 -15 -15 -15h-39
c32 -35 51 -82 51 -134c0 -113 -88 -202 -214 -202c-44 0 -83 11 -115 29c-30 0 -51 -17 -51 -41c0 -20 12 -45 84 -45h192zM273 447c-90 0 -157 -64 -157 -147c0 -84 67 -149 157 -149c89 0 156 65 156 149c0 83 -67 147 -156 147zM264 -142c143 0 191 33 191 81
c0 34 -21 48 -65 48h-201c-55 0 -92 -13 -92 -54c0 -35 27 -75 167 -75z" />
    <glyph glyph-name="gbreve.ss01" horiz-adv-x="567" 
d="M284 569c-75 0 -125 50 -132 115c-1 10 4 15 14 15h15c9 0 14 -5 16 -14c8 -41 39 -71 87 -71s80 30 88 71c2 9 7 14 16 14h15c10 0 15 -5 14 -15c-7 -65 -57 -115 -133 -115zM383 41c89 0 133 -31 133 -105c0 -84 -76 -133 -252 -133c-177 0 -228 52 -228 120
c0 42 26 73 57 85c-26 15 -42 39 -42 70c0 41 28 68 66 79c-37 37 -59 87 -59 143c0 112 88 201 215 201c42 0 79 -10 111 -27l91 16c9 2 15 -6 15 -15v-26c0 -9 -6 -15 -15 -15h-39c32 -35 51 -82 51 -134c0 -113 -88 -202 -214 -202c-44 0 -83 11 -115 29
c-30 0 -51 -17 -51 -41c0 -20 12 -45 84 -45h192zM273 447c-90 0 -157 -64 -157 -147c0 -84 67 -149 157 -149c89 0 156 65 156 149c0 83 -67 147 -156 147zM264 -142c143 0 191 33 191 81c0 34 -21 48 -65 48h-201c-55 0 -92 -13 -92 -54c0 -35 27 -75 167 -75z" />
    <glyph glyph-name="gcommaaccent.ss01" horiz-adv-x="567" 
d="M290 555c-23 0 -42 18 -42 51c0 50 23 85 42 109c1 2 3 3 5 3h11c3 0 5 -3 3 -6c-11 -22 -19 -43 -19 -74c24 0 42 -18 42 -42c0 -23 -18 -41 -42 -41zM383 41c89 0 133 -31 133 -105c0 -84 -76 -133 -252 -133c-177 0 -228 52 -228 120c0 42 26 73 57 85
c-26 15 -42 39 -42 70c0 41 28 68 66 79c-37 37 -59 87 -59 143c0 112 88 201 215 201c42 0 79 -10 111 -27l91 16c9 2 15 -6 15 -15v-26c0 -9 -6 -15 -15 -15h-39c32 -35 51 -82 51 -134c0 -113 -88 -202 -214 -202c-44 0 -83 11 -115 29c-30 0 -51 -17 -51 -41
c0 -20 12 -45 84 -45h192zM273 447c-90 0 -157 -64 -157 -147c0 -84 67 -149 157 -149c89 0 156 65 156 149c0 83 -67 147 -156 147zM264 -142c143 0 191 33 191 81c0 34 -21 48 -65 48h-201c-55 0 -92 -13 -92 -54c0 -35 27 -75 167 -75z" />
    <glyph glyph-name="gdotaccent.ss01" horiz-adv-x="567" 
d="M284 631c-21 0 -38 17 -38 37s17 37 38 37s38 -17 38 -37s-17 -37 -38 -37zM383 41c89 0 133 -31 133 -105c0 -84 -76 -133 -252 -133c-177 0 -228 52 -228 120c0 42 26 73 57 85c-26 15 -42 39 -42 70c0 41 28 68 66 79c-37 37 -59 87 -59 143c0 112 88 201 215 201
c42 0 79 -10 111 -27l91 16c9 2 15 -6 15 -15v-26c0 -9 -6 -15 -15 -15h-39c32 -35 51 -82 51 -134c0 -113 -88 -202 -214 -202c-44 0 -83 11 -115 29c-30 0 -51 -17 -51 -41c0 -20 12 -45 84 -45h192zM273 447c-90 0 -157 -64 -157 -147c0 -84 67 -149 157 -149
c89 0 156 65 156 149c0 83 -67 147 -156 147zM264 -142c143 0 191 33 191 81c0 34 -21 48 -65 48h-201c-55 0 -92 -13 -92 -54c0 -35 27 -75 167 -75z" />
    <glyph glyph-name="t.ss01" horiz-adv-x="312" 
d="M261 438h-83v-346c0 -29 15 -43 39 -43c10 0 26 0 38 2c11 2 18 -4 18 -14v-18c0 -19 -40 -25 -66 -25c-60 0 -89 30 -89 97v347h-72c-9 0 -15 6 -15 15v22c0 9 6 15 15 15h72v115c0 9 6 15 15 15h30c9 0 15 -6 15 -15v-115h83c9 0 15 -6 15 -15v-22c0 -9 -6 -15 -15 -15
z" />
    <glyph glyph-name="ordfeminine" unicode="&#xaa;" horiz-adv-x="433" 
d="M358 700h38v-359h-38l-10 53l1 5c-30 -37 -76 -58 -131 -58c-101 0 -182 81 -182 182s81 182 182 182c55 0 100 -20 130 -57v2zM218 387c76 0 136 61 136 136s-60 136 -136 136c-75 0 -135 -61 -135 -136s60 -136 135 -136z" />
    <glyph glyph-name="ordmasculine" unicode="&#xba;" horiz-adv-x="437" 
d="M218 341c-101 0 -182 81 -182 182s81 182 182 182s182 -81 182 -182s-81 -182 -182 -182zM218 387c76 0 136 61 136 136s-60 136 -136 136c-75 0 -135 -61 -135 -136s60 -136 135 -136z" />
    <glyph glyph-name="uni0410" unicode="&#x410;" horiz-adv-x="623" 
d="M595 17c4 -10 -1 -17 -12 -17h-32c-8 0 -14 3 -17 12l-58 162h-328l-59 -162c-3 -9 -9 -12 -17 -12h-32c-11 0 -16 7 -12 17l247 671c3 8 10 12 18 12h37c8 0 15 -4 18 -12zM168 230h287l-143 397z" />
    <glyph glyph-name="uni0411" unicode="&#x411;" horiz-adv-x="519" 
d="M259 428c149 0 229 -93 229 -214c0 -122 -80 -214 -229 -214h-183c-9 0 -15 6 -15 15v670c0 9 6 15 15 15h33h1h306c9 0 15 -6 15 -15v-29c0 -9 -6 -15 -15 -15h-292v-213h135zM255 59c97 0 172 44 172 155s-75 155 -172 155h-131v-310h131z" />
    <glyph glyph-name="uni0412" unicode="&#x412;" horiz-adv-x="558" 
d="M379 380c97 -21 148 -92 148 -175c0 -131 -82 -205 -247 -205h-204c-9 0 -15 6 -15 15v670c0 9 6 15 15 15h207c151 0 202 -87 202 -164c0 -71 -32 -131 -106 -156zM422 534c0 73 -55 107 -145 107h-153v-237h153c91 0 145 47 145 130zM276 59c122 0 186 42 186 145
c0 84 -50 144 -186 144h-152v-289h152z" />
    <glyph glyph-name="uni0413" unicode="&#x413;" horiz-adv-x="462" 
d="M416 700c9 0 15 -6 15 -15v-29c0 -9 -6 -15 -15 -15h-292v-626c0 -9 -6 -15 -15 -15h-33c-9 0 -15 6 -15 15v670c0 9 6 15 15 15h33h1h306z" />
    <glyph glyph-name="uni0403" unicode="&#x403;" horiz-adv-x="462" 
d="M223 753c-11 0 -17 6 -12 17l60 126c4 9 9 12 17 12h18c11 0 17 -6 12 -17l-60 -126c-4 -9 -9 -12 -17 -12h-18zM416 700c9 0 15 -6 15 -15v-29c0 -9 -6 -15 -15 -15h-292v-626c0 -9 -6 -15 -15 -15h-33c-9 0 -15 6 -15 15v670c0 9 6 15 15 15h33h1h306z" />
    <glyph glyph-name="uni0490" unicode="&#x490;" horiz-adv-x="462" 
d="M416 751c9 0 15 -6 15 -15v-80c0 -9 -6 -15 -15 -15h-292v-626c0 -9 -6 -15 -15 -15h-33c-9 0 -15 6 -15 15v670c0 9 6 15 15 15h33h1h262v36c0 9 6 15 15 15h29z" />
    <glyph glyph-name="uni0414" unicode="&#x414;" horiz-adv-x="692" 
d="M647 59c9 0 15 -6 15 -15v-98c0 -9 -6 -15 -15 -15h-32c-9 0 -15 6 -15 15v54h-507v-54c0 -9 -6 -15 -15 -15h-33c-9 0 -15 6 -15 15v98c0 9 6 15 15 15h47c36 21 50 67 50 138v488c0 9 6 15 15 15h439c9 0 15 -6 15 -15v-626h36zM205 197c0 -59 -11 -105 -32 -138h375
v582h-343v-444z" />
    <glyph glyph-name="uni0415" unicode="&#x415;" horiz-adv-x="480" 
d="M415 59c9 0 15 -6 15 -15v-29c0 -9 -6 -15 -15 -15h-339c-9 0 -15 6 -15 15v670c0 9 6 15 15 15h338c9 0 15 -6 15 -15v-29c0 -9 -6 -15 -15 -15h-290v-238h273c9 0 15 -6 15 -15v-29c0 -9 -6 -15 -15 -15h-273v-285h291z" />
    <glyph glyph-name="uni0401" unicode="&#x401;" horiz-adv-x="480" 
d="M159 841c-21 0 -38 17 -38 37s17 37 38 37s38 -17 38 -37s-17 -37 -38 -37zM333 841c-20 0 -38 17 -38 37s18 37 38 37c21 0 38 -17 38 -37s-17 -37 -38 -37zM415 59c9 0 15 -6 15 -15v-29c0 -9 -6 -15 -15 -15h-339c-9 0 -15 6 -15 15v670c0 9 6 15 15 15h338
c9 0 15 -6 15 -15v-29c0 -9 -6 -15 -15 -15h-290v-238h273c9 0 15 -6 15 -15v-29c0 -9 -6 -15 -15 -15h-273v-285h291z" />
    <glyph glyph-name="uni0416" unicode="&#x416;" horiz-adv-x="934" 
d="M903 18c7 -10 3 -18 -9 -18h-41c-8 0 -13 2 -18 9l-267 355l-71 -77v-272c0 -9 -6 -15 -15 -15h-33c-9 0 -15 6 -15 15v272l-71 77l-267 -355c-5 -7 -10 -9 -18 -9h-41c-12 0 -16 8 -9 18l296 389l-253 275c-9 9 -5 18 8 18h45c7 0 13 -2 18 -8l292 -321v314
c0 9 6 15 15 15h33c9 0 15 -6 15 -15v-314l292 321c5 6 11 8 18 8h45c13 0 17 -9 8 -18l-253 -275z" />
    <glyph glyph-name="uni0417" unicode="&#x417;" horiz-adv-x="504" 
d="M338 380c70 -27 131 -89 131 -180c0 -121 -100 -208 -230 -208c-88 0 -154 34 -200 87c-6 7 -5 15 1 21l20 20c7 7 14 8 22 0c27 -28 71 -66 158 -66c92 0 166 53 166 144c0 96 -85 147 -185 149c-10 0 -15 6 -15 15v32c0 9 5 16 14 16c98 2 158 61 158 124
c0 71 -65 112 -136 112c-67 0 -109 -32 -141 -63c-8 -7 -15 -7 -22 0l-18 18c-6 6 -7 14 -1 21c45 53 107 86 182 86c104 0 198 -76 198 -176c0 -65 -44 -121 -102 -152z" />
    <glyph glyph-name="uni0418" unicode="&#x418;" horiz-adv-x="627" 
d="M554 700c7 -1 12 -7 12 -15v-670c0 -9 -6 -15 -15 -15h-33c-9 0 -15 6 -15 15v599l-360 -604c-4 -7 -10 -10 -18 -10h-52c-7 1 -12 7 -12 15v670c0 9 6 15 15 15h33c9 0 15 -6 15 -15v-599l360 604c4 7 10 10 18 10h52z" />
    <glyph glyph-name="uni0419" unicode="&#x419;" horiz-adv-x="627" 
d="M313 779c-75 0 -125 50 -132 115c-1 10 4 15 14 15h15c9 0 14 -5 16 -14c8 -41 39 -71 87 -71s80 30 88 71c2 9 7 14 16 14h15c10 0 15 -5 14 -15c-7 -65 -57 -115 -133 -115zM554 700c7 -1 12 -7 12 -15v-670c0 -9 -6 -15 -15 -15h-33c-9 0 -15 6 -15 15v599l-360 -604
c-4 -7 -10 -10 -18 -10h-52c-7 1 -12 7 -12 15v670c0 9 6 15 15 15h33c9 0 15 -6 15 -15v-599l360 604c4 7 10 10 18 10h52z" />
    <glyph glyph-name="uni041A" unicode="&#x41a;" horiz-adv-x="561" 
d="M530 18c7 -10 3 -18 -9 -18h-41c-8 0 -13 2 -18 9l-267 355l-71 -77v-272c0 -9 -6 -15 -15 -15h-33c-9 0 -15 6 -15 15v670c0 9 6 15 15 15h33c9 0 15 -6 15 -15v-314l292 321c5 6 11 8 18 8h45c13 0 17 -9 8 -18l-253 -275z" />
    <glyph glyph-name="uni041B" unicode="&#x41b;" horiz-adv-x="652" 
d="M576 700c9 0 15 -6 15 -15v-670c0 -9 -6 -15 -15 -15h-33c-9 0 -15 6 -15 15v626h-343v-444c0 -137 -60 -202 -155 -202c-6 0 -9 4 -11 9l-8 32c-1 6 1 11 8 11c76 0 103 52 103 150v488c0 9 6 15 15 15h439z" />
    <glyph glyph-name="uni041C" unicode="&#x41c;" horiz-adv-x="818" 
d="M742 700c9 0 15 -6 15 -15v-670c0 -9 -6 -15 -15 -15h-33c-9 0 -15 6 -15 15v578l-251 -582c-3 -8 -9 -11 -17 -11h-36c-8 0 -14 3 -17 11l-249 578v-574c0 -9 -6 -15 -15 -15h-33c-9 0 -15 6 -15 15v670c0 9 6 15 15 15h49c8 0 15 -3 18 -10l266 -621l264 621
c3 7 10 10 18 10h51z" />
    <glyph glyph-name="uni041D" unicode="&#x41d;" horiz-adv-x="591" 
d="M515 700c9 0 15 -6 15 -15v-670c0 -9 -6 -15 -15 -15h-33c-9 0 -15 6 -15 15v305h-343v-305c0 -9 -6 -15 -15 -15h-33c-9 0 -15 6 -15 15v670c0 9 6 15 15 15h33c9 0 15 -6 15 -15v-306h343v306c0 9 6 15 15 15h33z" />
    <glyph glyph-name="uni041E" unicode="&#x41e;" horiz-adv-x="796" 
d="M399 -13c-198 0 -358 160 -358 360c0 201 160 361 358 361c197 0 356 -160 356 -361c0 -200 -159 -360 -356 -360zM399 45c165 0 296 134 296 302c0 170 -131 304 -296 304c-167 0 -298 -134 -298 -304c0 -168 131 -302 298 -302z" />
    <glyph glyph-name="uni041F" unicode="&#x41f;" horiz-adv-x="591" 
d="M515 700c9 0 15 -6 15 -15v-670c0 -9 -6 -15 -15 -15h-33c-9 0 -15 6 -15 15v626h-343v-626c0 -9 -6 -15 -15 -15h-33c-9 0 -15 6 -15 15v670c0 9 6 15 15 15h439z" />
    <glyph glyph-name="uni0420" unicode="&#x420;" horiz-adv-x="519" 
d="M259 700c149 0 229 -92 229 -214c0 -121 -80 -214 -229 -214h-135v-257c0 -9 -6 -15 -15 -15h-33c-9 0 -15 6 -15 15v670c0 9 6 15 15 15h183zM255 331c97 0 172 44 172 155s-75 155 -172 155h-131v-310h131z" />
    <glyph glyph-name="uni0421" unicode="&#x421;" horiz-adv-x="668" 
d="M605 122l21 -20c8 -7 6 -16 -1 -21c-64 -54 -142 -94 -234 -94c-197 0 -350 160 -350 360c0 201 153 361 350 361c92 0 170 -40 234 -93c7 -6 9 -14 1 -21l-21 -21c-8 -7 -14 -6 -21 0c-54 45 -116 74 -192 74c-158 0 -288 -128 -288 -300c0 -171 130 -299 288 -299
c76 0 138 29 192 74c7 6 13 7 21 0z" />
    <glyph glyph-name="uni0422" unicode="&#x422;" horiz-adv-x="497" 
d="M441 700c9 0 15 -6 15 -15v-29c0 -9 -6 -15 -15 -15h-161v-626c0 -9 -6 -15 -15 -15h-33c-9 0 -15 6 -15 15v626h-161c-9 0 -15 6 -15 15v29c0 9 6 15 15 15h385z" />
    <glyph glyph-name="uni0423" unicode="&#x423;" horiz-adv-x="605" 
d="M556 700c12 0 16 -8 10 -18l-406 -672c-4 -7 -10 -10 -18 -10h-35c-12 0 -16 7 -10 18l172 284l-230 380c-6 10 -2 18 10 18h35c8 0 14 -3 18 -10l201 -332l200 332c4 7 10 10 18 10h35z" />
    <glyph glyph-name="uni0424" unicode="&#x424;" horiz-adv-x="809" 
d="M772 350c0 -149 -111 -289 -336 -290v-45c0 -9 -6 -15 -15 -15h-33c-9 0 -15 6 -15 15v45c-226 1 -337 141 -337 290s111 289 337 290v45c0 9 6 15 15 15h33c9 0 15 -6 15 -15v-45c225 -1 336 -141 336 -290zM100 350c0 -129 89 -230 273 -231v462
c-184 -1 -273 -102 -273 -231zM436 119c184 1 273 102 273 231s-89 230 -273 231v-462z" />
    <glyph glyph-name="uni0425" unicode="&#x425;" horiz-adv-x="579" 
d="M539 18c6 -10 2 -18 -10 -18h-34c-8 0 -14 3 -18 10l-188 295l-187 -295c-4 -7 -10 -10 -18 -10h-35c-12 0 -16 8 -10 18l216 340l-206 324c-6 10 -2 18 10 18h35c8 0 14 -3 18 -10l177 -279l178 279c4 7 10 10 18 10h34c12 0 16 -8 10 -18l-206 -324z" />
    <glyph glyph-name="uni0427" unicode="&#x427;" horiz-adv-x="550" 
d="M474 700c9 0 15 -6 15 -15v-670c0 -9 -6 -15 -15 -15h-33c-9 0 -15 6 -15 15v294c-41 -55 -108 -100 -205 -100c-108 0 -191 70 -191 201v275c0 9 6 15 15 15h33c9 0 15 -6 15 -15v-275c0 -89 53 -144 145 -144c121 0 188 92 188 111v308c0 9 6 15 15 15h33z" />
    <glyph glyph-name="uni0426" unicode="&#x426;" horiz-adv-x="610" 
d="M565 59c9 0 15 -6 15 -15v-98c0 -9 -6 -15 -15 -15h-32c-9 0 -15 6 -15 15v54h-442c-9 0 -15 6 -15 15v670c0 9 6 15 15 15h33c9 0 15 -6 15 -15v-626h343v626c0 9 6 15 15 15h33c9 0 15 -6 15 -15v-626h35z" />
    <glyph glyph-name="uni0428" unicode="&#x428;" horiz-adv-x="998" 
d="M921 700c9 0 15 -6 15 -15v-670c0 -9 -6 -15 -15 -15h-845c-9 0 -15 6 -15 15v670c0 9 6 15 15 15h33c9 0 15 -6 15 -15v-626h343v626c0 9 6 15 15 15h33c9 0 15 -6 15 -15v-626h343v626c0 9 6 15 15 15h33z" />
    <glyph glyph-name="uni0429" unicode="&#x429;" horiz-adv-x="1016" 
d="M971 59c9 0 15 -6 15 -15v-98c0 -9 -6 -15 -15 -15h-32c-9 0 -15 6 -15 15v54h-848c-9 0 -15 6 -15 15v670c0 9 6 15 15 15h33c9 0 15 -6 15 -15v-626h343v626c0 9 6 15 15 15h33c9 0 15 -6 15 -15v-626h343v626c0 9 6 15 15 15h33c9 0 15 -6 15 -15v-626h35z" />
    <glyph glyph-name="uni042C" unicode="&#x42c;" horiz-adv-x="519" 
d="M259 0h-183c-9 0 -15 6 -15 15v670c0 9 6 15 15 15h33c9 0 15 -6 15 -15v-257h135c149 0 229 -93 229 -214c0 -122 -80 -214 -229 -214zM255 369h-131v-310h131c97 0 172 44 172 155s-75 155 -172 155z" />
    <glyph glyph-name="uni042A" unicode="&#x42a;" horiz-adv-x="588" 
d="M328 428c149 0 229 -93 229 -214c0 -122 -80 -214 -229 -214h-183c-9 0 -15 6 -15 15v626h-100c-9 0 -15 6 -15 15v29c0 9 6 15 15 15h114h1h33c9 0 15 -6 15 -15v-257h135zM324 59c97 0 172 44 172 155s-75 155 -172 155h-131v-310h131z" />
    <glyph glyph-name="uni042B" unicode="&#x42b;" horiz-adv-x="745" 
d="M259 0h-183c-9 0 -15 6 -15 15v670c0 9 6 15 15 15h33c9 0 15 -6 15 -15v-257h135c149 0 229 -93 229 -214c0 -122 -80 -214 -229 -214zM621 685c0 9 6 15 15 15h33c9 0 15 -6 15 -15v-670c0 -9 -6 -15 -15 -15h-33c-9 0 -15 6 -15 15v670zM255 369h-131v-310h131
c97 0 172 44 172 155s-75 155 -172 155z" />
    <glyph glyph-name="uni0404" unicode="&#x404;" horiz-adv-x="668" 
d="M626 102c8 -7 6 -16 -1 -21c-64 -54 -142 -94 -234 -94c-197 0 -350 160 -350 360c0 201 153 361 350 361c92 0 170 -40 234 -93c7 -6 9 -14 1 -21l-21 -21c-8 -7 -14 -6 -21 0c-54 45 -116 74 -192 74c-148 0 -271 -112 -286 -267h282c9 0 15 -6 15 -15v-29
c0 -9 -6 -15 -15 -15h-283c12 -158 137 -273 287 -273c76 0 138 29 192 74c7 6 13 7 21 0z" />
    <glyph glyph-name="uni042D" unicode="&#x42d;" horiz-adv-x="668" 
d="M282 708c197 0 350 -160 350 -361c0 -200 -153 -360 -350 -360c-92 0 -170 40 -234 94c-7 5 -9 14 -1 21l21 20c8 7 14 6 21 0c54 -45 116 -74 192 -74c150 0 275 115 287 273h-283c-9 0 -15 6 -15 15v29c0 9 6 15 15 15h282c-15 155 -138 267 -286 267
c-76 0 -138 -29 -192 -74c-7 -6 -13 -7 -21 0l-21 21c-8 7 -6 15 1 21c64 53 142 93 234 93z" />
    <glyph glyph-name="uni0406" unicode="&#x406;" horiz-adv-x="185" 
d="M61 685c0 9 6 15 15 15h33c9 0 15 -6 15 -15v-670c0 -9 -6 -15 -15 -15h-33c-9 0 -15 6 -15 15v670z" />
    <glyph glyph-name="uni0407" unicode="&#x407;" horiz-adv-x="185" 
d="M6 841c-21 0 -38 17 -38 37s17 37 38 37s38 -17 38 -37s-17 -37 -38 -37zM180 841c-20 0 -38 17 -38 37s18 37 38 37c21 0 38 -17 38 -37s-17 -37 -38 -37zM61 685c0 9 6 15 15 15h33c9 0 15 -6 15 -15v-670c0 -9 -6 -15 -15 -15h-33c-9 0 -15 6 -15 15v670z" />
    <glyph glyph-name="uni042E" unicode="&#x42e;" horiz-adv-x="975" 
d="M578 708c197 0 356 -160 356 -361c0 -200 -159 -360 -356 -360c-189 0 -344 146 -357 334h-97v-306c0 -9 -6 -15 -15 -15h-33c-9 0 -15 6 -15 15v670c0 9 6 15 15 15h33c9 0 15 -6 15 -15v-305h97c17 185 170 328 357 328zM578 45c165 0 296 134 296 302
c0 170 -131 304 -296 304c-167 0 -298 -134 -298 -304c0 -168 131 -302 298 -302z" />
    <glyph glyph-name="uni042F" unicode="&#x42f;" horiz-adv-x="533" 
d="M457 700c9 0 15 -6 15 -15v-670c0 -9 -6 -15 -15 -15h-33c-9 0 -15 6 -15 15v257h-124l-176 -262c-4 -7 -10 -10 -18 -10h-37c-12 0 -17 7 -10 18l177 258c-115 20 -176 104 -176 210c0 122 80 214 229 214h183zM409 331v310h-131c-97 0 -172 -44 -172 -155
s75 -155 172 -155h131z" />
    <glyph glyph-name="uni0430" unicode="&#x430;" 
d="M503 490c9 0 15 -6 15 -15v-460c0 -9 -6 -15 -15 -15h-27c-9 0 -14 6 -15 15l-5 65c-38 -56 -100 -92 -179 -92c-141 0 -241 113 -241 256s100 256 241 256c80 0 142 -36 180 -93l4 68c1 9 6 15 15 15h27zM281 43c93 0 164 69 181 159l2 42l-2 43
c-17 90 -88 159 -181 159c-108 0 -187 -86 -187 -201c0 -116 79 -202 187 -202z" />
    <glyph glyph-name="uni0431" unicode="&#x431;" 
d="M293 500c140 0 240 -113 240 -256s-100 -256 -240 -256c-79 0 -141 36 -179 92l-5 -65c-1 -9 -6 -15 -15 -15h-28c-9 0 -15 6 -15 15v512c0 119 42 173 162 173h131c46 0 60 9 73 20h62c-15 -65 -60 -75 -133 -75h-125c-75 0 -105 -31 -105 -108l-1 -127
c39 55 99 90 178 90zM289 43c107 0 187 86 187 202c0 115 -80 201 -187 201c-93 0 -164 -69 -181 -159l-2 -43l2 -42c17 -90 88 -159 181 -159z" />
    <glyph glyph-name="uni0432" unicode="&#x432;" horiz-adv-x="504" 
d="M350 267c82 -11 123 -68 123 -126c0 -80 -53 -141 -207 -141h-200c-9 0 -15 6 -15 15v460c0 9 6 15 15 15h200c116 0 166 -51 166 -115c0 -54 -31 -92 -82 -108zM267 438h-156v-146h144c91 0 120 30 120 74c0 38 -16 72 -108 72zM267 53c120 0 149 44 149 89
c0 46 -29 98 -161 98h-144v-187h156z" />
    <glyph glyph-name="uni0433" unicode="&#x433;" horiz-adv-x="395" 
d="M349 490c9 0 15 -6 15 -15v-22c0 -9 -6 -15 -15 -15h-238v-423c0 -9 -6 -15 -15 -15h-30c-9 0 -15 6 -15 15v460c0 9 6 15 15 15h30h1h1h251z" />
    <glyph glyph-name="uni0453" unicode="&#x453;" horiz-adv-x="395" 
d="M189 543c-11 0 -17 6 -12 17l60 126c4 9 9 12 17 12h18c11 0 17 -6 12 -17l-60 -126c-4 -9 -9 -12 -17 -12h-18zM349 490c9 0 15 -6 15 -15v-22c0 -9 -6 -15 -15 -15h-238v-423c0 -9 -6 -15 -15 -15h-30c-9 0 -15 6 -15 15v460c0 9 6 15 15 15h30h1h1h251z" />
    <glyph glyph-name="uni0491" unicode="&#x491;" horiz-adv-x="395" 
d="M349 552c9 0 15 -6 15 -15v-84c0 -9 -6 -15 -15 -15h-238v-423c0 -9 -6 -15 -15 -15h-30c-9 0 -15 6 -15 15v460c0 9 6 15 15 15h30h1h1h206v47c0 9 6 15 15 15h30z" />
    <glyph glyph-name="uni0434" unicode="&#x434;" horiz-adv-x="640" 
d="M595 53c9 0 15 -6 15 -15v-95c0 -9 -6 -15 -15 -15h-30c-9 0 -15 6 -15 15v57h-457c-1 0 -2 0 -3 -1v-56c0 -9 -6 -15 -15 -15h-30c-9 0 -15 6 -15 15v94c0 10 3 13 13 13h25c54 12 74 63 74 147v278c0 9 6 15 15 15h387c8 0 14 -6 14 -15v-422h37zM202 438v-241
c0 -63 -12 -111 -34 -144h330v385h-296z" />
    <glyph glyph-name="uni0435" unicode="&#x435;" horiz-adv-x="540" 
d="M275 501c140 0 229 -113 229 -236c0 -32 -4 -47 -28 -47h-381c11 -99 83 -177 194 -177c66 0 110 25 141 53c7 6 13 10 21 3l13 -12c8 -8 9 -15 1 -23c-46 -48 -110 -75 -183 -75c-144 0 -246 113 -246 257s98 257 239 257zM274 447c-101 0 -170 -78 -179 -179h356
c-2 97 -74 179 -177 179z" />
    <glyph glyph-name="uni0451" unicode="&#x451;" horiz-adv-x="540" 
d="M211 661c-21 0 -38 17 -38 37s17 37 38 37s38 -17 38 -37s-17 -37 -38 -37zM385 661c-20 0 -38 17 -38 37s18 37 38 37c21 0 38 -17 38 -37s-17 -37 -38 -37zM275 501c140 0 229 -113 229 -236c0 -32 -4 -47 -28 -47h-381c11 -99 83 -177 194 -177c66 0 110 25 141 53
c7 6 13 10 21 3l13 -12c8 -8 9 -15 1 -23c-46 -48 -110 -75 -183 -75c-144 0 -246 113 -246 257s98 257 239 257zM274 447c-101 0 -170 -78 -179 -179h356c-2 97 -74 179 -177 179z" />
    <glyph glyph-name="uni0436" unicode="&#x436;" horiz-adv-x="809" 
d="M778 18c8 -10 5 -18 -8 -18h-42c-7 0 -13 2 -18 8l-201 235l-75 -74v-154c0 -9 -6 -15 -15 -15h-30c-9 0 -15 6 -15 15v154l-75 74l-201 -235c-5 -6 -11 -8 -18 -8h-42c-13 0 -16 8 -8 18l227 266l-189 188c-10 10 -6 18 7 18h42c7 0 13 -2 19 -8l238 -236v229
c0 9 6 15 15 15h30c9 0 15 -6 15 -15v-229l238 236c6 6 12 8 19 8h42c13 0 17 -8 7 -18l-189 -188z" />
    <glyph glyph-name="uni0437" unicode="&#x437;" horiz-adv-x="393" 
d="M273 265c52 -25 85 -69 85 -122c0 -83 -66 -151 -173 -151c-56 0 -111 22 -144 63c-8 10 -9 18 2 28l12 10c8 8 17 6 27 -4c18 -19 50 -44 107 -44c69 0 111 44 111 96c0 57 -55 94 -125 94c-14 0 -24 9 -24 20v11c0 14 10 23 24 23c58 0 106 33 106 81
c0 42 -38 73 -89 73c-38 0 -72 -16 -99 -42c-9 -8 -19 -11 -29 -1l-9 9c-9 9 -9 16 0 26c36 40 80 61 133 61c91 0 150 -59 150 -131c0 -39 -25 -75 -65 -100z" />
    <glyph glyph-name="uni0438" unicode="&#x438;" horiz-adv-x="544" 
d="M478 490c8 0 14 -6 14 -15v-460c0 -9 -6 -15 -15 -15h-30c-9 0 -15 6 -15 15v408l-283 -413c-4 -6 -11 -10 -19 -10h-64c-9 0 -15 6 -15 15v460c0 9 6 15 15 15h30c9 0 15 -6 15 -15v-420l291 425c4 6 11 10 19 10h57z" />
    <glyph glyph-name="uni0439" unicode="&#x439;" horiz-adv-x="544" 
d="M273 569c-75 0 -125 50 -132 115c-1 10 4 15 14 15h15c9 0 14 -5 16 -14c8 -41 39 -71 87 -71s80 30 88 71c2 9 7 14 16 14h15c10 0 15 -5 14 -15c-7 -65 -57 -115 -133 -115zM478 490c8 0 14 -6 14 -15v-460c0 -9 -6 -15 -15 -15h-30c-9 0 -15 6 -15 15v408l-283 -413
c-4 -6 -11 -10 -19 -10h-64c-9 0 -15 6 -15 15v460c0 9 6 15 15 15h30c9 0 15 -6 15 -15v-420l291 425c4 6 11 10 19 10h57z" />
    <glyph glyph-name="uni043A" unicode="&#x43a;" horiz-adv-x="486" 
d="M455 18c8 -10 5 -18 -8 -18h-42c-7 0 -13 2 -18 8l-201 235l-75 -74v-154c0 -9 -6 -15 -15 -15h-30c-9 0 -15 6 -15 15v460c0 9 6 15 15 15h30c9 0 15 -6 15 -15v-229l238 236c6 6 12 8 19 8h42c13 0 17 -8 7 -18l-189 -188z" />
    <glyph glyph-name="uni043B" unicode="&#x43b;" horiz-adv-x="585" 
d="M519 490c8 0 14 -6 14 -15v-460c0 -9 -6 -15 -15 -15h-30c-9 0 -15 6 -15 15v423h-296v-241c0 -137 -57 -202 -152 -202c-6 0 -10 4 -11 9l-8 32c-2 6 1 11 8 11c76 0 103 52 103 150v278c0 9 6 15 15 15h387z" />
    <glyph glyph-name="uni043C" unicode="&#x43c;" horiz-adv-x="677" 
d="M613 490c7 -1 12 -7 12 -15v-460c0 -9 -6 -15 -15 -15h-30c-9 0 -15 6 -15 15v378l-189 -382c-5 -7 -9 -11 -17 -11h-42c-8 0 -13 4 -17 11l-189 384v-380c0 -9 -6 -15 -15 -15h-30c-9 0 -15 6 -15 15v460c0 8 5 14 13 15h55c8 0 13 -4 17 -11l202 -412l202 412
c4 7 9 11 17 11h56z" />
    <glyph glyph-name="uni043D" unicode="&#x43d;" horiz-adv-x="536" 
d="M470 490c9 0 15 -6 15 -15v-460c0 -9 -6 -15 -15 -15h-30c-9 0 -15 6 -15 15v204h-314v-204c0 -9 -6 -15 -15 -15h-30c-9 0 -15 6 -15 15v460c0 9 6 15 15 15h30c9 0 15 -6 15 -15v-204h314v204c0 9 6 15 15 15h30z" />
    <glyph glyph-name="uni043E" unicode="&#x43e;" horiz-adv-x="566" 
d="M283 -13c-140 0 -247 112 -247 257s107 257 247 257s246 -112 246 -257s-106 -257 -246 -257zM283 41c106 0 189 85 189 203s-83 203 -189 203c-107 0 -189 -85 -189 -203s82 -203 189 -203z" />
    <glyph glyph-name="uni043F" unicode="&#x43f;" horiz-adv-x="536" 
d="M470 490c9 0 15 -6 15 -15v-460c0 -9 -6 -15 -15 -15h-30c-9 0 -15 6 -15 15v423h-314v-423c0 -9 -6 -15 -15 -15h-30c-9 0 -15 6 -15 15v460c0 9 6 15 15 15h404z" />
    <glyph glyph-name="uni0440" unicode="&#x440;" 
d="M293 500c141 0 241 -113 241 -256s-100 -256 -241 -256c-79 0 -141 36 -179 92l-3 -37v-218c0 -9 -6 -15 -15 -15h-30c-9 0 -15 6 -15 15v300c0 2 0 4 1 6v344c0 9 6 15 15 15h27c9 0 14 -6 15 -15l4 -68c38 57 100 93 180 93zM289 43c108 0 187 86 187 202
c0 115 -79 201 -187 201c-93 0 -164 -69 -181 -159l-2 -43l2 -42c17 -90 88 -159 181 -159z" />
    <glyph glyph-name="uni0441" unicode="&#x441;" horiz-adv-x="506" 
d="M281 41c87 0 123 39 151 68c8 8 15 7 22 0l16 -14c6 -6 7 -14 1 -21c-46 -53 -110 -87 -190 -87c-141 0 -245 113 -245 257s104 257 245 257c78 0 141 -34 187 -87c6 -7 5 -15 -1 -21l-16 -13c-7 -7 -14 -8 -22 -1c-29 27 -63 68 -148 68c-110 0 -187 -87 -187 -203
s77 -203 187 -203z" />
    <glyph glyph-name="uni0442" unicode="&#x442;" horiz-adv-x="429" 
d="M377 490c9 0 15 -6 15 -15v-22c0 -9 -6 -15 -15 -15h-133v-423c0 -9 -6 -15 -15 -15h-30c-9 0 -15 6 -15 15v423h-133c-9 0 -15 6 -15 15v22c0 9 6 15 15 15h326z" />
    <glyph glyph-name="uni0443" unicode="&#x443;" horiz-adv-x="495" 
d="M455 490c11 0 16 -6 12 -17l-258 -651c-3 -8 -10 -12 -18 -12h-31c-11 0 -16 6 -12 17l68 171l-188 475c-4 11 1 17 12 17h31c8 0 15 -4 18 -12l158 -411l158 411c3 8 10 12 18 12h32z" />
    <glyph glyph-name="uni0444" unicode="&#x444;" horiz-adv-x="976" 
d="M699 500c141 0 241 -113 241 -256s-100 -256 -241 -256c-79 0 -141 36 -179 92l-2 -24v-43c0 -2 0 -4 -1 -6v-182c0 -9 -6 -15 -15 -15h-30c-9 0 -15 6 -15 15v256c-38 -57 -100 -93 -180 -93c-141 0 -241 113 -241 256s100 256 241 256c79 0 141 -36 179 -92l2 24v43
c0 2 0 4 1 6v182c0 9 6 15 15 15h30c9 0 15 -6 15 -15v-256c38 57 100 93 180 93zM695 43c108 0 187 86 187 202c0 115 -79 201 -187 201c-87 0 -155 -60 -177 -141v-120c22 -81 90 -142 177 -142zM281 42c87 0 155 60 177 141v120c-22 81 -90 142 -177 142
c-108 0 -187 -86 -187 -202c0 -115 79 -201 187 -201z" />
    <glyph glyph-name="uni0445" unicode="&#x445;" horiz-adv-x="437" 
d="M403 18c7 -10 2 -18 -10 -18h-34c-8 0 -14 3 -18 10l-122 192l-123 -192c-5 -7 -10 -10 -18 -10h-34c-12 0 -17 8 -10 18l155 232l-148 222c-6 10 -2 18 10 18h34c8 0 13 -3 18 -10l116 -181l115 181c4 7 10 10 18 10h34c12 0 17 -8 10 -18l-149 -222z" />
    <glyph glyph-name="uni0447" unicode="&#x447;" horiz-adv-x="519" 
d="M452 490c9 0 15 -6 15 -15v-460c0 -9 -6 -15 -15 -15h-30c-9 0 -15 6 -15 15v206c-30 -40 -100 -92 -194 -92c-71 0 -177 32 -177 179v167c0 9 6 15 15 15h30c9 0 15 -6 15 -15v-162c0 -98 56 -124 129 -124c88 0 151 55 182 101v185c0 9 6 15 15 15h30z" />
    <glyph glyph-name="uni0446" unicode="&#x446;" horiz-adv-x="553" 
d="M508 53c9 0 15 -6 15 -15v-95c0 -9 -6 -15 -15 -15h-30c-9 0 -15 6 -15 15v57h-397c-9 0 -15 6 -15 15v460c0 9 6 15 15 15h30c9 0 15 -6 15 -15v-423h310v1h4v422c0 9 6 15 15 15h30c9 0 15 -6 15 -15v-422h23z" />
    <glyph glyph-name="uni0448" unicode="&#x448;" horiz-adv-x="643" 
d="M576 490c9 0 15 -6 15 -15v-460c0 -9 -6 -15 -15 -15h-510c-9 0 -15 6 -15 15v460c0 9 6 15 15 15h30c9 0 15 -6 15 -15v-422h180v422c0 9 6 15 15 15h30c9 0 15 -6 15 -15v-422h180v422c0 9 6 15 15 15h30z" />
    <glyph glyph-name="uni0449" unicode="&#x449;" horiz-adv-x="663" 
d="M618 53c9 0 15 -6 15 -15v-95c0 -9 -6 -15 -15 -15h-30c-9 0 -15 6 -15 15v57h-507c-9 0 -15 6 -15 15v460c0 9 6 15 15 15h30c9 0 15 -6 15 -15v-422h180v422c0 9 6 15 15 15h30c9 0 15 -6 15 -15v-422h180v422c0 9 6 15 15 15h30c9 0 15 -6 15 -15v-422h27z" />
    <glyph glyph-name="uni044C" unicode="&#x44c;" horiz-adv-x="521" 
d="M285 326c139 0 205 -68 205 -163c0 -94 -66 -163 -205 -163h-175v9c-2 -6 -7 -9 -14 -9h-30c-9 0 -15 6 -15 15v460c0 9 6 15 15 15h30c9 0 15 -6 15 -15v-149h174zM287 56c102 0 146 41 146 107s-44 107 -146 107h-176v-214h176z" />
    <glyph glyph-name="uni044A" unicode="&#x44a;" horiz-adv-x="542" 
d="M306 326c139 0 205 -68 205 -163c0 -94 -66 -163 -205 -163h-175v9c-2 -6 -7 -9 -14 -9h-30c-9 0 -15 6 -15 15v423h-37c-9 0 -15 6 -15 15v22c0 9 6 15 15 15h82c9 0 15 -6 15 -15v-149h174zM308 56c102 0 146 41 146 107s-44 107 -146 107h-176v-214h176z" />
    <glyph glyph-name="uni044B" unicode="&#x44b;" horiz-adv-x="701" 
d="M285 326c139 0 205 -68 205 -163c0 -94 -66 -163 -205 -163h-175v9c-2 -6 -7 -9 -14 -9h-30c-9 0 -15 6 -15 15v460c0 9 6 15 15 15h30c9 0 15 -6 15 -15v-149h174zM635 490c9 0 15 -6 15 -15v-460c0 -9 -6 -15 -15 -15h-30c-9 0 -15 6 -15 15v460c0 9 6 15 15 15h30z
M287 56c102 0 146 41 146 107s-44 107 -146 107h-176v-214h176z" />
    <glyph glyph-name="uni0454" unicode="&#x454;" horiz-adv-x="506" 
d="M470 95c6 -6 7 -14 1 -21c-46 -53 -110 -87 -190 -87c-141 0 -245 113 -245 257s104 257 245 257c78 0 141 -34 187 -87c6 -7 5 -15 -1 -21l-16 -13c-7 -7 -14 -8 -22 -1c-29 27 -63 68 -148 68c-102 0 -176 -75 -186 -178h203c9 0 15 -6 15 -15v-20c0 -9 -6 -15 -15 -15
h-203c10 -103 84 -178 186 -178c87 0 123 39 151 68c8 8 15 7 22 0z" />
    <glyph glyph-name="uni044D" unicode="&#x44d;" horiz-adv-x="506" 
d="M230 501c141 0 245 -113 245 -257s-104 -257 -245 -257c-80 0 -144 34 -190 87c-6 7 -5 15 1 21l16 14c7 7 14 8 22 0c28 -29 64 -68 151 -68c102 0 176 75 186 178h-203c-9 0 -15 6 -15 15v20c0 9 6 15 15 15h203c-10 103 -84 178 -186 178c-85 0 -119 -41 -148 -68
c-8 -7 -15 -6 -22 1l-16 13c-6 6 -7 14 -1 21c46 53 109 87 187 87z" />
    <glyph glyph-name="uni0457" unicode="&#x457;" horiz-adv-x="163" 
d="M-5 631c-21 0 -38 17 -38 37s17 37 38 37s38 -17 38 -37s-17 -37 -38 -37zM169 631c-20 0 -38 17 -38 37s18 37 38 37c21 0 38 -17 38 -37s-17 -37 -38 -37zM51 475c0 9 6 15 15 15h30c9 0 15 -6 15 -15v-460c0 -9 -6 -15 -15 -15h-30c-9 0 -15 6 -15 15v460z" />
    <glyph glyph-name="uni044E" unicode="&#x44e;" horiz-adv-x="716" 
d="M434 501c140 0 246 -112 246 -257s-106 -257 -246 -257c-132 0 -234 99 -246 232h-77v-205c0 -9 -6 -15 -15 -15h-30c-9 0 -15 6 -15 15v460c0 9 6 15 15 15h30c9 0 15 -6 15 -15v-204h77c12 132 114 231 246 231zM434 41c106 0 189 85 189 203s-83 203 -189 203
c-107 0 -189 -85 -189 -203s82 -203 189 -203z" />
    <glyph glyph-name="uni044F" unicode="&#x44f;" horiz-adv-x="508" 
d="M441 490c9 0 15 -6 15 -15v-460c0 -9 -6 -15 -15 -15h-30c-9 0 -15 6 -15 15v149h-148l-140 -156c-5 -6 -11 -8 -18 -8h-36c-13 0 -17 9 -8 18l136 151c-100 17 -146 79 -146 158c0 95 65 163 206 163h199zM240 220h156v214h-156c-104 0 -146 -40 -146 -107
s42 -107 146 -107z" />
    <glyph glyph-name="uni0394" unicode="&#x394;" horiz-adv-x="623" 
d="M595 17c4 -10 -1 -17 -12 -17h-543c-11 0 -16 7 -12 17l247 671c3 8 10 12 18 12h37c8 0 15 -4 18 -12zM312 627l-208 -574h415z" />
    <glyph glyph-name="uni03A9" unicode="&#x3a9;" horiz-adv-x="798" 
d="M644 89v-36h112v-53h-174v110c71 55 114 130 114 244c0 166 -130 297 -297 297s-298 -131 -298 -297c0 -114 44 -189 115 -244v-110h-175v53h112v36c-74 64 -112 157 -112 265c0 198 160 354 358 354s357 -156 357 -354c0 -108 -37 -201 -112 -265z" />
    <glyph glyph-name="uni03BC" unicode="&#x3bc;" horiz-adv-x="497" 
d="M431 490c9 0 15 -6 15 -15v-460c0 -9 -6 -15 -15 -15h-26c-9 0 -14 6 -15 15l-4 61c-34 -50 -86 -89 -160 -89c-49 0 -90 12 -120 37v-199c0 -9 -6 -15 -15 -15h-30c-9 0 -15 6 -15 15v650c0 9 6 15 15 15h30c9 0 15 -6 15 -15v-294c0 -89 44 -143 124 -143
c100 0 156 98 156 128v309c0 9 6 15 15 15h30z" />
    <glyph glyph-name="pi" unicode="&#x3c0;" horiz-adv-x="593" 
d="M551 490c9 0 15 -6 15 -15v-22c0 -9 -6 -15 -15 -15h-90v-347c0 -29 15 -43 39 -43c10 0 26 0 38 2c11 2 18 -4 18 -14v-18c0 -19 -40 -25 -66 -25c-60 0 -89 30 -89 97v348h-197v-423c0 -9 -6 -15 -15 -15h-30c-9 0 -15 6 -15 15v423h-85c-9 0 -15 6 -15 15v22
c0 9 6 15 15 15h492z" />
    <glyph glyph-name="zero" unicode="0" horiz-adv-x="587" 
d="M293 708c160 0 257 -133 257 -361c0 -226 -97 -360 -257 -360c-159 0 -257 134 -257 360c0 228 98 361 257 361zM293 654c-120 0 -199 -109 -199 -307c0 -197 79 -306 199 -306c121 0 200 109 200 306c0 198 -79 307 -200 307z" />
    <glyph glyph-name="one" unicode="1" horiz-adv-x="233" 
d="M167 700c9 0 15 -6 15 -15v-670c0 -9 -6 -15 -15 -15h-30c-9 0 -15 6 -15 15v631h-71c-9 0 -15 6 -15 15v24c0 9 6 15 15 15h116z" />
    <glyph glyph-name="two" unicode="2" horiz-adv-x="501" 
d="M445 54c9 0 15 -6 15 -15v-24c0 -9 -6 -15 -15 -15h-389c-9 0 -15 6 -15 15v39l179 188c120 127 177 183 177 264c0 86 -54 146 -151 146c-88 0 -129 -49 -157 -75c-8 -8 -15 -7 -22 0l-17 16c-6 6 -7 14 -1 21c46 52 112 94 196 94c130 0 210 -88 210 -203
c0 -92 -58 -160 -173 -281l-164 -170h327z" />
    <glyph glyph-name="three" unicode="3" horiz-adv-x="501" 
d="M336 377c72 -29 130 -94 130 -185c0 -121 -101 -205 -226 -205c-94 0 -155 36 -201 86c-6 7 -5 15 1 21l16 14c7 7 13 8 22 0c27 -26 65 -67 164 -67c92 0 167 59 167 149c0 106 -87 156 -191 159c-10 0 -15 6 -15 15v22c0 9 5 16 15 16c101 3 163 59 163 132
c0 75 -64 121 -136 121c-83 0 -121 -42 -148 -69c-8 -8 -15 -7 -22 0l-14 13c-6 6 -7 15 -1 21c45 50 104 88 184 88c101 0 193 -73 193 -177c0 -68 -41 -126 -101 -154z" />
    <glyph glyph-name="four" unicode="4" horiz-adv-x="519" 
d="M469 231c9 0 15 -6 15 -15v-24c0 -9 -6 -15 -15 -15h-72v-162c0 -9 -6 -15 -15 -15h-30c-9 0 -15 6 -15 15v162h-292c-9 0 -15 6 -15 15v29c0 7 1 13 5 19l296 450c6 7 10 10 18 10h33c9 0 15 -6 15 -15v-454h72zM337 231v368l-241 -368h241z" />
    <glyph glyph-name="five" unicode="5" horiz-adv-x="512" 
d="M245 454c114 0 226 -90 226 -230c0 -146 -110 -236 -235 -236c-89 0 -159 45 -191 88c-6 9 -4 16 3 21l18 17c8 6 16 5 22 -3c27 -31 72 -69 149 -69c87 0 176 69 176 182c0 109 -95 175 -172 175c-49 0 -101 -14 -145 -68c-5 -7 -12 -9 -20 -5l-22 12
c-8 5 -12 11 -10 20l86 329c2 8 7 13 16 13h268c9 0 15 -6 15 -15v-22c0 -9 -6 -15 -15 -15h-240l-61 -235c32 25 80 41 132 41z" />
    <glyph glyph-name="six" unicode="6" horiz-adv-x="502" 
d="M254 438c124 0 218 -100 218 -224s-97 -227 -221 -227s-221 103 -221 227c0 54 18 102 56 156l245 341c6 8 13 10 21 3l19 -17c6 -5 9 -13 3 -21l-178 -248c19 6 39 10 58 10zM251 41c93 0 164 71 164 173c0 98 -71 170 -164 170c-92 0 -163 -72 -163 -170
c0 -102 71 -173 163 -173z" />
    <glyph glyph-name="seven" unicode="7" horiz-adv-x="481" 
d="M448 700c9 0 16 -6 12 -15l-277 -670c-4 -9 -9 -15 -18 -15h-31c-9 0 -15 6 -11 15l262 631h-334c-9 0 -15 6 -15 15v24c0 9 6 15 15 15h397z" />
    <glyph glyph-name="eight" unicode="8" horiz-adv-x="517" 
d="M339 386c72 -27 137 -100 137 -194c0 -125 -101 -205 -217 -205c-117 0 -218 80 -218 205c0 94 65 167 137 194c-66 30 -101 90 -101 152c0 88 72 170 182 170s182 -82 182 -170c0 -62 -35 -122 -102 -152zM131 542c-2 -71 57 -125 128 -125s129 54 128 125
c-2 63 -47 117 -128 117s-127 -54 -128 -117zM259 41c87 0 161 56 161 152c0 91 -72 157 -161 157c-90 0 -162 -66 -162 -157c0 -95 74 -152 162 -152z" />
    <glyph glyph-name="nine" unicode="9" horiz-adv-x="502" 
d="M251 708c124 0 221 -103 221 -227c0 -54 -18 -102 -56 -156l-245 -341c-6 -8 -13 -10 -21 -3l-19 17c-6 5 -9 13 -3 21l178 248c-19 -6 -39 -10 -58 -10c-124 0 -218 100 -218 224s97 227 221 227zM251 311c92 0 163 72 163 170c0 102 -71 173 -163 173
c-93 0 -164 -71 -164 -173c0 -98 71 -170 164 -170z" />
    <glyph glyph-name="zero.tf" horiz-adv-x="710" 
d="M355 708c160 0 257 -133 257 -361c0 -226 -97 -360 -257 -360c-159 0 -257 134 -257 360c0 228 98 361 257 361zM355 654c-120 0 -199 -109 -199 -307c0 -197 79 -306 199 -306c121 0 200 109 200 306c0 198 -79 307 -200 307z" />
    <glyph glyph-name="one.tf" horiz-adv-x="710" 
d="M425 700c9 0 15 -6 15 -15v-670c0 -9 -6 -15 -15 -15h-30c-9 0 -15 6 -15 15v631h-71c-9 0 -15 6 -15 15v24c0 9 6 15 15 15h116z" />
    <glyph glyph-name="two.tf" horiz-adv-x="710" 
d="M547 54c9 0 15 -6 15 -15v-24c0 -9 -6 -15 -15 -15h-389c-9 0 -15 6 -15 15v39l179 188c120 127 177 183 177 264c0 86 -54 146 -151 146c-88 0 -129 -49 -157 -75c-8 -8 -15 -7 -22 0l-17 16c-6 6 -7 14 -1 21c46 52 112 94 196 94c130 0 210 -88 210 -203
c0 -92 -58 -160 -173 -281l-164 -170h327z" />
    <glyph glyph-name="three.tf" horiz-adv-x="710" 
d="M440 377c72 -29 130 -94 130 -185c0 -121 -101 -205 -226 -205c-94 0 -155 36 -201 86c-6 7 -5 15 1 21l16 14c7 7 13 8 22 0c27 -26 65 -67 164 -67c92 0 167 59 167 149c0 106 -87 156 -191 159c-10 0 -15 6 -15 15v22c0 9 5 16 15 16c101 3 163 59 163 132
c0 75 -64 121 -136 121c-83 0 -121 -42 -148 -69c-8 -8 -15 -7 -22 0l-14 13c-6 6 -7 15 -1 21c45 50 104 88 184 88c101 0 193 -73 193 -177c0 -68 -41 -126 -101 -154z" />
    <glyph glyph-name="four.tf" horiz-adv-x="710" 
d="M566 231c9 0 15 -6 15 -15v-24c0 -9 -6 -15 -15 -15h-72v-162c0 -9 -6 -15 -15 -15h-30c-9 0 -15 6 -15 15v162h-292c-9 0 -15 6 -15 15v29c0 7 1 13 5 19l296 450c6 7 10 10 18 10h33c9 0 15 -6 15 -15v-454h72zM434 231v368l-241 -368h241z" />
    <glyph glyph-name="five.tf" horiz-adv-x="710" 
d="M341 454c114 0 226 -90 226 -230c0 -146 -110 -236 -235 -236c-89 0 -159 45 -191 88c-6 9 -4 16 3 21l18 17c8 6 16 5 22 -3c27 -31 72 -69 149 -69c87 0 176 69 176 182c0 109 -95 175 -172 175c-49 0 -101 -14 -145 -68c-5 -7 -12 -9 -20 -5l-22 12
c-8 5 -12 11 -10 20l86 329c2 8 7 13 16 13h268c9 0 15 -6 15 -15v-22c0 -9 -6 -15 -15 -15h-240l-61 -235c32 25 80 41 132 41z" />
    <glyph glyph-name="six.tf" horiz-adv-x="710" 
d="M358 438c124 0 218 -100 218 -224s-97 -227 -221 -227s-221 103 -221 227c0 54 18 102 56 156l245 341c6 8 13 10 21 3l19 -17c6 -5 9 -13 3 -21l-178 -248c19 6 39 10 58 10zM355 41c93 0 164 71 164 173c0 98 -71 170 -164 170c-92 0 -163 -72 -163 -170
c0 -102 71 -173 163 -173z" />
    <glyph glyph-name="seven.tf" horiz-adv-x="710" 
d="M555 700c9 0 16 -6 12 -15l-277 -670c-4 -9 -9 -15 -18 -15h-31c-9 0 -15 6 -11 15l262 631h-334c-9 0 -15 6 -15 15v24c0 9 6 15 15 15h397z" />
    <glyph glyph-name="eight.tf" horiz-adv-x="710" 
d="M436 386c72 -27 137 -100 137 -194c0 -125 -101 -205 -217 -205c-117 0 -218 80 -218 205c0 94 65 167 137 194c-66 30 -101 90 -101 152c0 88 72 170 182 170s182 -82 182 -170c0 -62 -35 -122 -102 -152zM228 542c-2 -71 57 -125 128 -125s129 54 128 125
c-2 63 -47 117 -128 117s-127 -54 -128 -117zM356 41c87 0 161 56 161 152c0 91 -72 157 -161 157c-90 0 -162 -66 -162 -157c0 -95 74 -152 162 -152z" />
    <glyph glyph-name="nine.tf" horiz-adv-x="710" 
d="M350 708c124 0 221 -103 221 -227c0 -54 -18 -102 -56 -156l-245 -341c-6 -8 -13 -10 -21 -3l-19 17c-6 5 -9 13 -3 21l178 248c-19 -6 -39 -10 -58 -10c-124 0 -218 100 -218 224s97 227 221 227zM350 311c92 0 163 72 163 170c0 102 -71 173 -163 173
c-93 0 -164 -71 -164 -173c0 -98 71 -170 164 -170z" />
    <glyph glyph-name="zero.dnom" horiz-adv-x="270" 
d="M135 263c62 0 105 -51 105 -126v-13c0 -75 -43 -126 -105 -126c-60 0 -105 51 -105 126v13c0 75 45 126 105 126zM135 232c-38 0 -68 -35 -68 -95v-13c0 -60 30 -95 68 -95c41 0 68 35 68 95v13c0 60 -27 95 -68 95z" />
    <glyph glyph-name="one.dnom" horiz-adv-x="124" 
d="M94 261v-261h-37v225h-27v36h64z" />
    <glyph glyph-name="two.dnom" horiz-adv-x="231" 
d="M114 264c46 0 84 -36 84 -75c0 -38 -23 -62 -68 -108l-47 -49h118v-32h-168v32l68 69c44 46 59 60 59 88c0 25 -22 44 -46 44c-23 0 -47 -16 -47 -50v-14h-37v14c0 48 39 81 84 81z" />
    <glyph glyph-name="three.dnom" horiz-adv-x="243" 
d="M121 263c43 0 80 -32 80 -68c0 -20 -10 -39 -30 -53c23 -10 42 -32 42 -66c0 -46 -43 -80 -92 -80c-55 0 -92 43 -91 91h38c2 -31 20 -59 53 -59c29 0 54 19 54 48c0 38 -30 47 -74 49v28c45 0 63 18 63 42c0 21 -19 37 -43 37c-28 0 -46 -18 -47 -54h-37
c0 51 35 85 84 85z" />
    <glyph glyph-name="four.dnom" horiz-adv-x="256" 
d="M199 261v-154h27v-31h-27v-76h-37v76h-132l132 185h37zM162 207l-70 -100h70v100z" />
    <glyph glyph-name="five.dnom" horiz-adv-x="245" 
d="M191 261v-32h-104l-8 -58c13 6 29 10 45 10c45 0 91 -39 91 -92c0 -52 -43 -93 -95 -93c-46 0 -82 31 -90 62l33 19c2 -26 24 -49 57 -49c30 0 57 25 57 61c0 34 -27 60 -53 60c-22 0 -41 -8 -57 -29l-32 8l18 133h138z" />
    <glyph glyph-name="six.dnom" horiz-adv-x="233" 
d="M179 261l-68 -96h6c45 0 86 -39 86 -84c0 -47 -42 -85 -86 -85c-45 0 -87 38 -87 85c0 45 27 69 50 101l57 79h42zM117 133c-29 0 -50 -20 -50 -52s26 -53 50 -53c23 0 49 21 49 53s-26 52 -49 52z" />
    <glyph glyph-name="seven.dnom" horiz-adv-x="233" 
d="M203 261l-102 -261h-39l89 229h-121v32h173z" />
    <glyph glyph-name="eight.dnom" horiz-adv-x="243" 
d="M121 263c51 0 79 -34 79 -67c0 -20 -9 -40 -30 -53c28 -14 43 -37 43 -66c0 -46 -42 -79 -92 -79c-48 0 -91 33 -91 79c0 29 16 53 43 66c-20 13 -30 33 -30 53c0 33 29 67 78 67zM121 232c-28 0 -41 -18 -41 -36c0 -20 20 -39 41 -39c24 0 41 19 41 39
c0 18 -10 36 -41 36zM121 126c-28 0 -54 -20 -54 -49c0 -28 26 -48 54 -48c32 0 54 19 54 48s-22 49 -54 49z" />
    <glyph glyph-name="nine.dnom" horiz-adv-x="234" 
d="M117 264c45 0 87 -37 87 -84c0 -45 -27 -70 -51 -102l-56 -78h-43l68 95h-5c-46 0 -87 40 -87 85c0 47 42 84 87 84zM117 232c-24 0 -50 -21 -50 -52c0 -32 26 -53 50 -53c29 0 49 21 49 53c0 31 -26 52 -49 52z" />
    <glyph glyph-name="zero.numr" horiz-adv-x="270" 
d="M135 703c62 0 105 -51 105 -126v-13c0 -75 -43 -126 -105 -126c-60 0 -105 51 -105 126v13c0 75 45 126 105 126zM135 672c-38 0 -68 -35 -68 -95v-13c0 -60 30 -95 68 -95c41 0 68 35 68 95v13c0 60 -27 95 -68 95z" />
    <glyph glyph-name="one.numr" horiz-adv-x="124" 
d="M94 701v-261h-37v225h-27v36h64z" />
    <glyph glyph-name="two.numr" horiz-adv-x="231" 
d="M114 704c46 0 84 -36 84 -75c0 -38 -23 -62 -68 -108l-47 -49h118v-32h-168v32l68 69c44 46 59 60 59 88c0 25 -22 44 -46 44c-23 0 -47 -16 -47 -50v-14h-37v14c0 48 39 81 84 81z" />
    <glyph glyph-name="three.numr" horiz-adv-x="243" 
d="M121 703c43 0 80 -32 80 -68c0 -20 -10 -39 -30 -53c23 -10 42 -32 42 -66c0 -46 -43 -80 -92 -80c-55 0 -92 43 -91 91h38c2 -31 20 -59 53 -59c29 0 54 19 54 48c0 38 -30 47 -74 49v28c45 0 63 18 63 42c0 21 -19 37 -43 37c-28 0 -46 -18 -47 -54h-37
c0 51 35 85 84 85z" />
    <glyph glyph-name="four.numr" horiz-adv-x="256" 
d="M199 701v-154h27v-31h-27v-76h-37v76h-132l132 185h37zM162 647l-70 -100h70v100z" />
    <glyph glyph-name="five.numr" horiz-adv-x="245" 
d="M191 701v-32h-104l-8 -58c13 6 29 10 45 10c45 0 91 -39 91 -92c0 -52 -43 -93 -95 -93c-46 0 -82 31 -90 62l33 19c2 -26 24 -49 57 -49c30 0 57 25 57 61c0 34 -27 60 -53 60c-22 0 -41 -8 -57 -29l-32 8l18 133h138z" />
    <glyph glyph-name="six.numr" horiz-adv-x="233" 
d="M179 701l-68 -96h6c45 0 86 -39 86 -84c0 -47 -42 -85 -86 -85c-45 0 -87 38 -87 85c0 45 27 69 50 101l57 79h42zM117 573c-29 0 -50 -20 -50 -52s26 -53 50 -53c23 0 49 21 49 53s-26 52 -49 52z" />
    <glyph glyph-name="seven.numr" horiz-adv-x="233" 
d="M203 701l-102 -261h-39l89 229h-121v32h173z" />
    <glyph glyph-name="eight.numr" horiz-adv-x="243" 
d="M121 703c51 0 79 -34 79 -67c0 -20 -9 -40 -30 -53c28 -14 43 -37 43 -66c0 -46 -42 -79 -92 -79c-48 0 -91 33 -91 79c0 29 16 53 43 66c-20 13 -30 33 -30 53c0 33 29 67 78 67zM121 672c-28 0 -41 -18 -41 -36c0 -20 20 -39 41 -39c24 0 41 19 41 39
c0 18 -10 36 -41 36zM121 566c-28 0 -54 -20 -54 -49c0 -28 26 -48 54 -48c32 0 54 19 54 48s-22 49 -54 49z" />
    <glyph glyph-name="nine.numr" horiz-adv-x="234" 
d="M117 704c45 0 87 -37 87 -84c0 -45 -27 -70 -51 -102l-56 -78h-43l68 95h-5c-46 0 -87 40 -87 85c0 47 42 84 87 84zM117 672c-24 0 -50 -21 -50 -52c0 -32 26 -53 50 -53c29 0 49 21 49 53c0 31 -26 52 -49 52z" />
    <glyph glyph-name="uni00B9" unicode="&#xb9;" horiz-adv-x="152" 
d="M100 701v-261h-37v225h-27v36h64z" />
    <glyph glyph-name="uni00B2" unicode="&#xb2;" horiz-adv-x="254" 
d="M125 704c46 0 84 -36 84 -75c0 -38 -23 -62 -68 -108l-47 -49h118v-32h-168v32l68 69c44 46 59 60 59 88c0 25 -22 44 -46 44c-23 0 -47 -16 -47 -50v-14h-37v14c0 48 39 81 84 81z" />
    <glyph glyph-name="uni00B3" unicode="&#xb3;" horiz-adv-x="253" 
d="M126 703c43 0 80 -32 80 -68c0 -20 -10 -39 -30 -53c23 -10 42 -32 42 -66c0 -46 -43 -80 -92 -80c-55 0 -92 43 -91 91h38c2 -31 20 -59 53 -59c29 0 54 19 54 48c0 38 -30 47 -74 49v28c45 0 63 18 63 42c0 21 -19 37 -43 37c-28 0 -46 -18 -47 -54h-37
c0 51 35 85 84 85z" />
    <glyph glyph-name="fraction" unicode="&#x2044;" horiz-adv-x="128" 
d="M303 700l-430 -700h-48l436 700h42z" />
    <glyph glyph-name="onehalf" unicode="&#xbd;" horiz-adv-x="551" 
d="M94 701v-261h-37v225h-27v36h64zM515 700l-430 -700h-48l436 700h42zM434 264c46 0 84 -36 84 -75c0 -38 -23 -62 -68 -108l-47 -49h118v-32h-168v32l68 69c44 46 59 60 59 88c0 25 -22 44 -46 44c-23 0 -47 -16 -47 -50v-14h-37v14c0 48 39 81 84 81z" />
    <glyph glyph-name="onequarter" unicode="&#xbc;" horiz-adv-x="576" 
d="M94 701v-261h-37v225h-27v36h64zM515 700l-430 -700h-48l436 700h42zM519 261v-154h27v-31h-27v-76h-37v76h-132l132 185h37zM482 207l-70 -100h70v100z" />
    <glyph glyph-name="threequarters" unicode="&#xbe;" horiz-adv-x="597" 
d="M121 703c43 0 80 -32 80 -68c0 -20 -10 -39 -30 -53c23 -10 42 -32 42 -66c0 -46 -43 -80 -92 -80c-55 0 -92 43 -91 91h38c2 -31 20 -59 53 -59c29 0 54 19 54 48c0 38 -30 47 -74 49v28c45 0 63 18 63 42c0 21 -19 37 -43 37c-28 0 -46 -18 -47 -54h-37
c0 51 35 85 84 85zM546 700l-430 -700h-48l436 700h42zM540 261v-154h27v-31h-27v-76h-37v76h-132l132 185h37zM503 207l-70 -100h70v100z" />
    <glyph glyph-name="oneeighth" unicode="&#x215b;" horiz-adv-x="563" 
d="M94 701v-261h-37v225h-27v36h64zM515 700l-430 -700h-48l436 700h42zM441 263c51 0 79 -34 79 -67c0 -20 -9 -40 -30 -53c28 -14 43 -37 43 -66c0 -46 -42 -79 -92 -79c-48 0 -91 33 -91 79c0 29 16 53 43 66c-20 13 -30 33 -30 53c0 33 29 67 78 67zM441 232
c-28 0 -41 -18 -41 -36c0 -20 20 -39 41 -39c24 0 41 19 41 39c0 18 -10 36 -41 36zM441 126c-28 0 -54 -20 -54 -49c0 -28 26 -48 54 -48c32 0 54 19 54 48s-22 49 -54 49z" />
    <glyph glyph-name="threeeighths" unicode="&#x215c;" horiz-adv-x="584" 
d="M121 703c43 0 80 -32 80 -68c0 -20 -10 -39 -30 -53c23 -10 42 -32 42 -66c0 -46 -43 -80 -92 -80c-55 0 -92 43 -91 91h38c2 -31 20 -59 53 -59c29 0 54 19 54 48c0 38 -30 47 -74 49v28c45 0 63 18 63 42c0 21 -19 37 -43 37c-28 0 -46 -18 -47 -54h-37
c0 51 35 85 84 85zM538 700l-430 -700h-48l436 700h42zM462 263c51 0 79 -34 79 -67c0 -20 -9 -40 -30 -53c28 -14 43 -37 43 -66c0 -46 -42 -79 -92 -79c-48 0 -91 33 -91 79c0 29 16 53 43 66c-20 13 -30 33 -30 53c0 33 29 67 78 67zM462 232c-28 0 -41 -18 -41 -36
c0 -20 20 -39 41 -39c24 0 41 19 41 39c0 18 -10 36 -41 36zM462 126c-28 0 -54 -20 -54 -49c0 -28 26 -48 54 -48c32 0 54 19 54 48s-22 49 -54 49z" />
    <glyph glyph-name="fiveeighths" unicode="&#x215d;" horiz-adv-x="586" 
d="M191 701v-32h-104l-8 -58c13 6 29 10 45 10c45 0 91 -39 91 -92c0 -52 -43 -93 -95 -93c-46 0 -82 31 -90 62l33 19c2 -26 24 -49 57 -49c30 0 57 25 57 61c0 34 -27 60 -53 60c-22 0 -41 -8 -57 -29l-32 8l18 133h138zM538 700l-430 -700h-48l436 700h42zM464 263
c51 0 79 -34 79 -67c0 -20 -9 -40 -30 -53c28 -14 43 -37 43 -66c0 -46 -42 -79 -92 -79c-48 0 -91 33 -91 79c0 29 16 53 43 66c-20 13 -30 33 -30 53c0 33 29 67 78 67zM464 232c-28 0 -41 -18 -41 -36c0 -20 20 -39 41 -39c24 0 41 19 41 39c0 18 -10 36 -41 36zM464 126
c-28 0 -54 -20 -54 -49c0 -28 26 -48 54 -48c32 0 54 19 54 48s-22 49 -54 49z" />
    <glyph glyph-name="seveneighths" unicode="&#x215e;" horiz-adv-x="564" 
d="M203 701l-102 -261h-39l89 229h-121v32h173zM516 700l-430 -700h-48l436 700h42zM442 263c51 0 79 -34 79 -67c0 -20 -9 -40 -30 -53c28 -14 43 -37 43 -66c0 -46 -42 -79 -92 -79c-48 0 -91 33 -91 79c0 29 16 53 43 66c-20 13 -30 33 -30 53c0 33 29 67 78 67zM442 232
c-28 0 -41 -18 -41 -36c0 -20 20 -39 41 -39c24 0 41 19 41 39c0 18 -10 36 -41 36zM442 126c-28 0 -54 -20 -54 -49c0 -28 26 -48 54 -48c32 0 54 19 54 48s-22 49 -54 49z" />
    <glyph glyph-name="asterisk" unicode="*" horiz-adv-x="428" 
d="M231 693l-2 -105h-30l-2 105h34zM83 609l104 -32l-6 -26l-106 28zM345 609l8 -30l-105 -28l-7 26zM185 534l21 -18l-60 -88l-27 19zM243 534l66 -87l-27 -19l-60 88z" />
    <glyph glyph-name="backslash" unicode="\" horiz-adv-x="407" 
d="M24 745h25c8 0 15 -4 18 -12l328 -846c4 -11 -1 -17 -12 -17h-25c-8 0 -15 4 -18 12l-328 846c-4 11 1 17 12 17z" />
    <glyph glyph-name="periodcentered" unicode="&#xb7;" horiz-adv-x="149" 
d="M77 244c-24 0 -42 18 -42 42c0 23 18 41 42 41c23 0 41 -18 41 -41c0 -24 -18 -42 -41 -42z" />
    <glyph glyph-name="bullet" unicode="&#x2022;" horiz-adv-x="231" 
d="M116 215c-33 0 -61 26 -61 60s28 60 61 60s60 -26 60 -60s-27 -60 -60 -60z" />
    <glyph glyph-name="colon" unicode=":" horiz-adv-x="153" 
d="M77 458c-24 0 -42 18 -42 42c0 23 18 41 42 41c23 0 41 -18 41 -41c0 -24 -18 -42 -41 -42zM77 -13c-24 0 -42 18 -42 42c0 23 18 41 42 41c23 0 41 -18 41 -41c0 -24 -18 -42 -41 -42z" />
    <glyph glyph-name="comma" unicode="," horiz-adv-x="154" 
d="M77 70c23 0 42 -18 42 -51c0 -50 -23 -85 -42 -109c-1 -2 -3 -3 -5 -3h-11c-3 0 -5 3 -3 6c11 22 19 43 19 74c-24 0 -42 18 -42 42c0 23 18 41 42 41z" />
    <glyph glyph-name="ellipsis" unicode="&#x2026;" horiz-adv-x="647" 
d="M77 -13c-24 0 -42 18 -42 42c0 23 18 41 42 41c23 0 41 -18 41 -41c0 -24 -18 -42 -41 -42zM324 -13c-24 0 -42 18 -42 42c0 23 18 41 42 41c23 0 41 -18 41 -41c0 -24 -18 -42 -41 -42zM571 -13c-24 0 -42 18 -42 42c0 23 18 41 42 41c23 0 41 -18 41 -41
c0 -24 -18 -42 -41 -42z" />
    <glyph glyph-name="exclam" unicode="!" horiz-adv-x="211" 
d="M143 669l-20 -469c1 -10 -7 -15 -16 -15h-4c-9 0 -16 5 -16 15l-20 469c0 21 19 39 38 39c20 0 38 -18 38 -39zM106 -13c-24 0 -42 18 -42 42c0 23 18 41 42 41c23 0 41 -18 41 -41c0 -24 -18 -42 -41 -42z" />
    <glyph glyph-name="exclamdown" unicode="&#xa1;" horiz-adv-x="149" 
d="M106 533c23 0 41 -18 41 -42c0 -23 -18 -41 -41 -41c-24 0 -42 18 -42 41c0 24 18 42 42 42zM143 -149c0 -21 -18 -39 -38 -39c-19 0 -38 18 -38 39l20 469c0 10 7 15 16 15h4c9 0 17 -5 16 -15z" />
    <glyph glyph-name="numbersign" unicode="#" horiz-adv-x="524" 
d="M450 503h-71v-226h71c9 0 19 -6 19 -15v-25c0 -9 -10 -15 -19 -15h-71v-127c0 -9 -6 -15 -15 -15h-29c-9 0 -15 6 -15 15v127h-120v-127c0 -9 -6 -15 -15 -15h-29c-9 0 -15 6 -15 15v127h-71c-9 0 -15 6 -15 15v25c0 9 6 15 15 15h71v226h-71c-9 0 -15 6 -15 15v25
c0 9 6 15 15 15h71v127c0 9 6 15 15 15h29c9 0 15 -6 15 -15v-127h120v127c0 9 6 15 15 15h29c9 0 15 -6 15 -15v-127h71c9 0 19 -6 19 -15v-25c0 -9 -10 -15 -19 -15zM320 277v226h-120v-226h120z" />
    <glyph glyph-name="period" unicode="." horiz-adv-x="153" 
d="M77 -13c-24 0 -42 18 -42 42c0 23 18 41 42 41c23 0 41 -18 41 -41c0 -24 -18 -42 -41 -42z" />
    <glyph glyph-name="question" unicode="?" horiz-adv-x="473" 
d="M232 708c123 0 206 -76 206 -177c0 -98 -76 -163 -189 -208l-3 -124c0 -9 -6 -15 -15 -15h-21c-9 0 -14 6 -14 15l-5 146c0 8 4 14 13 17c129 44 176 95 176 173c0 74 -59 117 -145 117c-65 0 -119 -28 -167 -71c-11 -10 -22 -11 -31 0l-5 6c-8 10 -9 20 -1 30
c43 54 126 91 201 91zM223 70c23 0 41 -18 41 -41c0 -24 -18 -42 -41 -42c-24 0 -42 18 -42 42c0 23 18 41 42 41z" />
    <glyph glyph-name="questiondown" unicode="&#xbf;" horiz-adv-x="473" 
d="M250 450c-23 0 -41 18 -41 41c0 24 18 42 41 42c24 0 42 -18 42 -42c0 -23 -18 -41 -42 -41zM441 -67c8 -10 9 -20 1 -30c-43 -54 -126 -91 -201 -91c-123 0 -206 76 -206 177c0 98 76 163 189 208l3 124c0 9 6 15 15 15h21c9 0 14 -6 14 -15l5 -146c0 -8 -4 -14 -13 -17
c-129 -44 -176 -95 -176 -173c0 -74 59 -117 145 -117c65 0 119 28 167 71c11 10 22 11 31 0z" />
    <glyph glyph-name="quotedbl" unicode="&#x22;" horiz-adv-x="228" 
d="M79 700c9 0 14 -6 15 -15l-5 -189c0 -9 -6 -15 -15 -15h-18c-9 0 -15 6 -15 15l-5 189c0 9 6 15 15 15h28zM177 700c9 0 14 -6 15 -15l-5 -189c0 -9 -6 -15 -15 -15h-18c-9 0 -15 6 -15 15l-5 189c0 9 6 15 15 15h28z" />
    <glyph glyph-name="quotesingle" unicode="'" horiz-adv-x="130" 
d="M79 700c9 0 14 -6 15 -15l-5 -189c0 -9 -6 -15 -15 -15h-18c-9 0 -15 6 -15 15l-5 189c0 9 6 15 15 15h28z" />
    <glyph glyph-name="semicolon" unicode=";" horiz-adv-x="154" 
d="M78 418c-24 0 -42 18 -42 42c0 23 18 41 42 41c23 0 41 -18 41 -41c0 -24 -18 -42 -41 -42zM77 70c23 0 42 -18 42 -51c0 -50 -23 -85 -42 -109c-1 -2 -3 -3 -5 -3h-11c-3 0 -5 3 -3 6c11 22 19 43 19 74c-24 0 -42 18 -42 42c0 23 18 41 42 41z" />
    <glyph glyph-name="slash" unicode="/" horiz-adv-x="407" 
d="M383 745c11 0 16 -6 12 -17l-328 -846c-3 -8 -10 -12 -18 -12h-25c-11 0 -16 6 -12 17l328 846c3 8 10 12 18 12h25z" />
    <glyph glyph-name="underscore" unicode="_" horiz-adv-x="600" 
d="M535 0c9 0 15 -6 15 -15v-24c0 -9 -6 -15 -15 -15h-470c-9 0 -15 6 -15 15v24c0 9 6 15 15 15h470z" />
    <glyph glyph-name="braceleft" unicode="{" horiz-adv-x="275" 
d="M210 745c9 0 15 -6 15 -15v-24c0 -9 -6 -15 -15 -15h-20c-21 0 -35 -14 -35 -35v-272c0 -7 -2 -13 -5 -19l-27 -49c-4 -8 -4 -13 0 -20l27 -47c4 -7 5 -12 5 -19v-271c0 -21 14 -35 35 -35h20c9 0 15 -6 15 -15v-24c0 -9 -6 -15 -15 -15h-51c-42 0 -67 33 -67 69v286
c0 7 -1 13 -5 19l-33 52c-4 7 -5 13 -1 20l34 54c4 7 5 12 5 19v287c0 36 25 69 67 69h51z" />
    <glyph glyph-name="braceright" unicode="}" horiz-adv-x="250" 
d="M40 745h51c42 0 67 -33 67 -69v-287c0 -7 1 -12 5 -19l34 -54c4 -7 3 -13 -1 -20l-33 -52c-4 -6 -5 -12 -5 -19v-286c0 -36 -25 -69 -67 -69h-51c-9 0 -15 6 -15 15v24c0 9 6 15 15 15h20c21 0 35 14 35 35v271c0 7 1 12 5 19l27 47c4 7 4 12 0 20l-27 49
c-3 6 -5 12 -5 19v272c0 21 -14 35 -35 35h-20c-9 0 -15 6 -15 15v24c0 9 6 15 15 15z" />
    <glyph glyph-name="bracketleft" unicode="[" horiz-adv-x="255" 
d="M190 745c9 0 15 -6 15 -15v-22c0 -9 -6 -15 -15 -15h-77v-771h77c9 0 15 -6 15 -15v-22c0 -9 -6 -15 -15 -15h-125c-9 0 -15 6 -15 15v845c0 9 6 15 15 15h125z" />
    <glyph glyph-name="bracketright" unicode="]" horiz-adv-x="255" 
d="M65 745h125c9 0 15 -6 15 -15v-845c0 -9 -6 -15 -15 -15h-125c-9 0 -15 6 -15 15v22c0 9 6 15 15 15h77v771h-77c-9 0 -15 6 -15 15v22c0 9 6 15 15 15z" />
    <glyph glyph-name="parenleft" unicode="(" horiz-adv-x="257" 
d="M194 745c11 0 16 -7 11 -18c-58 -114 -91 -258 -91 -407c0 -158 32 -311 91 -432c5 -11 0 -18 -11 -18h-30c-8 0 -14 3 -18 10c-69 121 -96 279 -96 440c0 152 31 300 96 415c4 7 10 10 18 10h30z" />
    <glyph glyph-name="parenright" unicode=")" horiz-adv-x="257" 
d="M63 745h30c8 0 14 -3 18 -10c65 -115 96 -263 96 -415c0 -161 -27 -319 -96 -440c-4 -7 -10 -10 -18 -10h-30c-11 0 -16 7 -11 18c59 121 91 274 91 432c0 149 -33 293 -91 407c-5 11 0 18 11 18z" />
    <glyph glyph-name="emdash" unicode="&#x2014;" horiz-adv-x="670" 
d="M605 311c9 0 15 -6 15 -15v-24c0 -9 -6 -15 -15 -15h-540c-9 0 -15 6 -15 15v24c0 9 6 15 15 15h540z" />
    <glyph glyph-name="endash" unicode="&#x2013;" horiz-adv-x="610" 
d="M545 311c9 0 15 -6 15 -15v-24c0 -9 -6 -15 -15 -15h-480c-9 0 -15 6 -15 15v24c0 9 6 15 15 15h480z" />
    <glyph glyph-name="hyphen" unicode="-" horiz-adv-x="390" 
d="M330 311c9 0 15 -6 15 -15v-24c0 -9 -6 -15 -15 -15h-270c-9 0 -15 6 -15 15v24c0 9 6 15 15 15h270z" />
    <glyph glyph-name="uni00AD" unicode="&#xad;" horiz-adv-x="390" 
d="M330 311c9 0 15 -6 15 -15v-24c0 -9 -6 -15 -15 -15h-270c-9 0 -15 6 -15 15v24c0 9 6 15 15 15h270z" />
    <glyph glyph-name="guillemotleft" unicode="&#xab;" horiz-adv-x="337" 
d="M35 315c0 7 2 13 8 18l98 85c10 8 18 5 18 -8v-21c0 -7 -2 -13 -8 -18l-86 -75l86 -75c6 -5 8 -11 8 -18v-21c0 -13 -8 -16 -18 -8l-98 85c-6 5 -8 11 -8 18v38zM178 315c0 7 2 13 8 18l98 85c10 8 18 5 18 -8v-21c0 -7 -2 -13 -8 -18l-86 -75l86 -75c6 -5 8 -11 8 -18
v-21c0 -13 -8 -16 -18 -8l-98 85c-6 5 -8 11 -8 18v38z" />
    <glyph glyph-name="guillemotright" unicode="&#xbb;" horiz-adv-x="337" 
d="M159 315v-38c0 -7 -2 -13 -8 -18l-98 -85c-10 -8 -18 -5 -18 8v21c0 7 2 13 8 18l86 75l-86 75c-6 5 -8 11 -8 18v21c0 13 8 16 18 8l98 -85c6 -5 8 -11 8 -18zM302 315v-38c0 -7 -2 -13 -8 -18l-98 -85c-10 -8 -18 -5 -18 8v21c0 7 2 13 8 18l86 75l-86 75
c-6 5 -8 11 -8 18v21c0 13 8 16 18 8l98 -85c6 -5 8 -11 8 -18z" />
    <glyph glyph-name="guilsinglleft" unicode="&#x2039;" horiz-adv-x="194" 
d="M35 315c0 7 2 13 8 18l98 85c10 8 18 5 18 -8v-21c0 -7 -2 -13 -8 -18l-86 -75l86 -75c6 -5 8 -11 8 -18v-21c0 -13 -8 -16 -18 -8l-98 85c-6 5 -8 11 -8 18v38z" />
    <glyph glyph-name="guilsinglright" unicode="&#x203a;" horiz-adv-x="194" 
d="M159 305v-38c0 -7 -2 -13 -8 -18l-98 -85c-10 -8 -18 -5 -18 8v21c0 7 2 13 8 18l86 75l-86 75c-6 5 -8 11 -8 18v21c0 13 8 16 18 8l98 -85c6 -5 8 -11 8 -18z" />
    <glyph glyph-name="quotedblbase" unicode="&#x201e;" horiz-adv-x="244" 
d="M72 70c23 0 42 -18 42 -51c0 -50 -23 -85 -42 -109c-1 -2 -3 -3 -5 -3h-11c-3 0 -5 3 -3 6c11 22 19 43 19 74c-24 0 -42 18 -42 42c0 23 18 41 42 41zM172 70c23 0 42 -18 42 -51c0 -50 -23 -85 -42 -109c-1 -2 -3 -3 -5 -3h-11c-3 0 -5 3 -3 6c11 22 19 43 19 74
c-24 0 -42 18 -42 42c0 23 18 41 42 41z" />
    <glyph glyph-name="quotedblleft" unicode="&#x201c;" horiz-adv-x="259" 
d="M72 550c-23 0 -42 18 -42 51c0 50 23 85 42 109c1 2 3 3 5 3h11c3 0 5 -3 3 -6c-11 -22 -19 -43 -19 -74c24 0 42 -18 42 -42c0 -23 -18 -41 -42 -41zM187 550c-23 0 -42 18 -42 51c0 50 23 85 42 109c1 2 3 3 5 3h11c3 0 5 -3 3 -6c-11 -22 -19 -43 -19 -74
c24 0 42 -18 42 -42c0 -23 -18 -41 -42 -41z" />
    <glyph glyph-name="quotedblright" unicode="&#x201d;" horiz-adv-x="259" 
d="M72 697c23 0 42 -18 42 -51c0 -50 -23 -85 -42 -109c-1 -2 -3 -3 -5 -3h-11c-3 0 -5 3 -3 6c11 22 19 43 19 74c-24 0 -42 18 -42 42c0 23 18 41 42 41zM187 697c23 0 42 -18 42 -51c0 -50 -23 -85 -42 -109c-1 -2 -3 -3 -5 -3h-11c-3 0 -5 3 -3 6c11 22 19 43 19 74
c-24 0 -42 18 -42 42c0 23 18 41 42 41z" />
    <glyph glyph-name="quoteleft" unicode="&#x2018;" horiz-adv-x="144" 
d="M72 550c-23 0 -42 18 -42 51c0 50 23 85 42 109c1 2 3 3 5 3h11c3 0 5 -3 3 -6c-11 -22 -19 -43 -19 -74c24 0 42 -18 42 -42c0 -23 -18 -41 -42 -41z" />
    <glyph glyph-name="quoteright" unicode="&#x2019;" horiz-adv-x="144" 
d="M72 697c23 0 42 -18 42 -51c0 -50 -23 -85 -42 -109c-1 -2 -3 -3 -5 -3h-11c-3 0 -5 3 -3 6c11 22 19 43 19 74c-24 0 -42 18 -42 42c0 23 18 41 42 41z" />
    <glyph glyph-name="quotesinglbase" unicode="&#x201a;" horiz-adv-x="144" 
d="M72 70c23 0 42 -18 42 -51c0 -50 -23 -85 -42 -109c-1 -2 -3 -3 -5 -3h-11c-3 0 -5 3 -3 6c11 22 19 43 19 74c-24 0 -42 18 -42 42c0 23 18 41 42 41z" />
    <glyph glyph-name="space" unicode=" " horiz-adv-x="260" 
 />
    <glyph glyph-name="cent" unicode="&#xa2;" horiz-adv-x="506" 
d="M470 168c6 -6 7 -14 1 -20c-43 -48 -101 -81 -174 -86v-87c0 -9 -6 -15 -15 -15h-20c-9 0 -15 6 -15 15v89c-123 16 -211 121 -211 250s88 234 211 250v121c0 9 6 15 15 15h20c9 0 15 -6 15 -15v-119c71 -5 128 -37 171 -85c6 -7 5 -15 -1 -21l-16 -13
c-7 -6 -14 -7 -22 -1c-27 25 -59 62 -132 67v-398c76 5 109 40 135 67c8 8 15 7 22 0zM94 314c0 -102 61 -181 153 -196v392c-92 -15 -153 -94 -153 -196z" />
    <glyph glyph-name="currency" unicode="&#xa4;" horiz-adv-x="555" 
d="M502 476c0 -54 -19 -103 -50 -141l48 -48l-36 -35l-48 48c-38 -30 -86 -48 -138 -48c-53 0 -101 18 -139 48l-48 -48l-36 35l48 48c-31 39 -49 88 -49 141s18 102 49 141l-48 48l36 35l48 -48c38 30 86 48 139 48c52 0 100 -18 138 -48l48 48l36 -35l-48 -48
c31 -38 50 -87 50 -141zM91 476c0 -106 91 -187 187 -187s188 81 188 187c0 105 -92 187 -188 187s-187 -82 -187 -187z" />
    <glyph glyph-name="dollar" unicode="$" horiz-adv-x="515" 
d="M479 176c0 -93 -82 -175 -194 -187v-64c0 -9 -6 -15 -15 -15h-24c-9 0 -15 6 -15 15v63c-84 7 -150 49 -191 104c-5 9 -3 14 4 20l21 18c7 6 14 5 21 -2c37 -44 91 -84 167 -84c101 0 164 63 164 137c0 181 -365 129 -365 354c0 93 74 165 179 172v68c0 9 6 15 15 15h24
c9 0 15 -6 15 -15v-70c61 -9 120 -42 159 -91c6 -7 6 -13 -2 -21l-17 -15c-7 -7 -14 -8 -21 -1c-44 47 -91 75 -155 75c-76 0 -138 -41 -138 -118c0 -176 368 -122 368 -358z" />
    <glyph glyph-name="Euro" unicode="&#x20ac;" horiz-adv-x="703" 
d="M661 102c8 -7 6 -16 -1 -21c-64 -54 -142 -94 -234 -94c-170 0 -307 119 -342 280h-39c-9 0 -15 6 -15 15v25c0 9 6 15 15 15h32c-1 8 -1 17 -1 25v18h-31c-9 0 -15 6 -15 15v25c0 9 6 15 15 15h38c32 165 171 288 343 288c92 0 170 -40 234 -93c7 -6 9 -14 1 -21
l-21 -21c-8 -7 -14 -6 -21 0c-54 45 -116 74 -192 74c-135 0 -249 -93 -280 -227h139c9 0 15 -6 15 -15v-25c0 -9 -6 -15 -15 -15h-147v-18c0 -8 0 -17 1 -25h146c9 0 15 -6 15 -15v-25c0 -9 -6 -15 -15 -15h-137c33 -129 146 -219 278 -219c76 0 138 29 192 74
c7 6 13 7 21 0z" />
    <glyph glyph-name="florin" unicode="&#x192;" horiz-adv-x="303" 
d="M313 700c7 -4 10 -10 10 -18v-24c0 -12 -7 -16 -18 -10c-17 9 -32 16 -55 16c-54 0 -69 -26 -69 -74v-100h104c9 0 15 -6 15 -15v-22c0 -9 -6 -15 -15 -15h-104v-503c0 -80 -35 -125 -129 -125c-24 0 -45 6 -62 16c-7 4 -10 10 -10 18v24c0 12 7 16 18 10
c17 -9 32 -16 54 -16c55 0 69 26 69 74v502h-58c-9 0 -15 6 -15 15v22c0 9 6 15 15 15h58v101c0 80 36 125 130 125c24 0 44 -6 62 -16z" />
    <glyph glyph-name="uni20B4" unicode="&#x20b4;" horiz-adv-x="582" 
d="M531 365h-147c-33 -16 -68 -29 -101 -43h248c10 0 16 -6 15 -15v-25c1 -9 -5 -15 -15 -15h-344c-24 -22 -39 -49 -39 -86c0 -74 63 -137 164 -137c76 0 130 40 167 84c7 7 14 8 21 2l21 -18c7 -6 9 -11 4 -20c-45 -60 -119 -105 -215 -105c-127 0 -224 88 -224 189
c0 37 9 66 24 91h-57c-9 0 -15 6 -15 15v25c0 9 6 15 15 15h109c24 17 51 31 79 43h-188c-9 0 -15 6 -15 15v25c0 9 6 15 15 15h315c50 26 86 59 86 114c0 77 -62 118 -138 118c-64 0 -111 -28 -155 -75c-7 -7 -14 -6 -21 1l-17 15c-8 8 -8 14 -2 21c47 58 122 94 194 94
c115 0 198 -75 198 -173c0 -50 -18 -87 -47 -115h65c10 0 16 -6 15 -15v-25c1 -9 -5 -15 -15 -15z" />
    <glyph glyph-name="sterling" unicode="&#xa3;" horiz-adv-x="519" 
d="M448 59c9 0 15 -6 15 -15v-29c0 -9 -6 -15 -15 -15h-384c-9 0 -15 6 -15 15v44c33 20 100 81 100 161c0 30 -3 55 -9 77h-75c-9 0 -15 6 -15 15v29c0 9 6 15 15 15h54c-22 49 -48 90 -48 162c0 105 86 190 193 190c75 0 150 -38 199 -104c8 -10 7 -20 -1 -30l-6 -6
c-9 -11 -21 -10 -31 0c-57 54 -96 79 -164 79s-131 -47 -131 -129c0 -62 30 -101 51 -162h235c9 0 15 -6 15 -15v-29c0 -9 -6 -15 -15 -15h-219c4 -22 7 -48 7 -77c0 -63 -29 -124 -70 -161h314z" />
    <glyph glyph-name="yen" unicode="&#xa5;" horiz-adv-x="556" 
d="M517 682l-208 -341v-11h90c9 0 15 -6 15 -15v-25c0 -9 -6 -15 -15 -15h-90v-44h90c9 0 15 -6 15 -15v-25c0 -9 -6 -15 -15 -15h-90v-161c0 -9 -6 -15 -15 -15h-32c-9 0 -15 6 -15 15v161h-89c-9 0 -15 6 -15 15v25c0 9 6 15 15 15h89v44h-89c-9 0 -15 6 -15 15v25
c0 9 6 15 15 15h89v11l-208 341c-6 10 -2 18 10 18h35c8 0 14 -3 18 -10l176 -289l176 289c4 7 10 10 18 10h35c12 0 16 -8 10 -18z" />
    <glyph glyph-name="plus" unicode="+" horiz-adv-x="401" 
d="M331 311c9 0 15 -6 15 -15v-25c0 -9 -6 -15 -15 -15h-102v-103c0 -9 -6 -15 -15 -15h-25c-9 0 -15 6 -15 15v103h-104c-9 0 -15 6 -15 15v25c0 9 6 15 15 15h104v103c0 9 6 15 15 15h25c9 0 15 -6 15 -15v-103h102z" />
    <glyph glyph-name="minus" unicode="&#x2212;" horiz-adv-x="421" 
d="M351 311c9 0 15 -6 15 -15v-25c0 -9 -6 -15 -15 -15h-281c-9 0 -15 6 -15 15v25c0 9 6 15 15 15h281z" />
    <glyph glyph-name="multiply" unicode="&#xd7;" horiz-adv-x="343" 
d="M211 283l72 -72c6 -7 6 -15 0 -21l-18 -18c-6 -6 -15 -6 -21 0l-72 72l-73 -73c-6 -6 -15 -6 -21 0l-18 18c-6 6 -6 15 0 21l73 73l-74 74c-6 6 -6 14 0 21l18 17c7 7 15 7 21 0l74 -73l73 73c6 6 15 6 21 0l18 -18c6 -6 6 -15 0 -21z" />
    <glyph glyph-name="divide" unicode="&#xf7;" horiz-adv-x="421" 
d="M212 368c-24 0 -42 18 -42 42c0 23 18 41 42 41c23 0 41 -18 41 -41c0 -24 -18 -42 -41 -42zM351 311c9 0 15 -6 15 -15v-25c0 -9 -6 -15 -15 -15h-281c-9 0 -15 6 -15 15v25c0 9 6 15 15 15h281zM212 100c-24 0 -42 18 -42 42c0 23 18 41 42 41c23 0 41 -18 41 -41
c0 -24 -18 -42 -41 -42z" />
    <glyph glyph-name="equal" unicode="=" horiz-adv-x="421" 
d="M351 373c9 0 15 -6 15 -15v-25c0 -9 -6 -15 -15 -15h-281c-9 0 -15 6 -15 15v25c0 9 6 15 15 15h281zM351 251c9 0 15 -6 15 -15v-25c0 -9 -6 -15 -15 -15h-281c-9 0 -15 6 -15 15v25c0 9 6 15 15 15h281z" />
    <glyph glyph-name="notequal" unicode="&#x2260;" horiz-adv-x="421" 
d="M351 318h-101l-25 -67h126c9 0 15 -6 15 -15v-25c0 -9 -6 -15 -15 -15h-148l-71 -184c-3 -8 -10 -12 -18 -12h-19c-11 0 -16 6 -12 17l69 179h-82c-9 0 -15 6 -15 15v25c0 9 6 15 15 15h104l26 67h-130c-9 0 -15 6 -15 15v25c0 9 6 15 15 15h151l68 176c3 8 10 12 18 12
h19c11 0 16 -6 12 -17l-66 -171h79c9 0 15 -6 15 -15v-25c0 -9 -6 -15 -15 -15z" />
    <glyph glyph-name="greater" unicode="&#x3e;" horiz-adv-x="507" 
d="M78 481l368 -199c7 -4 11 -10 11 -18v-28c0 -8 -4 -14 -11 -18l-368 -200c-10 -6 -18 -1 -18 10v24c0 8 4 14 11 18l332 179l-332 179c-7 4 -11 10 -11 18v24c0 11 8 17 18 11z" />
    <glyph glyph-name="less" unicode="&#x3c;" horiz-adv-x="487" 
d="M429 481c10 6 18 0 18 -11v-24c0 -8 -4 -14 -11 -18l-332 -179l332 -179c7 -4 11 -10 11 -18v-24c0 -11 -8 -16 -18 -10l-368 200c-7 4 -11 10 -11 18v28c0 8 4 14 11 18z" />
    <glyph glyph-name="greaterequal" unicode="&#x2265;" horiz-adv-x="426" 
d="M67 593l295 -180c6 -4 9 -9 9 -17v-25c0 -7 -3 -13 -9 -16l-295 -182c-8 -5 -15 -1 -15 9v22c0 7 4 13 9 16l267 163l-267 162c-5 4 -9 9 -9 17v21c0 10 7 16 15 10zM75 41h281c9 0 15 -6 15 -15v-25c0 -9 -6 -15 -15 -15h-281c-9 0 -15 6 -15 15v25c0 9 6 15 15 15z" />
    <glyph glyph-name="lessequal" unicode="&#x2264;" horiz-adv-x="431" 
d="M360 593c8 6 15 0 15 -10v-21c0 -8 -4 -13 -9 -17l-267 -162l267 -163c5 -3 9 -9 9 -16v-22c0 -10 -7 -14 -15 -9l-295 182c-6 3 -9 9 -9 16v25c0 8 3 13 9 17zM352 41c9 0 15 -6 15 -15v-25c0 -9 -6 -15 -15 -15h-281c-9 0 -15 6 -15 15v25c0 9 6 15 15 15h281z" />
    <glyph glyph-name="plusminus" unicode="&#xb1;" horiz-adv-x="421" 
d="M80 236c-9 0 -15 6 -15 15v25c0 9 6 15 15 15h104v103c0 9 6 15 15 15h25c9 0 15 -6 15 -15v-103h102c9 0 15 -6 15 -15v-25c0 -9 -6 -15 -15 -15h-102v-103c0 -9 -6 -15 -15 -15h-25c-9 0 -15 6 -15 15v103h-104zM351 55c9 0 15 -6 15 -15v-25c0 -9 -6 -15 -15 -15h-281
c-9 0 -15 6 -15 15v25c0 9 6 15 15 15h281z" />
    <glyph glyph-name="approxequal" unicode="&#x2248;" horiz-adv-x="416" 
d="M136 414c73 1 91 -71 148 -72c28 1 40 21 46 36c2 7 5 10 12 9h13c7 1 12 -3 11 -11c-11 -49 -44 -75 -82 -75c-77 0 -95 72 -152 70c-29 2 -41 -18 -46 -34c-3 -6 -6 -9 -12 -11h-14c-7 2 -11 5 -10 14c7 49 42 75 86 74zM136 254c73 1 91 -71 148 -72c28 1 40 21 46 36
c2 7 5 10 12 9h13c7 1 12 -3 11 -11c-11 -49 -44 -75 -82 -75c-77 0 -95 72 -152 70c-29 2 -41 -18 -46 -34c-3 -6 -6 -9 -12 -11h-14c-7 2 -11 5 -10 14c7 49 42 75 86 74z" />
    <glyph glyph-name="asciitilde" unicode="~" horiz-adv-x="416" 
d="M136 346c73 1 91 -71 148 -72c28 1 40 21 46 36c2 7 5 10 12 9h13c7 1 12 -3 11 -11c-11 -49 -44 -75 -82 -75c-77 0 -95 72 -152 70c-29 2 -41 -18 -46 -34c-3 -6 -6 -9 -12 -11h-14c-7 2 -11 5 -10 14c7 49 42 75 86 74z" />
    <glyph glyph-name="logicalnot" unicode="&#xac;" horiz-adv-x="475" 
d="M410 300c9 0 15 -6 15 -15v-117c0 -9 -6 -15 -15 -15h-30c-9 0 -15 6 -15 15v79h-300c-9 0 -15 6 -15 15v23c0 9 6 15 15 15h345z" />
    <glyph glyph-name="infinity" unicode="&#x221e;" horiz-adv-x="781" 
d="M580 423c91 0 159 -72 159 -162c0 -91 -68 -163 -159 -163c-77 0 -136 55 -189 129c-54 -74 -113 -129 -190 -129c-91 0 -160 72 -160 163c0 90 69 162 160 162c77 0 136 -55 190 -128c53 73 112 128 189 128zM203 139c64 0 122 60 163 122c-41 64 -99 122 -163 122
c-71 0 -122 -50 -122 -122c0 -70 51 -122 122 -122zM578 139c71 0 122 52 122 122c0 72 -51 122 -122 122c-64 0 -122 -58 -163 -122c41 -62 99 -122 163 -122z" />
    <glyph glyph-name="integral" unicode="&#x222b;" horiz-adv-x="354" 
d="M364 784c7 -4 10 -10 10 -18v-24c0 -12 -7 -16 -18 -10c-17 9 -32 16 -54 16c-55 0 -69 -26 -69 -74v-739c0 -80 -36 -125 -130 -125c-24 0 -44 6 -62 16c-7 4 -10 10 -10 18v24c0 12 7 16 18 10c17 -9 32 -16 55 -16c54 0 69 26 69 74v739c0 80 35 125 129 125
c24 0 45 -6 62 -16z" />
    <glyph glyph-name="product" unicode="&#x220f;" horiz-adv-x="643" 
d="M50 785c0 9 6 15 15 15h513c9 0 15 -6 15 -15v-960c0 -9 -6 -15 -15 -15h-36c-9 0 -15 6 -15 15v916h-411v-916c0 -9 -6 -15 -15 -15h-36c-9 0 -15 6 -15 15v960z" />
    <glyph glyph-name="summation" unicode="&#x2211;" horiz-adv-x="651" 
d="M586 800c9 0 15 -6 15 -15v-29c0 -9 -6 -15 -15 -15h-461l268 -426c4 -7 4 -13 0 -20l-268 -426h461c9 0 15 -6 15 -15v-29c0 -9 -6 -15 -15 -15h-521c-9 0 -15 6 -15 15v34c0 7 2 12 6 18l269 428l-269 428c-4 6 -6 11 -6 18v34c0 9 6 15 15 15h521z" />
    <glyph glyph-name="radical" unicode="&#x221a;" horiz-adv-x="643" 
d="M579 800c10 0 15 -7 13 -17l-217 -960c-2 -8 -7 -13 -16 -13h-60c-8 0 -15 4 -17 13l-126 440h-91c-9 0 -15 6 -15 15v29c0 9 6 15 15 15h122c9 0 15 -4 17 -13l122 -443l208 921c2 8 7 13 16 13h29z" />
    <glyph glyph-name="uni00B5" unicode="&#xb5;" horiz-adv-x="497" 
d="M431 490c9 0 15 -6 15 -15v-460c0 -9 -6 -15 -15 -15h-26c-9 0 -14 6 -15 15l-4 61c-34 -50 -86 -89 -160 -89c-49 0 -90 12 -120 37v-199c0 -9 -6 -15 -15 -15h-30c-9 0 -15 6 -15 15v650c0 9 6 15 15 15h30c9 0 15 -6 15 -15v-294c0 -89 44 -143 124 -143
c100 0 156 98 156 128v309c0 9 6 15 15 15h30z" />
    <glyph glyph-name="partialdiff" unicode="&#x2202;" horiz-adv-x="508" 
d="M424 370c38 -54 56 -102 56 -156c0 -124 -97 -227 -221 -227s-221 103 -221 227s94 224 218 224c19 0 39 -4 58 -10l-178 248c-6 8 -3 16 3 21l19 17c8 7 15 5 21 -3zM259 41c92 0 163 71 163 173c0 98 -71 170 -163 170c-93 0 -164 -72 -164 -170
c0 -102 71 -173 164 -173z" />
    <glyph glyph-name="percent" unicode="%" horiz-adv-x="708" 
d="M564 706l39 -28l-459 -684l-39 28zM176 705c75 0 137 -59 137 -135s-62 -136 -137 -136c-73 0 -136 60 -136 136s63 135 136 135zM176 659c-50 0 -90 -37 -90 -89c0 -53 40 -90 90 -90c51 0 92 37 92 90c0 52 -41 89 -92 89zM532 266c74 0 136 -60 136 -136
s-62 -135 -136 -135c-75 0 -137 59 -137 135s62 136 137 136zM532 220c-51 0 -91 -37 -91 -90c0 -52 40 -89 91 -89c50 0 91 37 91 89c0 53 -41 90 -91 90z" />
    <glyph glyph-name="perthousand" unicode="&#x2030;" horiz-adv-x="1058" 
d="M564 706l39 -28l-459 -684l-39 28zM176 705c75 0 137 -59 137 -135s-62 -136 -137 -136c-73 0 -136 60 -136 136s63 135 136 135zM176 659c-50 0 -90 -37 -90 -89c0 -53 40 -90 90 -90c51 0 92 37 92 90c0 52 -41 89 -92 89zM532 266c74 0 136 -60 136 -136
s-62 -135 -136 -135c-75 0 -137 59 -137 135s62 136 137 136zM882 266c73 0 136 -60 136 -136s-63 -135 -136 -135c-75 0 -137 59 -137 135s62 136 137 136zM532 220c-51 0 -91 -37 -91 -90c0 -52 40 -89 91 -89c50 0 91 37 91 89c0 53 -41 90 -91 90zM882 220
c-51 0 -92 -37 -92 -90c0 -52 41 -89 92 -89c49 0 90 37 90 89c0 53 -41 90 -90 90z" />
    <glyph glyph-name="lozenge" unicode="&#x25ca;" horiz-adv-x="495" 
d="M278 700c8 0 14 -3 17 -11l146 -329c3 -8 3 -12 0 -20l-146 -329c-3 -8 -9 -11 -17 -11h-61c-8 0 -14 3 -17 11l-146 329c-3 8 -3 12 0 20l146 329c3 8 9 11 17 11h61zM247 39l138 311l-138 312l-137 -312z" />
    <glyph glyph-name="at" unicode="@" horiz-adv-x="804" 
d="M404 708c191 0 359 -137 359 -351c0 -154 -80 -205 -148 -205c-43 0 -77 21 -90 63c-32 -36 -79 -58 -135 -58c-109 0 -187 84 -187 187c0 102 78 186 187 186c64 0 117 -29 149 -74l13 56h42l-23 -231c-7 -63 24 -74 54 -74c50 0 79 45 79 150c0 195 -143 295 -300 295
c-142 0 -304 -99 -304 -302s162 -302 306 -302c61 0 117 16 164 48l38 -34c-61 -46 -125 -70 -204 -70c-184 0 -363 138 -363 358c0 224 179 358 363 358zM390 210c79 0 133 61 133 134s-54 133 -133 133c-81 0 -130 -60 -130 -133s49 -134 130 -134z" />
    <glyph glyph-name="ampersand" unicode="&#x26;" horiz-adv-x="631" 
d="M606 42c6 -7 6 -15 -1 -21l-19 -19c-7 -7 -15 -7 -21 0l-77 85c-61 -55 -133 -96 -223 -96c-123 0 -224 65 -224 191c0 104 82 166 163 220c-46 54 -87 112 -87 167c0 71 55 139 149 139c93 0 155 -68 155 -139c0 -76 -62 -128 -131 -176l201 -224c17 18 33 36 47 54
c6 8 14 8 21 1l18 -18c7 -6 8 -14 2 -21c-16 -19 -33 -39 -50 -57zM176 570c0 -45 38 -94 76 -135c60 40 109 80 109 135c0 47 -43 80 -95 80c-49 0 -90 -33 -90 -80zM263 49c74 0 135 35 187 80l-206 229l-2 2c-73 -50 -140 -102 -140 -177c0 -88 78 -134 161 -134z" />
    <glyph glyph-name="paragraph" unicode="&#xb6;" horiz-adv-x="654" 
d="M270 700h183c9 0 15 -6 15 -15v-670c0 -9 -6 -15 -15 -15h-33c-9 0 -15 6 -15 15v257h-135c-149 0 -229 93 -229 214c0 122 80 214 229 214zM530 685c0 9 6 15 15 15h33c9 0 15 -6 15 -15v-670c0 -9 -6 -15 -15 -15h-33c-9 0 -15 6 -15 15v670zM274 331h131v310h-131
c-97 0 -172 -44 -172 -155s75 -155 172 -155z" />
    <glyph glyph-name="section" unicode="&#xa7;" horiz-adv-x="626" 
d="M590 268c0 -65 -34 -117 -87 -149c-24 -84 -113 -137 -220 -137c-106 0 -190 52 -239 115c-8 10 -9 18 -2 27l12 14c11 12 17 11 30 -3c49 -52 102 -94 203 -94c97 0 161 47 161 131c0 182 -392 121 -392 352c0 60 31 114 87 145c21 77 97 131 205 131
c75 0 157 -32 212 -104c7 -10 7 -20 -1 -30l-6 -6c-10 -11 -21 -11 -31 0c-56 55 -96 84 -175 84c-89 0 -152 -41 -152 -118c0 -178 395 -120 395 -358zM506 199c15 20 23 45 23 75c0 173 -356 126 -389 321c-16 -18 -26 -43 -26 -71c0 -169 357 -125 392 -325z" />
    <glyph glyph-name="copyright" unicode="&#xa9;" horiz-adv-x="654" 
d="M327 136c-158 0 -286 128 -286 286s128 286 286 286s285 -128 285 -286s-127 -286 -285 -286zM327 189c129 0 230 104 230 233s-101 233 -230 233s-232 -104 -232 -233s103 -233 232 -233zM431 307c7 -7 7 -15 0 -21c-27 -22 -60 -35 -101 -35c-93 0 -167 74 -167 171
c0 98 74 171 167 171c41 0 74 -12 101 -35c7 -6 7 -14 0 -21l-12 -11c-7 -7 -13 -6 -21 -1c-19 12 -43 20 -67 20c-67 0 -120 -53 -120 -123s53 -123 120 -123c24 0 47 8 67 20c8 5 14 6 21 -1z" />
    <glyph glyph-name="registered" unicode="&#xae;" horiz-adv-x="654" 
d="M327 708c158 0 285 -128 285 -286s-127 -286 -285 -286s-286 128 -286 286s128 286 286 286zM327 189c129 0 230 104 230 233s-101 233 -230 233s-232 -104 -232 -233s103 -233 232 -233zM465 476c0 -49 -31 -86 -94 -94l88 -99c5 -6 3 -12 -7 -12h-37c-5 0 -8 2 -11 6
l-90 103h-66v-100c0 -5 -5 -9 -10 -9h-29c-5 0 -9 4 -9 9v286c0 5 4 9 9 9h136c80 0 120 -40 120 -99zM346 426c52 0 73 24 73 50c0 31 -21 52 -73 52h-98v-102h98z" />
    <glyph glyph-name="trademark" unicode="&#x2122;" horiz-adv-x="521" 
d="M221 700c3 0 5 -2 5 -5v-17c0 -3 -2 -5 -5 -5h-66v-148c0 -3 -2 -5 -5 -5h-19c-3 0 -5 2 -5 5v148h-66c-3 0 -5 2 -5 5v17c0 3 2 5 5 5h161zM461 700c3 0 5 -2 5 -5v-170c0 -3 -2 -5 -5 -5h-20c-3 0 -5 2 -5 5v120l-58 -121c-1 -2 -4 -4 -6 -4h-18c-2 0 -5 2 -6 4
l-57 121v-120c0 -3 -2 -5 -5 -5h-20c-3 0 -5 2 -5 5v170c0 3 2 5 5 5h25c2 0 5 -2 6 -4l66 -142l66 142c1 2 4 4 6 4h26z" />
    <glyph glyph-name="degree" unicode="&#xb0;" horiz-adv-x="391" 
d="M196 719c81 0 145 -65 145 -145c0 -82 -64 -146 -145 -146s-146 64 -146 146c0 80 65 145 146 145zM196 673c-53 0 -99 -39 -99 -99c0 -59 46 -99 99 -99c52 0 99 40 99 99c0 60 -47 99 -99 99z" />
    <glyph glyph-name="bar" unicode="|" horiz-adv-x="185" 
d="M61 785c0 9 6 15 15 15h33c9 0 15 -6 15 -15v-960c0 -9 -6 -15 -15 -15h-33c-9 0 -15 6 -15 15v960z" />
    <glyph glyph-name="brokenbar" unicode="&#xa6;" horiz-adv-x="185" 
d="M109 800c9 0 15 -6 15 -15v-280c0 -9 -6 -15 -15 -15h-33c-9 0 -15 6 -15 15v280c0 9 6 15 15 15h33zM109 120c9 0 15 -6 15 -15v-280c0 -9 -6 -15 -15 -15h-33c-9 0 -15 6 -15 15v280c0 9 6 15 15 15h33z" />
    <glyph glyph-name="dagger" unicode="&#x2020;" horiz-adv-x="401" 
d="M331 583c9 0 15 -6 15 -15v-25c0 -9 -6 -15 -15 -15h-102v-103c0 -9 -6 -15 -15 -15h-25c-9 0 -15 6 -15 15v103h-104c-9 0 -15 6 -15 15v25c0 9 6 15 15 15h104v103c0 9 6 15 15 15h25c9 0 15 -6 15 -15v-103h102z" />
    <glyph glyph-name="daggerdbl" unicode="&#x2021;" horiz-adv-x="401" 
d="M331 583c9 0 15 -6 15 -15v-25c0 -9 -6 -15 -15 -15h-102v-103c0 -9 -6 -15 -15 -15h-25c-9 0 -15 6 -15 15v103h-104c-9 0 -15 6 -15 15v25c0 9 6 15 15 15h104v103c0 9 6 15 15 15h25c9 0 15 -6 15 -15v-103h102zM331 246c9 0 15 -6 15 -15v-25c0 -9 -6 -15 -15 -15
h-102v-103c0 -9 -6 -15 -15 -15h-25c-9 0 -15 6 -15 15v103h-104c-9 0 -15 6 -15 15v25c0 9 6 15 15 15h104v103c0 9 6 15 15 15h25c9 0 15 -6 15 -15v-103h102z" />
    <glyph glyph-name="asciicircum" unicode="^" horiz-adv-x="567" 
d="M515 321c6 -10 0 -18 -11 -18h-24c-8 0 -14 4 -18 11l-179 332l-179 -332c-4 -7 -10 -11 -18 -11h-24c-11 0 -16 8 -10 18l200 368c4 7 10 11 18 11h28c8 0 14 -4 18 -11z" />
    <glyph glyph-name="uni0326" unicode="&#x326;" horiz-adv-x="0" 
d="M-47 -38c23 0 42 -18 42 -51c0 -50 -23 -85 -42 -109c-1 -2 -3 -3 -5 -3h-11c-3 0 -5 3 -3 6c11 22 19 43 19 74c-24 0 -42 18 -42 42c0 23 18 41 42 41z" />
    <glyph glyph-name="acute" unicode="&#xb4;" horiz-adv-x="121" 
d="M102 728c11 0 17 -6 12 -17l-60 -126c-4 -9 -9 -12 -17 -12h-18c-11 0 -17 6 -12 17l60 126c4 9 9 12 17 12h18z" />
    <glyph glyph-name="breve" unicode="&#x2d8;" horiz-adv-x="277" 
d="M226 686c2 9 7 14 16 14h15c10 0 15 -5 14 -15c-7 -65 -57 -115 -133 -115c-75 0 -125 50 -132 115c-1 10 4 15 14 15h15c9 0 14 -5 16 -14c8 -41 39 -71 87 -71s80 30 88 71z" />
    <glyph glyph-name="caron" unicode="&#x2c7;" horiz-adv-x="264" 
d="M151 576h-38c-7 0 -13 2 -18 8l-85 98c-8 10 -5 18 8 18h21c7 0 13 -2 18 -8l75 -86l75 86c5 6 11 8 18 8h21c13 0 16 -8 8 -18l-85 -98c-5 -6 -11 -8 -18 -8z" />
    <glyph glyph-name="cedilla" unicode="&#xb8;" horiz-adv-x="164" 
d="M80 -40c43 -3 79 -32 79 -76c0 -80 -78 -103 -145 -94c-6 1 -9 5 -9 11v24c0 6 4 10 11 10c55 -6 91 10 91 44c0 32 -42 49 -90 32c-7 -3 -12 0 -12 7v20c0 5 2 8 5 12l45 50h63z" />
    <glyph glyph-name="circumflex" unicode="&#x2c6;" horiz-adv-x="264" 
d="M151 700c7 0 13 -2 18 -8l85 -98c8 -10 5 -18 -8 -18h-21c-7 0 -13 2 -18 8l-75 86l-75 -86c-5 -6 -11 -8 -18 -8h-21c-13 0 -16 8 -8 18l85 98c5 6 11 8 18 8h38z" />
    <glyph glyph-name="dieresis" unicode="&#xa8;" horiz-adv-x="260" 
d="M43 631c-21 0 -38 17 -38 37s17 37 38 37s38 -17 38 -37s-17 -37 -38 -37zM217 631c-20 0 -38 17 -38 37s18 37 38 37c21 0 38 -17 38 -37s-17 -37 -38 -37z" />
    <glyph glyph-name="dotaccent" unicode="&#x2d9;" horiz-adv-x="86" 
d="M43 631c-21 0 -38 17 -38 37s17 37 38 37s38 -17 38 -37s-17 -37 -38 -37z" />
    <glyph glyph-name="grave" unicode="`" horiz-adv-x="144" 
d="M42 728h18c8 0 13 -3 17 -12l60 -126c5 -11 -1 -17 -12 -17h-18c-8 0 -13 3 -17 12l-60 126c-5 11 1 17 12 17z" />
    <glyph glyph-name="hungarumlaut" unicode="&#x2dd;" horiz-adv-x="279" 
d="M102 728c11 0 17 -6 12 -17l-60 -126c-4 -9 -9 -12 -17 -12h-18c-11 0 -17 6 -12 17l60 126c4 9 9 12 17 12h18zM237 728c11 0 17 -6 12 -17l-60 -126c-4 -9 -9 -12 -17 -12h-18c-11 0 -17 6 -12 17l60 126c4 9 9 12 17 12h18z" />
    <glyph glyph-name="macron" unicode="&#xaf;" horiz-adv-x="305" 
d="M285 700c9 0 15 -6 15 -15v-21c0 -9 -6 -15 -15 -15h-265c-9 0 -15 6 -15 15v21c0 9 6 15 15 15h265z" />
    <glyph glyph-name="ogonek" unicode="&#x2db;" horiz-adv-x="186" 
d="M181 0c-72 0 -120 -52 -120 -95c0 -50 36 -69 91 -57v-46c-43 -20 -147 -10 -147 90s112 148 176 148v-40z" />
    <glyph glyph-name="ring" unicode="&#x2da;" horiz-adv-x="159" 
d="M81 714c40 0 73 -34 73 -74s-33 -73 -73 -73c-43 0 -76 33 -76 73s33 74 76 74zM81 612c15 0 28 13 28 28c0 16 -13 28 -28 28c-17 0 -29 -12 -29 -28c0 -15 12 -28 29 -28z" />
    <glyph glyph-name="tilde" unicode="&#x2dc;" horiz-adv-x="299" 
d="M85 717c66 0 83 -65 134 -65c25 0 36 18 41 32c2 6 5 9 11 9h13c6 0 10 -4 10 -10c-6 -46 -41 -69 -75 -69c-70 0 -87 65 -138 65c-27 0 -38 -18 -42 -32c-2 -6 -5 -9 -11 -9h-13c-6 0 -10 4 -9 12c5 44 38 67 79 67z" />
    </font>
</defs>
</svg>
